<?xml version="1.0" encoding="UTF-8" standalone="no"?>
<!DOCTYPE svg PUBLIC "-//W3C//DTD SVG 1.1//EN"
 "http://www.w3.org/Graphics/SVG/1.1/DTD/svg11.dtd">
<!-- Generated by graphviz version 14.1.5 (0)
 -->
<!-- Title: UC009SequenceDiagram Pages: 1 -->
<svg width="1272pt" height="798pt"
 viewBox="0.00 0.00 1272.00 798.00" xmlns="http://www.w3.org/2000/svg" xmlns:xlink="http://www.w3.org/1999/xlink">
<g id="graph0" class="graph" transform="scale(1 1) rotate(0) translate(28.8 769.55)">
<title>UC009SequenceDiagram</title>
<text xml:space="preserve" text-anchor="middle" x="607.12" y="-721.55" font-family="Inter" font-size="16.00">UC&#45;009 Sequence Diagram: View Current Network Status</text>
<!-- user -->
<g id="node1" class="node">
<title>user</title>
<path fill="#fff8c5" stroke="#2f3437" d="M735.75,-713.25C735.75,-713.25 658.25,-713.25 658.25,-713.25 652.25,-713.25 646.25,-707.25 646.25,-701.25 646.25,-701.25 646.25,-689.25 646.25,-689.25 646.25,-683.25 652.25,-677.25 658.25,-677.25 658.25,-677.25 735.75,-677.25 735.75,-677.25 741.75,-677.25 747.75,-683.25 747.75,-689.25 747.75,-689.25 747.75,-701.25 747.75,-701.25 747.75,-707.25 741.75,-713.25 735.75,-713.25"/>
<text xml:space="preserve" text-anchor="middle" x="697" y="-691.55" font-family="Inter" font-size="11.00" fill="#1f2328">Void Linux User</text>
</g>
<!-- composition_root -->
<g id="node2" class="node">
<title>composition_root</title>
<path fill="#ddf4ff" stroke="#2f3437" d="M467.12,-616.5C467.12,-616.5 340.88,-616.5 340.88,-616.5 334.88,-616.5 328.88,-610.5 328.88,-604.5 328.88,-604.5 328.88,-592.5 328.88,-592.5 328.88,-586.5 334.88,-580.5 340.88,-580.5 340.88,-580.5 467.12,-580.5 467.12,-580.5 473.12,-580.5 479.12,-586.5 479.12,-592.5 479.12,-592.5 479.12,-604.5 479.12,-604.5 479.12,-610.5 473.12,-616.5 467.12,-616.5"/>
<text xml:space="preserve" text-anchor="middle" x="404" y="-601.55" font-family="Inter" font-size="11.00" fill="#1f2328">&lt;&lt;composition root&gt;&gt;</text>
<text xml:space="preserve" text-anchor="middle" x="404" y="-588.05" font-family="Inter" font-size="11.00" fill="#1f2328">EvoWifiCompositionRoot</text>
</g>
<!-- user&#45;&gt;composition_root -->
<g id="edge1" class="edge">
<title>user&#45;&gt;composition_root</title>
<path fill="none" stroke="#59636e" d="M645.96,-677.75C595.9,-661.56 519.5,-636.85 465.98,-619.54"/>
<polygon fill="#59636e" stroke="#59636e" points="466.78,-617.23 459.36,-617.4 465.27,-621.89 466.78,-617.23"/>
<text xml:space="preserve" text-anchor="middle" x="645.67" y="-643.75" font-family="Inter" font-size="10.00" fill="#59636e">requests current network status</text>
</g>
<!-- system_provider -->
<g id="node3" class="node">
<title>system_provider</title>
<path fill="#ddf4ff" stroke="#2f3437" d="M588.25,-519.75C588.25,-519.75 465.75,-519.75 465.75,-519.75 459.75,-519.75 453.75,-513.75 453.75,-507.75 453.75,-507.75 453.75,-495.75 453.75,-495.75 453.75,-489.75 459.75,-483.75 465.75,-483.75 465.75,-483.75 588.25,-483.75 588.25,-483.75 594.25,-483.75 600.25,-489.75 600.25,-495.75 600.25,-495.75 600.25,-507.75 600.25,-507.75 600.25,-513.75 594.25,-519.75 588.25,-519.75"/>
<text xml:space="preserve" text-anchor="middle" x="527" y="-504.8" font-family="Inter" font-size="11.00" fill="#1f2328">&lt;&lt;provider&gt;&gt;</text>
<text xml:space="preserve" text-anchor="middle" x="527" y="-491.3" font-family="Inter" font-size="11.00" fill="#1f2328">VoidSystemWifiProvider</text>
</g>
<!-- composition_root&#45;&gt;system_provider -->
<g id="edge2" class="edge">
<title>composition_root&#45;&gt;system_provider</title>
<path fill="none" stroke="#59636e" d="M426.56,-580.12C446.67,-564.63 476.22,-541.86 498.07,-525.04"/>
<polygon fill="#59636e" stroke="#59636e" points="499.33,-527.15 503.38,-520.94 496.34,-523.27 499.33,-527.15"/>
<text xml:space="preserve" text-anchor="middle" x="490.86" y="-547" font-family="Inter" font-size="10.00" fill="#59636e">creates</text>
</g>
<!-- presentation_provider -->
<g id="node4" class="node">
<title>presentation_provider</title>
<path fill="#ddf4ff" stroke="#2f3437" d="M266.62,-36C266.62,-36 113.38,-36 113.38,-36 107.38,-36 101.38,-30 101.38,-24 101.38,-24 101.38,-12 101.38,-12 101.38,-6 107.38,0 113.38,0 113.38,0 266.62,0 266.62,0 272.62,0 278.62,-6 278.62,-12 278.62,-12 278.62,-24 278.62,-24 278.62,-30 272.62,-36 266.62,-36"/>
<text xml:space="preserve" text-anchor="middle" x="190" y="-21.05" font-family="Inter" font-size="11.00" fill="#1f2328">&lt;&lt;provider&gt;&gt;</text>
<text xml:space="preserve" text-anchor="middle" x="190" y="-7.55" font-family="Inter" font-size="11.00" fill="#1f2328">TerminalPresentationProvider</text>
</g>
<!-- composition_root&#45;&gt;presentation_provider -->
<g id="edge3" class="edge">
<title>composition_root&#45;&gt;presentation_provider</title>
<path fill="none" stroke="#59636e" d="M328.48,-595.08C211.55,-589.25 0,-569.48 0,-502.75 0,-502.75 0,-502.75 0,-113.75 0,-67.23 46.17,-43.55 93,-31.5"/>
<polygon fill="#59636e" stroke="#59636e" points="93.43,-33.91 99.65,-29.88 92.27,-29.15 93.43,-33.91"/>
<text xml:space="preserve" text-anchor="middle" x="18" y="-305.12" font-family="Inter" font-size="10.00" fill="#59636e">creates</text>
</g>
<!-- agent_subject -->
<g id="node5" class="node">
<title>agent_subject</title>
<path fill="#f6f8fa" stroke="#2f3437" d="M368.38,-519.75C368.38,-519.75 81.62,-519.75 81.62,-519.75 75.62,-519.75 69.62,-513.75 69.62,-507.75 69.62,-507.75 69.62,-495.75 69.62,-495.75 69.62,-489.75 75.62,-483.75 81.62,-483.75 81.62,-483.75 368.38,-483.75 368.38,-483.75 374.38,-483.75 380.38,-489.75 380.38,-495.75 380.38,-495.75 380.38,-507.75 380.38,-507.75 380.38,-513.75 374.38,-519.75 368.38,-519.75"/>
<text xml:space="preserve" text-anchor="middle" x="225" y="-504.8" font-family="Inter" font-size="11.00" fill="#1f2328">&lt;&lt;agent_subject&gt;&gt;</text>
<text xml:space="preserve" text-anchor="middle" x="225" y="-491.3" font-family="Inter" font-size="11.00" fill="#1f2328">agent_subjects::wifi_connection_status_shower::show</text>
</g>
<!-- composition_root&#45;&gt;agent_subject -->
<g id="edge4" class="edge">
<title>composition_root&#45;&gt;agent_subject</title>
<path fill="none" stroke="#59636e" d="M371.17,-580.12C341.36,-564.34 297.31,-541.03 265.36,-524.11"/>
<polygon fill="#59636e" stroke="#59636e" points="266.6,-522 259.26,-520.89 264.3,-526.33 266.6,-522"/>
<text xml:space="preserve" text-anchor="middle" x="379.97" y="-547" font-family="Inter" font-size="10.00" fill="#59636e">invokes with contracts</text>
</g>
<!-- interface_resolver -->
<g id="node6" class="node">
<title>interface_resolver</title>
<path fill="#f6f8fa" stroke="#2f3437" d="M441.5,-423C441.5,-423 278.5,-423 278.5,-423 272.5,-423 266.5,-417 266.5,-411 266.5,-411 266.5,-399 266.5,-399 266.5,-393 272.5,-387 278.5,-387 278.5,-387 441.5,-387 441.5,-387 447.5,-387 453.5,-393 453.5,-399 453.5,-399 453.5,-411 453.5,-411 453.5,-417 447.5,-423 441.5,-423"/>
<text xml:space="preserve" text-anchor="middle" x="360" y="-408.05" font-family="Inter" font-size="11.00" fill="#1f2328">&lt;&lt;resolver&gt;&gt;</text>
<text xml:space="preserve" text-anchor="middle" x="360" y="-394.55" font-family="Inter" font-size="11.00" fill="#1f2328">wifi_interface_resolver::resolve</text>
</g>
<!-- system_provider&#45;&gt;interface_resolver -->
<g id="edge10" class="edge">
<title>system_provider&#45;&gt;interface_resolver</title>
<path fill="none" stroke="#59636e" stroke-dasharray="5,2" d="M453.43,-492.06C413.36,-485.64 369.49,-475.29 357.25,-459.75 351.08,-451.91 350.53,-441.27 351.99,-431.52"/>
<polygon fill="#59636e" stroke="#59636e" points="354.37,-432.11 353.39,-424.76 349.58,-431.11 354.37,-432.11"/>
<text xml:space="preserve" text-anchor="middle" x="413.12" y="-450.25" font-family="Inter" font-size="10.00" fill="#59636e">WifiInterfaceView&lt;&#39;a&gt;</text>
</g>
<!-- status_resolver -->
<g id="node7" class="node">
<title>status_resolver</title>
<path fill="#f6f8fa" stroke="#2f3437" d="M323,-326.25C323,-326.25 109,-326.25 109,-326.25 103,-326.25 97,-320.25 97,-314.25 97,-314.25 97,-302.25 97,-302.25 97,-296.25 103,-290.25 109,-290.25 109,-290.25 323,-290.25 323,-290.25 329,-290.25 335,-296.25 335,-302.25 335,-302.25 335,-314.25 335,-314.25 335,-320.25 329,-326.25 323,-326.25"/>
<text xml:space="preserve" text-anchor="middle" x="216" y="-311.3" font-family="Inter" font-size="11.00" fill="#1f2328">&lt;&lt;resolver&gt;&gt;</text>
<text xml:space="preserve" text-anchor="middle" x="216" y="-297.8" font-family="Inter" font-size="11.00" fill="#1f2328">wifi_connection_status_resolver::resolve</text>
</g>
<!-- system_provider&#45;&gt;status_resolver -->
<g id="edge15" class="edge">
<title>system_provider&#45;&gt;status_resolver</title>
<path fill="none" stroke="#59636e" stroke-dasharray="5,2" d="M453.61,-489.96C333.88,-472.01 108.64,-436.64 97.25,-423 67.92,-387.89 121.83,-352.17 166.26,-330.36"/>
<polygon fill="#59636e" stroke="#59636e" points="167.25,-332.6 172.5,-327.37 165.13,-328.19 167.25,-332.6"/>
<text xml:space="preserve" text-anchor="middle" x="174.12" y="-401.88" font-family="Inter" font-size="10.00" fill="#59636e">WifiConnectionStatusView&lt;&#39;a&gt;</text>
</g>
<!-- external_wifi -->
<g id="node11" class="node">
<title>external_wifi</title>
<path fill="#f6f8fa" stroke="#2f3437" d="M812.5,-423C812.5,-423 685.5,-423 685.5,-423 679.5,-423 673.5,-417 673.5,-411 673.5,-411 673.5,-399 673.5,-399 673.5,-393 679.5,-387 685.5,-387 685.5,-387 812.5,-387 812.5,-387 818.5,-387 824.5,-393 824.5,-399 824.5,-399 824.5,-411 824.5,-411 824.5,-417 818.5,-423 812.5,-423"/>
<text xml:space="preserve" text-anchor="middle" x="749" y="-408.05" font-family="Inter" font-size="11.00" fill="#1f2328">&lt;&lt;external&gt;&gt;</text>
<text xml:space="preserve" text-anchor="middle" x="749" y="-394.55" font-family="Inter" font-size="11.00" fill="#1f2328">wpa_cli / wpa_supplicant</text>
</g>
<!-- system_provider&#45;&gt;external_wifi -->
<g id="edge8" class="edge">
<title>system_provider&#45;&gt;external_wifi</title>
<path fill="none" stroke="#59636e" d="M575.44,-483.28C594.17,-476.28 615.71,-467.94 635,-459.75 658.86,-449.62 685.04,-437.35 706.3,-427.1"/>
<polygon fill="#59636e" stroke="#59636e" points="707.29,-429.34 712.53,-424.08 705.16,-424.93 707.29,-429.34"/>
<text xml:space="preserve" text-anchor="middle" x="722.35" y="-450.25" font-family="Inter" font-size="10.00" fill="#59636e">queries interface source</text>
</g>
<!-- system_provider&#45;&gt;external_wifi -->
<g id="edge13" class="edge">
<title>system_provider&#45;&gt;external_wifi</title>
<path fill="none" stroke="#59636e" d="M600.44,-499.56C669.3,-496.7 765.13,-487.65 789,-459.75 797.34,-450 791.06,-438.67 781.22,-428.93"/>
<polygon fill="#59636e" stroke="#59636e" points="783.05,-427.29 776.21,-424.42 779.77,-430.93 783.05,-427.29"/>
<text xml:space="preserve" text-anchor="middle" x="854.38" y="-450.25" font-family="Inter" font-size="10.00" fill="#59636e">wpa_cli &#45;i &lt;iface&gt; status</text>
</g>
<!-- presentation_provider&#45;&gt;user -->
<g id="edge19" class="edge">
<title>presentation_provider&#45;&gt;user</title>
<path fill="none" stroke="#59636e" stroke-dasharray="5,2" d="M278.76,-18.99C508.89,-20.12 1107,-31.02 1107,-113.75 1107,-599.5 1107,-599.5 1107,-599.5 1107,-670.59 870.02,-688.35 756.39,-692.78"/>
<polygon fill="#59636e" stroke="#59636e" points="756.51,-690.33 749.61,-693.03 756.7,-695.22 756.51,-690.33"/>
<text xml:space="preserve" text-anchor="middle" x="1160.62" y="-353.5" font-family="Inter" font-size="10.00" fill="#59636e">renders current status</text>
</g>
<!-- agent_subject&#45;&gt;interface_resolver -->
<g id="edge5" class="edge">
<title>agent_subject&#45;&gt;interface_resolver</title>
<path fill="none" stroke="#59636e" d="M241.86,-483.33C253.17,-472.18 268.74,-457.82 284,-447 293.94,-439.95 305.22,-433.25 316,-427.38"/>
<polygon fill="#59636e" stroke="#59636e" points="316.99,-429.63 322.02,-424.17 314.69,-425.3 316.99,-429.63"/>
<text xml:space="preserve" text-anchor="middle" x="302" y="-450.25" font-family="Inter" font-size="10.00" fill="#59636e">resolve</text>
</g>
<!-- interface_resolver&#45;&gt;status_resolver -->
<g id="edge11" class="edge">
<title>interface_resolver&#45;&gt;status_resolver</title>
<path fill="none" stroke="#59636e" d="M329.55,-386.57C317.49,-379.48 303.58,-371.06 291.25,-363 276.14,-353.13 259.8,-341.56 246.21,-331.69"/>
<polygon fill="#59636e" stroke="#59636e" points="247.7,-329.74 240.6,-327.6 244.81,-333.7 247.7,-329.74"/>
<text xml:space="preserve" text-anchor="middle" x="347.12" y="-353.5" font-family="Inter" font-size="10.00" fill="#59636e">WifiInterfaceView&lt;&#39;a&gt;</text>
</g>
<!-- status_contract -->
<g id="node9" class="node">
<title>status_contract</title>
<path fill="#f6f8fa" stroke="#2f3437" d="M530.12,-229.5C530.12,-229.5 373.88,-229.5 373.88,-229.5 367.88,-229.5 361.88,-223.5 361.88,-217.5 361.88,-217.5 361.88,-205.5 361.88,-205.5 361.88,-199.5 367.88,-193.5 373.88,-193.5 373.88,-193.5 530.12,-193.5 530.12,-193.5 536.12,-193.5 542.12,-199.5 542.12,-205.5 542.12,-205.5 542.12,-217.5 542.12,-217.5 542.12,-223.5 536.12,-229.5 530.12,-229.5"/>
<text xml:space="preserve" text-anchor="middle" x="452" y="-214.55" font-family="Inter" font-size="11.00" fill="#1f2328">&lt;&lt;contract / trait&gt;&gt;</text>
<text xml:space="preserve" text-anchor="middle" x="452" y="-201.05" font-family="Inter" font-size="11.00" fill="#1f2328">WifiStatusSystemWifiContract</text>
</g>
<!-- interface_resolver&#45;&gt;status_contract -->
<g id="edge6" class="edge">
<title>interface_resolver&#45;&gt;status_contract</title>
<path fill="none" stroke="#59636e" d="M385.05,-386.62C393.02,-380.02 401.26,-371.92 407,-363 432.37,-323.6 443.96,-269.28 448.83,-237.82"/>
<polygon fill="#59636e" stroke="#59636e" points="451.23,-238.37 449.82,-231.09 446.38,-237.66 451.23,-238.37"/>
<text xml:space="preserve" text-anchor="middle" x="448.64" y="-305.12" font-family="Inter" font-size="10.00" fill="#59636e">uses</text>
</g>
<!-- output_resolver -->
<g id="node8" class="node">
<title>output_resolver</title>
<path fill="#f6f8fa" stroke="#2f3437" d="M317.62,-229.5C317.62,-229.5 62.38,-229.5 62.38,-229.5 56.38,-229.5 50.38,-223.5 50.38,-217.5 50.38,-217.5 50.38,-205.5 50.38,-205.5 50.38,-199.5 56.38,-193.5 62.38,-193.5 62.38,-193.5 317.62,-193.5 317.62,-193.5 323.62,-193.5 329.62,-199.5 329.62,-205.5 329.62,-205.5 329.62,-217.5 329.62,-217.5 329.62,-223.5 323.62,-229.5 317.62,-229.5"/>
<text xml:space="preserve" text-anchor="middle" x="190" y="-214.55" font-family="Inter" font-size="11.00" fill="#1f2328">&lt;&lt;resolver&gt;&gt;</text>
<text xml:space="preserve" text-anchor="middle" x="190" y="-201.05" font-family="Inter" font-size="11.00" fill="#1f2328">wifi_connection_status_output_resolver::resolve</text>
</g>
<!-- status_resolver&#45;&gt;output_resolver -->
<g id="edge16" class="edge">
<title>status_resolver&#45;&gt;output_resolver</title>
<path fill="none" stroke="#59636e" d="M201.04,-290.09C195.94,-283.17 190.87,-274.8 188.25,-266.25 185.51,-257.32 185.18,-247.16 185.79,-238.1"/>
<polygon fill="#59636e" stroke="#59636e" points="188.21,-238.54 186.47,-231.33 183.34,-238.05 188.21,-238.54"/>
<text xml:space="preserve" text-anchor="middle" x="265.12" y="-256.75" font-family="Inter" font-size="10.00" fill="#59636e">WifiConnectionStatusView&lt;&#39;a&gt;</text>
</g>
<!-- status_resolver&#45;&gt;status_contract -->
<g id="edge12" class="edge">
<title>status_resolver&#45;&gt;status_contract</title>
<path fill="none" stroke="#59636e" d="M278.56,-289.79C300.2,-283.16 324.42,-275.06 346,-266.25 369.04,-256.85 393.89,-244.38 413.74,-233.82"/>
<polygon fill="#59636e" stroke="#59636e" points="414.75,-236.06 419.76,-230.59 412.43,-231.74 414.75,-236.06"/>
<text xml:space="preserve" text-anchor="middle" x="384.07" y="-256.75" font-family="Inter" font-size="10.00" fill="#59636e">uses</text>
</g>
<!-- render_contract -->
<g id="node10" class="node">
<title>render_contract</title>
<path fill="#f6f8fa" stroke="#2f3437" d="M291.75,-132.75C291.75,-132.75 88.25,-132.75 88.25,-132.75 82.25,-132.75 76.25,-126.75 76.25,-120.75 76.25,-120.75 76.25,-108.75 76.25,-108.75 76.25,-102.75 82.25,-96.75 88.25,-96.75 88.25,-96.75 291.75,-96.75 291.75,-96.75 297.75,-96.75 303.75,-102.75 303.75,-108.75 303.75,-108.75 303.75,-120.75 303.75,-120.75 303.75,-126.75 297.75,-132.75 291.75,-132.75"/>
<text xml:space="preserve" text-anchor="middle" x="190" y="-117.8" font-family="Inter" font-size="11.00" fill="#1f2328">&lt;&lt;contract / trait&gt;&gt;</text>
<text xml:space="preserve" text-anchor="middle" x="190" y="-104.3" font-family="Inter" font-size="11.00" fill="#1f2328">WifiStatusRenderPresentationContract</text>
</g>
<!-- output_resolver&#45;&gt;render_contract -->
<g id="edge17" class="edge">
<title>output_resolver&#45;&gt;render_contract</title>
<path fill="none" stroke="#59636e" d="M190,-193.12C190,-178.56 190,-157.58 190,-141.14"/>
<polygon fill="#59636e" stroke="#59636e" points="192.45,-141.53 190,-134.53 187.55,-141.53 192.45,-141.53"/>
<text xml:space="preserve" text-anchor="middle" x="201.25" y="-160" font-family="Inter" font-size="10.00" fill="#59636e">uses</text>
</g>
<!-- status_contract&#45;&gt;system_provider -->
<g id="edge7" class="edge">
<title>status_contract&#45;&gt;system_provider</title>
<path fill="none" stroke="#59636e" d="M460.44,-229.78C463.74,-236.99 467.36,-245.53 470,-253.5 496.19,-332.49 514.76,-429.54 522.7,-474.98"/>
<polygon fill="#59636e" stroke="#59636e" points="520.29,-475.39 523.89,-481.87 525.12,-474.55 520.29,-475.39"/>
<text xml:space="preserve" text-anchor="middle" x="539.89" y="-353.5" font-family="Inter" font-size="10.00" fill="#59636e">implemented by</text>
</g>
<!-- render_contract&#45;&gt;presentation_provider -->
<g id="edge18" class="edge">
<title>render_contract&#45;&gt;presentation_provider</title>
<path fill="none" stroke="#59636e" d="M190,-96.37C190,-81.81 190,-60.83 190,-44.39"/>
<polygon fill="#59636e" stroke="#59636e" points="192.45,-44.78 190,-37.78 187.55,-44.78 192.45,-44.78"/>
<text xml:space="preserve" text-anchor="middle" x="230.12" y="-63.25" font-family="Inter" font-size="10.00" fill="#59636e">implemented by</text>
</g>
<!-- external_wifi&#45;&gt;system_provider -->
<g id="edge9" class="edge">
<title>external_wifi&#45;&gt;system_provider</title>
<path fill="none" stroke="#59636e" stroke-dasharray="5,2" d="M824.89,-411.64C874.97,-417.13 934.15,-427.59 950,-447 953.58,-451.39 953.81,-455.55 950,-459.75 927.54,-484.49 725.06,-494.75 608.57,-498.63"/>
<polygon fill="#59636e" stroke="#59636e" points="608.77,-496.17 601.85,-498.85 608.93,-501.07 608.77,-496.17"/>
<text xml:space="preserve" text-anchor="middle" x="1002.27" y="-450.25" font-family="Inter" font-size="10.00" fill="#59636e">raw interface output</text>
</g>
<!-- external_wifi&#45;&gt;system_provider -->
<g id="edge14" class="edge">
<title>external_wifi&#45;&gt;system_provider</title>
<path fill="none" stroke="#59636e" stroke-dasharray="5,2" d="M673.27,-412.6C622.1,-418.57 560.52,-429.24 541.5,-447 533.77,-454.22 530,-465.08 528.22,-475.15"/>
<polygon fill="#59636e" stroke="#59636e" points="525.82,-474.57 527.34,-481.83 530.68,-475.21 525.82,-474.57"/>
<text xml:space="preserve" text-anchor="middle" x="584.25" y="-450.25" font-family="Inter" font-size="10.00" fill="#59636e">raw status output</text>
</g>
</g>
</svg>
