<?xml version="1.0" encoding="UTF-8" standalone="no"?>
<!DOCTYPE svg PUBLIC "-//W3C//DTD SVG 1.1//EN"
 "http://www.w3.org/Graphics/SVG/1.1/DTD/svg11.dtd">
<!-- Generated by graphviz version 14.1.5 (0)
 -->
<!-- Title: UC009SequenceDiagram Pages: 1 -->
<svg width="1304pt" height="798pt"
 viewBox="0.00 0.00 1304.00 798.00" xmlns="http://www.w3.org/2000/svg" xmlns:xlink="http://www.w3.org/1999/xlink">
<g id="graph0" class="graph" transform="scale(1 1) rotate(0) translate(28.8 769.55)">
<title>UC009SequenceDiagram</title>
<text xml:space="preserve" text-anchor="middle" x="623.12" y="-721.55" font-family="Inter" font-size="16.00">UC&#45;009 Sequence Diagram: View Current Network Status</text>
<!-- user -->
<g id="node1" class="node">
<title>user</title>
<path fill="#fff8c5" stroke="#2f3437" d="M788.75,-713.25C788.75,-713.25 711.25,-713.25 711.25,-713.25 705.25,-713.25 699.25,-707.25 699.25,-701.25 699.25,-701.25 699.25,-689.25 699.25,-689.25 699.25,-683.25 705.25,-677.25 711.25,-677.25 711.25,-677.25 788.75,-677.25 788.75,-677.25 794.75,-677.25 800.75,-683.25 800.75,-689.25 800.75,-689.25 800.75,-701.25 800.75,-701.25 800.75,-707.25 794.75,-713.25 788.75,-713.25"/>
<text xml:space="preserve" text-anchor="middle" x="750" y="-691.55" font-family="Inter" font-size="11.00" fill="#1f2328">Void Linux User</text>
</g>
<!-- composition_root -->
<g id="node2" class="node">
<title>composition_root</title>
<path fill="#ddf4ff" stroke="#2f3437" d="M480.12,-616.5C480.12,-616.5 353.88,-616.5 353.88,-616.5 347.88,-616.5 341.88,-610.5 341.88,-604.5 341.88,-604.5 341.88,-592.5 341.88,-592.5 341.88,-586.5 347.88,-580.5 353.88,-580.5 353.88,-580.5 480.12,-580.5 480.12,-580.5 486.12,-580.5 492.12,-586.5 492.12,-592.5 492.12,-592.5 492.12,-604.5 492.12,-604.5 492.12,-610.5 486.12,-616.5 480.12,-616.5"/>
<text xml:space="preserve" text-anchor="middle" x="417" y="-601.55" font-family="Inter" font-size="11.00" fill="#1f2328">&lt;&lt;composition root&gt;&gt;</text>
<text xml:space="preserve" text-anchor="middle" x="417" y="-588.05" font-family="Inter" font-size="11.00" fill="#1f2328">EvoWifiCompositionRoot</text>
</g>
<!-- user&#45;&gt;composition_root -->
<g id="edge1" class="edge">
<title>user&#45;&gt;composition_root</title>
<path fill="none" stroke="#59636e" d="M699.06,-679.76C642.19,-663.57 549.82,-637.29 486.38,-619.24"/>
<polygon fill="#59636e" stroke="#59636e" points="487.26,-616.95 479.86,-617.39 485.92,-621.66 487.26,-616.95"/>
<text xml:space="preserve" text-anchor="middle" x="681.06" y="-643.75" font-family="Inter" font-size="10.00" fill="#59636e">requests current network status</text>
</g>
<!-- system_provider -->
<g id="node3" class="node">
<title>system_provider</title>
<path fill="#ddf4ff" stroke="#2f3437" d="M593.62,-519.75C593.62,-519.75 512.38,-519.75 512.38,-519.75 506.38,-519.75 500.38,-513.75 500.38,-507.75 500.38,-507.75 500.38,-495.75 500.38,-495.75 500.38,-489.75 506.38,-483.75 512.38,-483.75 512.38,-483.75 593.62,-483.75 593.62,-483.75 599.62,-483.75 605.62,-489.75 605.62,-495.75 605.62,-495.75 605.62,-507.75 605.62,-507.75 605.62,-513.75 599.62,-519.75 593.62,-519.75"/>
<text xml:space="preserve" text-anchor="middle" x="553" y="-504.8" font-family="Inter" font-size="11.00" fill="#1f2328">&lt;&lt;provider&gt;&gt;</text>
<text xml:space="preserve" text-anchor="middle" x="553" y="-491.3" font-family="Inter" font-size="11.00" fill="#1f2328">VoidWifiProvider</text>
</g>
<!-- composition_root&#45;&gt;system_provider -->
<g id="edge2" class="edge">
<title>composition_root&#45;&gt;system_provider</title>
<path fill="none" stroke="#59636e" d="M441.94,-580.12C464.28,-564.56 497.14,-541.67 521.32,-524.82"/>
<polygon fill="#59636e" stroke="#59636e" points="522.63,-526.9 526.97,-520.88 519.83,-522.87 522.63,-526.9"/>
<text xml:space="preserve" text-anchor="middle" x="511.14" y="-547" font-family="Inter" font-size="10.00" fill="#59636e">creates</text>
</g>
<!-- presentation_provider -->
<g id="node4" class="node">
<title>presentation_provider</title>
<path fill="#ddf4ff" stroke="#2f3437" d="M252.88,-36C252.88,-36 131.12,-36 131.12,-36 125.12,-36 119.12,-30 119.12,-24 119.12,-24 119.12,-12 119.12,-12 119.12,-6 125.12,0 131.12,0 131.12,0 252.88,0 252.88,0 258.88,0 264.88,-6 264.88,-12 264.88,-12 264.88,-24 264.88,-24 264.88,-30 258.88,-36 252.88,-36"/>
<text xml:space="preserve" text-anchor="middle" x="192" y="-21.05" font-family="Inter" font-size="11.00" fill="#1f2328">&lt;&lt;provider&gt;&gt;</text>
<text xml:space="preserve" text-anchor="middle" x="192" y="-7.55" font-family="Inter" font-size="11.00" fill="#1f2328">TerminalOutputProvider</text>
</g>
<!-- composition_root&#45;&gt;presentation_provider -->
<g id="edge3" class="edge">
<title>composition_root&#45;&gt;presentation_provider</title>
<path fill="none" stroke="#59636e" d="M341.48,-595.65C221.32,-590.63 0,-571.98 0,-502.75 0,-502.75 0,-502.75 0,-113.75 0,-61.35 58.21,-37.93 110.53,-27.46"/>
<polygon fill="#59636e" stroke="#59636e" points="110.95,-29.88 117.38,-26.17 110.05,-25.06 110.95,-29.88"/>
<text xml:space="preserve" text-anchor="middle" x="18" y="-305.12" font-family="Inter" font-size="10.00" fill="#59636e">creates</text>
</g>
<!-- agent_subject -->
<g id="node5" class="node">
<title>agent_subject</title>
<path fill="#f6f8fa" stroke="#2f3437" d="M365.88,-519.75C365.88,-519.75 124.12,-519.75 124.12,-519.75 118.12,-519.75 112.12,-513.75 112.12,-507.75 112.12,-507.75 112.12,-495.75 112.12,-495.75 112.12,-489.75 118.12,-483.75 124.12,-483.75 124.12,-483.75 365.88,-483.75 365.88,-483.75 371.88,-483.75 377.88,-489.75 377.88,-495.75 377.88,-495.75 377.88,-507.75 377.88,-507.75 377.88,-513.75 371.88,-519.75 365.88,-519.75"/>
<text xml:space="preserve" text-anchor="middle" x="245" y="-504.8" font-family="Inter" font-size="11.00" fill="#1f2328">&lt;&lt;agent_subject&gt;&gt;</text>
<text xml:space="preserve" text-anchor="middle" x="245" y="-491.3" font-family="Inter" font-size="11.00" fill="#1f2328">agents::wifi_connection_status_shower::show</text>
</g>
<!-- composition_root&#45;&gt;agent_subject -->
<g id="edge4" class="edge">
<title>composition_root&#45;&gt;agent_subject</title>
<path fill="none" stroke="#59636e" d="M385.45,-580.12C356.81,-564.34 314.48,-541.03 283.78,-524.11"/>
<polygon fill="#59636e" stroke="#59636e" points="285.28,-522.14 277.96,-520.91 282.91,-526.43 285.28,-522.14"/>
<text xml:space="preserve" text-anchor="middle" x="396.05" y="-547" font-family="Inter" font-size="10.00" fill="#59636e">invokes with contracts</text>
</g>
<!-- interface_resolver -->
<g id="node6" class="node">
<title>interface_resolver</title>
<path fill="#f6f8fa" stroke="#2f3437" d="M464.5,-423C464.5,-423 301.5,-423 301.5,-423 295.5,-423 289.5,-417 289.5,-411 289.5,-411 289.5,-399 289.5,-399 289.5,-393 295.5,-387 301.5,-387 301.5,-387 464.5,-387 464.5,-387 470.5,-387 476.5,-393 476.5,-399 476.5,-399 476.5,-411 476.5,-411 476.5,-417 470.5,-423 464.5,-423"/>
<text xml:space="preserve" text-anchor="middle" x="383" y="-408.05" font-family="Inter" font-size="11.00" fill="#1f2328">&lt;&lt;resolver&gt;&gt;</text>
<text xml:space="preserve" text-anchor="middle" x="383" y="-394.55" font-family="Inter" font-size="11.00" fill="#1f2328">wifi_interface_resolver::resolve</text>
</g>
<!-- system_provider&#45;&gt;interface_resolver -->
<g id="edge10" class="edge">
<title>system_provider&#45;&gt;interface_resolver</title>
<path fill="none" stroke="#59636e" stroke-dasharray="5,2" d="M500.15,-496.39C451.09,-491.11 383.24,-480.27 366.75,-459.75 360.03,-451.39 362.09,-440.3 366.61,-430.36"/>
<polygon fill="#59636e" stroke="#59636e" points="368.66,-431.72 369.75,-424.39 364.33,-429.45 368.66,-431.72"/>
<text xml:space="preserve" text-anchor="middle" x="433.88" y="-450.25" font-family="Inter" font-size="10.00" fill="#59636e">WifiInterfaceBorrowed&lt;&#39;a&gt;</text>
</g>
<!-- status_resolver -->
<g id="node7" class="node">
<title>status_resolver</title>
<path fill="#f6f8fa" stroke="#2f3437" d="M336,-326.25C336,-326.25 122,-326.25 122,-326.25 116,-326.25 110,-320.25 110,-314.25 110,-314.25 110,-302.25 110,-302.25 110,-296.25 116,-290.25 122,-290.25 122,-290.25 336,-290.25 336,-290.25 342,-290.25 348,-296.25 348,-302.25 348,-302.25 348,-314.25 348,-314.25 348,-320.25 342,-326.25 336,-326.25"/>
<text xml:space="preserve" text-anchor="middle" x="229" y="-311.3" font-family="Inter" font-size="11.00" fill="#1f2328">&lt;&lt;resolver&gt;&gt;</text>
<text xml:space="preserve" text-anchor="middle" x="229" y="-297.8" font-family="Inter" font-size="11.00" fill="#1f2328">wifi_connection_status_resolver::resolve</text>
</g>
<!-- system_provider&#45;&gt;status_resolver -->
<g id="edge15" class="edge">
<title>system_provider&#45;&gt;status_resolver</title>
<path fill="none" stroke="#59636e" stroke-dasharray="5,2" d="M500.03,-495.53C385.61,-483.71 123.54,-453.57 97.75,-423 66.74,-386.25 125.3,-351.14 173.86,-329.9"/>
<polygon fill="#59636e" stroke="#59636e" points="174.69,-332.21 180.16,-327.2 172.76,-327.7 174.69,-332.21"/>
<text xml:space="preserve" text-anchor="middle" x="185.88" y="-401.88" font-family="Inter" font-size="10.00" fill="#59636e">WifiConnectionStatusBorrowed&lt;&#39;a&gt;</text>
</g>
<!-- external_wifi -->
<g id="node11" class="node">
<title>external_wifi</title>
<path fill="#f6f8fa" stroke="#2f3437" d="M844.5,-423C844.5,-423 717.5,-423 717.5,-423 711.5,-423 705.5,-417 705.5,-411 705.5,-411 705.5,-399 705.5,-399 705.5,-393 711.5,-387 717.5,-387 717.5,-387 844.5,-387 844.5,-387 850.5,-387 856.5,-393 856.5,-399 856.5,-399 856.5,-411 856.5,-411 856.5,-417 850.5,-423 844.5,-423"/>
<text xml:space="preserve" text-anchor="middle" x="781" y="-408.05" font-family="Inter" font-size="11.00" fill="#1f2328">&lt;&lt;external&gt;&gt;</text>
<text xml:space="preserve" text-anchor="middle" x="781" y="-394.55" font-family="Inter" font-size="11.00" fill="#1f2328">wpa_cli / wpa_supplicant</text>
</g>
<!-- system_provider&#45;&gt;external_wifi -->
<g id="edge8" class="edge">
<title>system_provider&#45;&gt;external_wifi</title>
<path fill="none" stroke="#59636e" d="M604.76,-483.31C624.41,-476.38 646.89,-468.08 667,-459.75 691.03,-449.79 717.33,-437.49 738.61,-427.17"/>
<polygon fill="#59636e" stroke="#59636e" points="739.63,-429.39 744.85,-424.12 737.48,-424.99 739.63,-429.39"/>
<text xml:space="preserve" text-anchor="middle" x="754.42" y="-450.25" font-family="Inter" font-size="10.00" fill="#59636e">queries interface source</text>
</g>
<!-- system_provider&#45;&gt;external_wifi -->
<g id="edge13" class="edge">
<title>system_provider&#45;&gt;external_wifi</title>
<path fill="none" stroke="#59636e" d="M606.06,-500.48C676.14,-498.86 793.86,-491.35 821,-459.75 829.36,-450.01 823.08,-438.68 813.23,-428.94"/>
<polygon fill="#59636e" stroke="#59636e" points="815.07,-427.3 808.23,-424.43 811.79,-430.94 815.07,-427.3"/>
<text xml:space="preserve" text-anchor="middle" x="886.39" y="-450.25" font-family="Inter" font-size="10.00" fill="#59636e">wpa_cli &#45;i &lt;iface&gt; status</text>
</g>
<!-- presentation_provider&#45;&gt;user -->
<g id="edge19" class="edge">
<title>presentation_provider&#45;&gt;user</title>
<path fill="none" stroke="#59636e" stroke-dasharray="5,2" d="M265.13,-18.67C487.26,-18.64 1139,-26.02 1139,-113.75 1139,-599.5 1139,-599.5 1139,-599.5 1139,-666.57 917.96,-686.36 809.13,-692.04"/>
<polygon fill="#59636e" stroke="#59636e" points="809.23,-689.59 802.37,-692.38 809.48,-694.48 809.23,-689.59"/>
<text xml:space="preserve" text-anchor="middle" x="1192.62" y="-353.5" font-family="Inter" font-size="10.00" fill="#59636e">renders current status</text>
</g>
<!-- agent_subject&#45;&gt;interface_resolver -->
<g id="edge5" class="edge">
<title>agent_subject&#45;&gt;interface_resolver</title>
<path fill="none" stroke="#59636e" d="M257.67,-483.58C266.8,-472.1 279.94,-457.29 294,-447 304.57,-439.26 316.84,-432.47 328.83,-426.76"/>
<polygon fill="#59636e" stroke="#59636e" points="329.53,-429.13 334.86,-423.97 327.48,-424.68 329.53,-429.13"/>
<text xml:space="preserve" text-anchor="middle" x="312" y="-450.25" font-family="Inter" font-size="10.00" fill="#59636e">resolve</text>
</g>
<!-- interface_resolver&#45;&gt;status_resolver -->
<g id="edge11" class="edge">
<title>interface_resolver&#45;&gt;status_resolver</title>
<path fill="none" stroke="#59636e" d="M336.57,-386.57C321.46,-380.07 304.94,-372.04 290.75,-363 277.02,-354.25 263.22,-342.58 252.15,-332.34"/>
<polygon fill="#59636e" stroke="#59636e" points="253.85,-330.57 247.08,-327.55 250.49,-334.14 253.85,-330.57"/>
<text xml:space="preserve" text-anchor="middle" x="357.88" y="-353.5" font-family="Inter" font-size="10.00" fill="#59636e">WifiInterfaceBorrowed&lt;&#39;a&gt;</text>
</g>
<!-- status_contract -->
<g id="node9" class="node">
<title>status_contract</title>
<path fill="#f6f8fa" stroke="#2f3437" d="M504.12,-229.5C504.12,-229.5 395.88,-229.5 395.88,-229.5 389.88,-229.5 383.88,-223.5 383.88,-217.5 383.88,-217.5 383.88,-205.5 383.88,-205.5 383.88,-199.5 389.88,-193.5 395.88,-193.5 395.88,-193.5 504.12,-193.5 504.12,-193.5 510.12,-193.5 516.12,-199.5 516.12,-205.5 516.12,-205.5 516.12,-217.5 516.12,-217.5 516.12,-223.5 510.12,-229.5 504.12,-229.5"/>
<text xml:space="preserve" text-anchor="middle" x="450" y="-214.55" font-family="Inter" font-size="11.00" fill="#1f2328">&lt;&lt;contract / trait&gt;&gt;</text>
<text xml:space="preserve" text-anchor="middle" x="450" y="-201.05" font-family="Inter" font-size="11.00" fill="#1f2328">WifiStatusContract</text>
</g>
<!-- interface_resolver&#45;&gt;status_contract -->
<g id="edge6" class="edge">
<title>interface_resolver&#45;&gt;status_contract</title>
<path fill="none" stroke="#59636e" d="M408.77,-386.59C416.48,-380.09 424.16,-372.06 429,-363 450.25,-323.23 452.49,-269.47 451.62,-238.14"/>
<polygon fill="#59636e" stroke="#59636e" points="454.08,-238.34 451.37,-231.44 449.19,-238.52 454.08,-238.34"/>
<text xml:space="preserve" text-anchor="middle" x="460.69" y="-305.12" font-family="Inter" font-size="10.00" fill="#59636e">uses</text>
</g>
<!-- output_resolver -->
<g id="node8" class="node">
<title>output_resolver</title>
<path fill="#f6f8fa" stroke="#2f3437" d="M319.62,-229.5C319.62,-229.5 64.38,-229.5 64.38,-229.5 58.38,-229.5 52.38,-223.5 52.38,-217.5 52.38,-217.5 52.38,-205.5 52.38,-205.5 52.38,-199.5 58.38,-193.5 64.38,-193.5 64.38,-193.5 319.62,-193.5 319.62,-193.5 325.62,-193.5 331.62,-199.5 331.62,-205.5 331.62,-205.5 331.62,-217.5 331.62,-217.5 331.62,-223.5 325.62,-229.5 319.62,-229.5"/>
<text xml:space="preserve" text-anchor="middle" x="192" y="-214.55" font-family="Inter" font-size="11.00" fill="#1f2328">&lt;&lt;resolver&gt;&gt;</text>
<text xml:space="preserve" text-anchor="middle" x="192" y="-201.05" font-family="Inter" font-size="11.00" fill="#1f2328">wifi_connection_status_output_resolver::resolve</text>
</g>
<!-- status_resolver&#45;&gt;output_resolver -->
<g id="edge16" class="edge">
<title>status_resolver&#45;&gt;output_resolver</title>
<path fill="none" stroke="#59636e" d="M206.16,-290.02C199.21,-283.43 192.45,-275.3 188.75,-266.25 185.16,-257.46 184.93,-247.19 185.96,-237.99"/>
<polygon fill="#59636e" stroke="#59636e" points="188.38,-238.37 187.03,-231.08 183.53,-237.62 188.38,-238.37"/>
<text xml:space="preserve" text-anchor="middle" x="276.88" y="-256.75" font-family="Inter" font-size="10.00" fill="#59636e">WifiConnectionStatusBorrowed&lt;&#39;a&gt;</text>
</g>
<!-- status_resolver&#45;&gt;status_contract -->
<g id="edge12" class="edge">
<title>status_resolver&#45;&gt;status_contract</title>
<path fill="none" stroke="#59636e" d="M303.91,-289.81C325.41,-283.61 348.56,-275.76 369,-266.25 387.31,-257.73 406.2,-245.43 421.13,-234.75"/>
<polygon fill="#59636e" stroke="#59636e" points="422.25,-236.96 426.47,-230.86 419.37,-233 422.25,-236.96"/>
<text xml:space="preserve" text-anchor="middle" x="403.72" y="-256.75" font-family="Inter" font-size="10.00" fill="#59636e">uses</text>
</g>
<!-- render_contract -->
<g id="node10" class="node">
<title>render_contract</title>
<path fill="#f6f8fa" stroke="#2f3437" d="M258.5,-132.75C258.5,-132.75 125.5,-132.75 125.5,-132.75 119.5,-132.75 113.5,-126.75 113.5,-120.75 113.5,-120.75 113.5,-108.75 113.5,-108.75 113.5,-102.75 119.5,-96.75 125.5,-96.75 125.5,-96.75 258.5,-96.75 258.5,-96.75 264.5,-96.75 270.5,-102.75 270.5,-108.75 270.5,-108.75 270.5,-120.75 270.5,-120.75 270.5,-126.75 264.5,-132.75 258.5,-132.75"/>
<text xml:space="preserve" text-anchor="middle" x="192" y="-117.8" font-family="Inter" font-size="11.00" fill="#1f2328">&lt;&lt;contract / trait&gt;&gt;</text>
<text xml:space="preserve" text-anchor="middle" x="192" y="-104.3" font-family="Inter" font-size="11.00" fill="#1f2328">WifiStatusOutputContract</text>
</g>
<!-- output_resolver&#45;&gt;render_contract -->
<g id="edge17" class="edge">
<title>output_resolver&#45;&gt;render_contract</title>
<path fill="none" stroke="#59636e" d="M192,-193.12C192,-178.56 192,-157.58 192,-141.14"/>
<polygon fill="#59636e" stroke="#59636e" points="194.45,-141.53 192,-134.53 189.55,-141.53 194.45,-141.53"/>
<text xml:space="preserve" text-anchor="middle" x="203.25" y="-160" font-family="Inter" font-size="10.00" fill="#59636e">uses</text>
</g>
<!-- status_contract&#45;&gt;system_provider -->
<g id="edge7" class="edge">
<title>status_contract&#45;&gt;system_provider</title>
<path fill="none" stroke="#59636e" d="M462.98,-229.82C467.86,-236.89 473.15,-245.33 477,-253.5 513.32,-330.59 537.56,-429.26 547.66,-475.15"/>
<polygon fill="#59636e" stroke="#59636e" points="545.24,-475.54 549.12,-481.86 550.03,-474.5 545.24,-475.54"/>
<text xml:space="preserve" text-anchor="middle" x="558.34" y="-353.5" font-family="Inter" font-size="10.00" fill="#59636e">implemented by</text>
</g>
<!-- render_contract&#45;&gt;presentation_provider -->
<g id="edge18" class="edge">
<title>render_contract&#45;&gt;presentation_provider</title>
<path fill="none" stroke="#59636e" d="M192,-96.37C192,-81.81 192,-60.83 192,-44.39"/>
<polygon fill="#59636e" stroke="#59636e" points="194.45,-44.78 192,-37.78 189.55,-44.78 194.45,-44.78"/>
<text xml:space="preserve" text-anchor="middle" x="232.12" y="-63.25" font-family="Inter" font-size="10.00" fill="#59636e">implemented by</text>
</g>
<!-- external_wifi&#45;&gt;system_provider -->
<g id="edge9" class="edge">
<title>external_wifi&#45;&gt;system_provider</title>
<path fill="none" stroke="#59636e" stroke-dasharray="5,2" d="M856.89,-411.64C906.97,-417.13 966.15,-427.59 982,-447 985.58,-451.39 985.81,-455.56 982,-459.75 957.76,-486.42 726.99,-496.17 614.31,-499.36"/>
<polygon fill="#59636e" stroke="#59636e" points="614.52,-496.9 607.59,-499.55 614.65,-501.8 614.52,-496.9"/>
<text xml:space="preserve" text-anchor="middle" x="1034.27" y="-450.25" font-family="Inter" font-size="10.00" fill="#59636e">raw interface output</text>
</g>
<!-- external_wifi&#45;&gt;system_provider -->
<g id="edge14" class="edge">
<title>external_wifi&#45;&gt;system_provider</title>
<path fill="none" stroke="#59636e" stroke-dasharray="5,2" d="M705.25,-413.25C654.44,-419.53 593.32,-430.28 573.5,-447 565.09,-454.09 560.12,-465.03 557.19,-475.2"/>
<polygon fill="#59636e" stroke="#59636e" points="554.82,-474.6 555.54,-481.98 559.58,-475.76 554.82,-474.6"/>
<text xml:space="preserve" text-anchor="middle" x="616.25" y="-450.25" font-family="Inter" font-size="10.00" fill="#59636e">raw status output</text>
</g>
</g>
</svg>
