<?xml version="1.0" encoding="UTF-8" standalone="no"?>
<!DOCTYPE svg PUBLIC "-//W3C//DTD SVG 1.1//EN"
 "http://www.w3.org/Graphics/SVG/1.1/DTD/svg11.dtd">
<!-- Generated by graphviz version 14.1.5 (0)
 -->
<!-- Title: WifiScanBorrowedDataModel Pages: 1 -->
<svg width="945pt" height="1361pt"
 viewBox="0.00 0.00 945.00 1361.00" xmlns="http://www.w3.org/2000/svg" xmlns:xlink="http://www.w3.org/1999/xlink">
<g id="graph0" class="graph" transform="scale(1 1) rotate(0) translate(28.8 1332.55)">
<title>WifiScanBorrowedDataModel</title>
<text xml:space="preserve" text-anchor="middle" x="443.75" y="-1284.55" font-family="Inter" font-size="16.00">WiFi Borrowed Data Model</text>
<!-- network_view -->
<g id="node1" class="node">
<title>network_view</title>
<path fill="#f6f8fa" stroke="none" d="M826.75,-212.25C826.75,-212.25 685,-212.25 685,-212.25 679,-212.25 673,-206.25 673,-200.25 673,-200.25 673,-12 673,-12 673,-6 679,0 685,0 685,0 826.75,0 826.75,0 832.75,0 838.75,-6 838.75,-12 838.75,-12 838.75,-200.25 838.75,-200.25 838.75,-206.25 832.75,-212.25 826.75,-212.25"/>
<text xml:space="preserve" text-anchor="start" x="703.38" y="-193.5" font-family="Inter" font-size="10.00" fill="#1f2328">&lt;&lt;borrowed view&gt;&gt;</text>
<text xml:space="preserve" text-anchor="start" x="682" y="-164.1" font-family="Inter" font-weight="bold" font-size="12.00" fill="#1f2328">WifiNetworkView&lt;&#39;a&gt;</text>
<text xml:space="preserve" text-anchor="start" x="682" y="-133" font-family="Inter" font-size="12.00" fill="#1f2328">bssid: &amp;&#39;a str</text>
<text xml:space="preserve" text-anchor="start" x="682" y="-102.75" font-family="Inter" font-size="12.00" fill="#1f2328">frequency: &amp;&#39;a str</text>
<text xml:space="preserve" text-anchor="start" x="682" y="-72.5" font-family="Inter" font-size="12.00" fill="#1f2328">signal_dbm: &amp;&#39;a str</text>
<text xml:space="preserve" text-anchor="start" x="682" y="-42.25" font-family="Inter" font-size="12.00" fill="#1f2328">flags: &amp;&#39;a str</text>
<text xml:space="preserve" text-anchor="start" x="682" y="-12" font-family="Inter" font-size="12.00" fill="#1f2328">ssid: &amp;&#39;a str</text>
<polygon fill="none" stroke="#2f3437" points="673,0 673,-212.25 838.75,-212.25 838.75,0 673,0"/>
</g>
<!-- selection_input_view -->
<g id="node2" class="node">
<title>selection_input_view</title>
<path fill="#f6f8fa" stroke="none" d="M875.5,-353.75C875.5,-353.75 636.25,-353.75 636.25,-353.75 630.25,-353.75 624.25,-347.75 624.25,-341.75 624.25,-341.75 624.25,-274.5 624.25,-274.5 624.25,-268.5 630.25,-262.5 636.25,-262.5 636.25,-262.5 875.5,-262.5 875.5,-262.5 881.5,-262.5 887.5,-268.5 887.5,-274.5 887.5,-274.5 887.5,-341.75 887.5,-341.75 887.5,-347.75 881.5,-353.75 875.5,-353.75"/>
<text xml:space="preserve" text-anchor="start" x="689.5" y="-335" font-family="Inter" font-size="10.00" fill="#1f2328">&lt;&lt;borrowed input view&gt;&gt;</text>
<text xml:space="preserve" text-anchor="start" x="633.25" y="-305.6" font-family="Inter" font-weight="bold" font-size="12.00" fill="#1f2328">WifiNetworkSelectionInputView&lt;&#39;a&gt;</text>
<text xml:space="preserve" text-anchor="start" x="633.25" y="-274.5" font-family="Inter" font-size="12.00" fill="#1f2328">raw: &amp;&#39;a str</text>
<polygon fill="none" stroke="#2f3437" points="624.25,-262.5 624.25,-353.75 887.5,-353.75 887.5,-262.5 624.25,-262.5"/>
</g>
<!-- action_selection_input_view -->
<g id="node3" class="node">
<title>action_selection_input_view</title>
<path fill="#f6f8fa" stroke="none" d="M867.62,-516.75C867.62,-516.75 644.12,-516.75 644.12,-516.75 638.12,-516.75 632.12,-510.75 632.12,-504.75 632.12,-504.75 632.12,-437.5 632.12,-437.5 632.12,-431.5 638.12,-425.5 644.12,-425.5 644.12,-425.5 867.62,-425.5 867.62,-425.5 873.62,-425.5 879.62,-431.5 879.62,-437.5 879.62,-437.5 879.62,-504.75 879.62,-504.75 879.62,-510.75 873.62,-516.75 867.62,-516.75"/>
<text xml:space="preserve" text-anchor="start" x="673" y="-498" font-family="Inter" font-size="10.00" fill="#1f2328">&lt;&lt;borrowed action input view&gt;&gt;</text>
<text xml:space="preserve" text-anchor="start" x="641.12" y="-468.6" font-family="Inter" font-weight="bold" font-size="12.00" fill="#1f2328">WifiActionSelectionInputView&lt;&#39;a&gt;</text>
<text xml:space="preserve" text-anchor="start" x="641.12" y="-437.5" font-family="Inter" font-size="12.00" fill="#1f2328">raw: &amp;&#39;a str</text>
<polygon fill="none" stroke="#2f3437" points="632.12,-425.5 632.12,-516.75 879.62,-516.75 879.62,-425.5 632.12,-425.5"/>
</g>
<!-- status_view -->
<g id="node4" class="node">
<title>status_view</title>
<path fill="#f6f8fa" stroke="none" d="M857.88,-694.88C857.88,-694.88 653.88,-694.88 653.88,-694.88 647.88,-694.88 641.88,-688.88 641.88,-682.88 641.88,-682.88 641.88,-585.38 641.88,-585.38 641.88,-579.38 647.88,-573.38 653.88,-573.38 653.88,-573.38 857.88,-573.38 857.88,-573.38 863.88,-573.38 869.88,-579.38 869.88,-585.38 869.88,-585.38 869.88,-682.88 869.88,-682.88 869.88,-688.88 863.88,-694.88 857.88,-694.88"/>
<text xml:space="preserve" text-anchor="start" x="686.88" y="-676.12" font-family="Inter" font-size="10.00" fill="#1f2328">&lt;&lt;borrowed status view&gt;&gt;</text>
<text xml:space="preserve" text-anchor="start" x="650.88" y="-646.73" font-family="Inter" font-weight="bold" font-size="12.00" fill="#1f2328">WifiConnectionStatusView&lt;&#39;a&gt;</text>
<text xml:space="preserve" text-anchor="start" x="650.88" y="-615.62" font-family="Inter" font-size="12.00" fill="#1f2328">ssid: &amp;&#39;a str</text>
<text xml:space="preserve" text-anchor="start" x="650.88" y="-585.38" font-family="Inter" font-size="12.00" fill="#1f2328">status: &amp;&#39;a str</text>
<polygon fill="none" stroke="#2f3437" points="641.88,-573.38 641.88,-694.88 869.88,-694.88 869.88,-573.38 641.88,-573.38"/>
</g>
<!-- password_input_view -->
<g id="node5" class="node">
<title>password_input_view</title>
<path fill="#f6f8fa" stroke="none" d="M848.12,-835.75C848.12,-835.75 663.62,-835.75 663.62,-835.75 657.62,-835.75 651.62,-829.75 651.62,-823.75 651.62,-823.75 651.62,-756.5 651.62,-756.5 651.62,-750.5 657.62,-744.5 663.62,-744.5 663.62,-744.5 848.12,-744.5 848.12,-744.5 854.12,-744.5 860.12,-750.5 860.12,-756.5 860.12,-756.5 860.12,-823.75 860.12,-823.75 860.12,-829.75 854.12,-835.75 848.12,-835.75"/>
<text xml:space="preserve" text-anchor="start" x="673" y="-817" font-family="Inter" font-size="10.00" fill="#1f2328">&lt;&lt;borrowed secret input view&gt;&gt;</text>
<text xml:space="preserve" text-anchor="start" x="660.62" y="-787.6" font-family="Inter" font-weight="bold" font-size="12.00" fill="#1f2328">WifiPasswordInputView&lt;&#39;a&gt;</text>
<text xml:space="preserve" text-anchor="start" x="660.62" y="-756.5" font-family="Inter" font-size="12.00" fill="#1f2328">raw: &amp;&#39;a str</text>
<polygon fill="none" stroke="#2f3437" points="651.62,-744.5 651.62,-835.75 860.12,-835.75 860.12,-744.5 651.62,-744.5"/>
</g>
<!-- saved_network_view -->
<g id="node6" class="node">
<title>saved_network_view</title>
<path fill="#f6f8fa" stroke="none" d="M847.38,-1013.88C847.38,-1013.88 664.38,-1013.88 664.38,-1013.88 658.38,-1013.88 652.38,-1007.88 652.38,-1001.88 652.38,-1001.88 652.38,-904.38 652.38,-904.38 652.38,-898.38 658.38,-892.38 664.38,-892.38 664.38,-892.38 847.38,-892.38 847.38,-892.38 853.38,-892.38 859.38,-898.38 859.38,-904.38 859.38,-904.38 859.38,-1001.88 859.38,-1001.88 859.38,-1007.88 853.38,-1013.88 847.38,-1013.88"/>
<text xml:space="preserve" text-anchor="start" x="665.88" y="-995.12" font-family="Inter" font-size="10.00" fill="#1f2328">&lt;&lt;borrowed saved network view&gt;&gt;</text>
<text xml:space="preserve" text-anchor="start" x="661.38" y="-965.73" font-family="Inter" font-weight="bold" font-size="12.00" fill="#1f2328">WifiSavedNetworkView&lt;&#39;a&gt;</text>
<text xml:space="preserve" text-anchor="start" x="661.38" y="-934.62" font-family="Inter" font-size="12.00" fill="#1f2328">ssid: &amp;&#39;a str</text>
<text xml:space="preserve" text-anchor="start" x="661.38" y="-904.38" font-family="Inter" font-size="12.00" fill="#1f2328">network_id: &amp;&#39;a str</text>
<polygon fill="none" stroke="#2f3437" points="652.38,-892.38 652.38,-1013.88 859.38,-1013.88 859.38,-892.38 652.38,-892.38"/>
</g>
<!-- saved_secret_view -->
<g id="node7" class="node">
<title>saved_secret_view</title>
<path fill="#f6f8fa" stroke="none" d="M840.62,-1276.25C840.62,-1276.25 671.12,-1276.25 671.12,-1276.25 665.12,-1276.25 659.12,-1270.25 659.12,-1264.25 659.12,-1264.25 659.12,-1076 659.12,-1076 659.12,-1070 665.12,-1064 671.12,-1064 671.12,-1064 840.62,-1064 840.62,-1064 846.62,-1064 852.62,-1070 852.62,-1076 852.62,-1076 852.62,-1264.25 852.62,-1264.25 852.62,-1270.25 846.62,-1276.25 840.62,-1276.25"/>
<text xml:space="preserve" text-anchor="start" x="670.75" y="-1257.5" font-family="Inter" font-size="10.00" fill="#1f2328">&lt;&lt;borrowed saved secret view&gt;&gt;</text>
<text xml:space="preserve" text-anchor="start" x="668.12" y="-1228.1" font-family="Inter" font-weight="bold" font-size="12.00" fill="#1f2328">WifiSavedSecretView&lt;&#39;a&gt;</text>
<text xml:space="preserve" text-anchor="start" x="668.12" y="-1197" font-family="Inter" font-size="12.00" fill="#1f2328">ssid: &amp;&#39;a str</text>
<text xml:space="preserve" text-anchor="start" x="668.12" y="-1166.75" font-family="Inter" font-size="12.00" fill="#1f2328">network_id: &amp;&#39;a str</text>
<text xml:space="preserve" text-anchor="start" x="668.12" y="-1136.5" font-family="Inter" font-size="12.00" fill="#1f2328">secret: &amp;&#39;a str</text>
<text xml:space="preserve" text-anchor="start" x="668.12" y="-1106.25" font-family="Inter" font-size="12.00" fill="#1f2328">secret_kind: &amp;&#39;a str</text>
<text xml:space="preserve" text-anchor="start" x="668.12" y="-1076" font-family="Inter" font-size="12.00" fill="#1f2328">source: &amp;&#39;a str</text>
<polygon fill="none" stroke="#2f3437" points="659.12,-1064 659.12,-1276.25 852.62,-1276.25 852.62,-1064 659.12,-1064"/>
</g>
<!-- source_note -->
<g id="node8" class="node">
<title>source_note</title>
<polygon fill="#fff8c5" stroke="#2f3437" points="385,-149.5 44.25,-149.5 44.25,-62.75 391,-62.75 391,-143.5 385,-149.5"/>
<polyline fill="none" stroke="#2f3437" points="385,-149.5 385,-143.5"/>
<polyline fill="none" stroke="#2f3437" points="391,-143.5 385,-143.5"/>
<text xml:space="preserve" text-anchor="start" x="164.75" y="-129.1" font-family="Inter" font-weight="bold" font-size="12.00" fill="#1f2328">External source</text>
<text xml:space="preserve" text-anchor="start" x="58.25" y="-102" font-family="Inter" font-size="12.00" fill="#1f2328">wpa_cli scan_results output</text>
<text xml:space="preserve" text-anchor="start" x="58.25" y="-75.75" font-family="Inter" font-size="12.00" fill="#1f2328">Fields borrow from raw scan output during resolution.</text>
</g>
<!-- source_note&#45;&gt;network_view -->
<g id="edge1" class="edge">
<title>source_note&#45;&gt;network_view</title>
<path fill="none" stroke="#59636e" stroke-dasharray="5,2" d="M391.25,-106.12C482.35,-106.12 590.36,-106.12 664.87,-106.12"/>
<polygon fill="#59636e" stroke="#59636e" points="664.82,-108.58 671.82,-106.13 664.82,-103.68 664.82,-108.58"/>
<text xml:space="preserve" text-anchor="middle" x="529.75" y="-109.17" font-family="Inter" font-size="11.00" fill="#59636e">borrowed fields</text>
</g>
<!-- input_note -->
<g id="node9" class="node">
<title>input_note</title>
<polygon fill="#fff8c5" stroke="#2f3437" points="398.12,-351.5 31.12,-351.5 31.12,-264.75 404.12,-264.75 404.12,-345.5 398.12,-351.5"/>
<polyline fill="none" stroke="#2f3437" points="398.12,-351.5 398.12,-345.5"/>
<polyline fill="none" stroke="#2f3437" points="404.12,-345.5 398.12,-345.5"/>
<text xml:space="preserve" text-anchor="start" x="145.25" y="-331.1" font-family="Inter" font-weight="bold" font-size="12.00" fill="#1f2328">External input source</text>
<text xml:space="preserve" text-anchor="start" x="45.12" y="-304" font-family="Inter" font-size="12.00" fill="#1f2328">terminal, TUI, web, desktop, stdin, keypress</text>
<text xml:space="preserve" text-anchor="start" x="45.12" y="-277.75" font-family="Inter" font-size="12.00" fill="#1f2328">Selection input borrows from captured presentation input.</text>
</g>
<!-- input_note&#45;&gt;selection_input_view -->
<g id="edge2" class="edge">
<title>input_note&#45;&gt;selection_input_view</title>
<path fill="none" stroke="#59636e" stroke-dasharray="5,2" d="M404.3,-308.12C473.8,-308.12 551.5,-308.12 616.05,-308.12"/>
<polygon fill="#59636e" stroke="#59636e" points="615.74,-310.58 622.74,-308.13 615.74,-305.68 615.74,-310.58"/>
<text xml:space="preserve" text-anchor="middle" x="529.75" y="-311.18" font-family="Inter" font-size="11.00" fill="#59636e">borrowed input</text>
</g>
<!-- action_input_note -->
<g id="node10" class="node">
<title>action_input_note</title>
<polygon fill="#fff8c5" stroke="#2f3437" points="429.25,-540.75 0,-540.75 0,-401.5 435.25,-401.5 435.25,-534.75 429.25,-540.75"/>
<polyline fill="none" stroke="#2f3437" points="429.25,-540.75 429.25,-534.75"/>
<polyline fill="none" stroke="#2f3437" points="435.25,-534.75 429.25,-534.75"/>
<text xml:space="preserve" text-anchor="start" x="122.38" y="-520.35" font-family="Inter" font-weight="bold" font-size="12.00" fill="#1f2328">External action input source</text>
<text xml:space="preserve" text-anchor="start" x="14" y="-493.25" font-family="Inter" font-size="12.00" fill="#1f2328">terminal menu, TUI item, web button, desktop action, CLI command</text>
<text xml:space="preserve" text-anchor="start" x="14" y="-467" font-family="Inter" font-size="12.00" fill="#1f2328">Presentation owns the captured input.</text>
<text xml:space="preserve" text-anchor="start" x="14" y="-440.75" font-family="Inter" font-size="12.00" fill="#1f2328">Domain defines the minimal borrowed input shape it accepts.</text>
<text xml:space="preserve" text-anchor="start" x="14" y="-414.5" font-family="Inter" font-size="12.00" fill="#1f2328">Presentation implementations adapt their source event to raw: &amp;str.</text>
</g>
<!-- action_input_note&#45;&gt;action_selection_input_view -->
<g id="edge3" class="edge">
<title>action_input_note&#45;&gt;action_selection_input_view</title>
<path fill="none" stroke="#59636e" stroke-dasharray="5,2" d="M435.58,-471.12C499.4,-471.12 567.24,-471.12 623.9,-471.12"/>
<polygon fill="#59636e" stroke="#59636e" points="623.66,-473.58 630.66,-471.13 623.66,-468.68 623.66,-473.58"/>
<text xml:space="preserve" text-anchor="middle" x="529.75" y="-474.18" font-family="Inter" font-size="11.00" fill="#59636e">borrowed action input</text>
</g>
<!-- status_note -->
<g id="node11" class="node">
<title>status_note</title>
<polygon fill="#fff8c5" stroke="#2f3437" points="409,-677.5 20.25,-677.5 20.25,-590.75 415,-590.75 415,-671.5 409,-677.5"/>
<polyline fill="none" stroke="#2f3437" points="409,-677.5 409,-671.5"/>
<polyline fill="none" stroke="#2f3437" points="415,-671.5 409,-671.5"/>
<text xml:space="preserve" text-anchor="start" x="140.75" y="-657.1" font-family="Inter" font-weight="bold" font-size="12.00" fill="#1f2328">External status source</text>
<text xml:space="preserve" text-anchor="start" x="34.25" y="-630" font-family="Inter" font-size="12.00" fill="#1f2328">wpa_cli status output</text>
<text xml:space="preserve" text-anchor="start" x="34.25" y="-603.75" font-family="Inter" font-size="12.00" fill="#1f2328">Status fields borrow from raw status output during resolution.</text>
</g>
<!-- status_note&#45;&gt;status_view -->
<g id="edge4" class="edge">
<title>status_note&#45;&gt;status_view</title>
<path fill="none" stroke="#59636e" stroke-dasharray="5,2" d="M415.26,-634.12C488.5,-634.12 569.42,-634.12 633.89,-634.12"/>
<polygon fill="#59636e" stroke="#59636e" points="633.56,-636.58 640.56,-634.13 633.56,-631.68 633.56,-636.58"/>
<text xml:space="preserve" text-anchor="middle" x="529.75" y="-637.17" font-family="Inter" font-size="11.00" fill="#59636e">borrowed fields</text>
</g>
<!-- secret_input_note -->
<g id="node12" class="node">
<title>secret_input_note</title>
<polygon fill="#fff8c5" stroke="#2f3437" points="413.12,-846.62 16.12,-846.62 16.12,-733.62 419.12,-733.62 419.12,-840.62 413.12,-846.62"/>
<polyline fill="none" stroke="#2f3437" points="413.12,-846.62 413.12,-840.62"/>
<polyline fill="none" stroke="#2f3437" points="419.12,-840.62 413.12,-840.62"/>
<text xml:space="preserve" text-anchor="start" x="121.62" y="-826.23" font-family="Inter" font-weight="bold" font-size="12.00" fill="#1f2328">External secret input source</text>
<text xml:space="preserve" text-anchor="start" x="30.12" y="-799.12" font-family="Inter" font-size="12.00" fill="#1f2328">terminal secret prompt, TUI, web, desktop, stdin</text>
<text xml:space="preserve" text-anchor="start" x="30.12" y="-772.88" font-family="Inter" font-size="12.00" fill="#1f2328">Password input borrows from captured presentation input.</text>
<text xml:space="preserve" text-anchor="start" x="30.12" y="-746.62" font-family="Inter" font-size="12.00" fill="#1f2328">Secret input should not be logged or rendered back by default.</text>
</g>
<!-- secret_input_note&#45;&gt;password_input_view -->
<g id="edge5" class="edge">
<title>secret_input_note&#45;&gt;password_input_view</title>
<path fill="none" stroke="#59636e" stroke-dasharray="5,2" d="M419.45,-790.12C495.3,-790.12 578.83,-790.12 643.56,-790.12"/>
<polygon fill="#59636e" stroke="#59636e" points="643.25,-792.58 650.25,-790.13 643.25,-787.68 643.25,-792.58"/>
<text xml:space="preserve" text-anchor="middle" x="529.75" y="-793.17" font-family="Inter" font-size="11.00" fill="#59636e">borrowed secret input</text>
</g>
<!-- saved_network_note -->
<g id="node13" class="node">
<title>saved_network_note</title>
<polygon fill="#fff8c5" stroke="#2f3437" points="416.12,-1009.62 13.13,-1009.62 13.13,-896.62 422.12,-896.62 422.12,-1003.62 416.12,-1009.62"/>
<polyline fill="none" stroke="#2f3437" points="416.12,-1009.62 416.12,-1003.62"/>
<polyline fill="none" stroke="#2f3437" points="422.12,-1003.62 416.12,-1003.62"/>
<text xml:space="preserve" text-anchor="start" x="112.25" y="-989.23" font-family="Inter" font-weight="bold" font-size="12.00" fill="#1f2328">External saved network source</text>
<text xml:space="preserve" text-anchor="start" x="27.12" y="-962.12" font-family="Inter" font-size="12.00" fill="#1f2328">wpa_cli list_networks output</text>
<text xml:space="preserve" text-anchor="start" x="27.12" y="-935.88" font-family="Inter" font-size="12.00" fill="#1f2328">Saved network fields borrow from raw saved network output.</text>
<text xml:space="preserve" text-anchor="start" x="27.12" y="-909.62" font-family="Inter" font-size="12.00" fill="#1f2328">network_id is used to connect without reading the saved secret.</text>
</g>
<!-- saved_network_note&#45;&gt;saved_network_view -->
<g id="edge6" class="edge">
<title>saved_network_note&#45;&gt;saved_network_view</title>
<path fill="none" stroke="#59636e" stroke-dasharray="5,2" d="M422.51,-953.12C497.75,-953.12 580.17,-953.12 644.11,-953.12"/>
<polygon fill="#59636e" stroke="#59636e" points="644.1,-955.58 651.1,-953.13 644.1,-950.68 644.1,-955.58"/>
<text xml:space="preserve" text-anchor="middle" x="529.75" y="-956.17" font-family="Inter" font-size="11.00" fill="#59636e">borrowed fields</text>
</g>
<!-- saved_secret_note -->
<g id="node14" class="node">
<title>saved_secret_note</title>
<polygon fill="#fff8c5" stroke="#2f3437" points="428.5,-1239.75 0.75,-1239.75 0.75,-1100.5 434.5,-1100.5 434.5,-1233.75 428.5,-1239.75"/>
<polyline fill="none" stroke="#2f3437" points="428.5,-1239.75 428.5,-1233.75"/>
<polyline fill="none" stroke="#2f3437" points="434.5,-1233.75 428.5,-1233.75"/>
<text xml:space="preserve" text-anchor="start" x="119" y="-1219.35" font-family="Inter" font-weight="bold" font-size="12.00" fill="#1f2328">External saved secret source</text>
<text xml:space="preserve" text-anchor="start" x="14.75" y="-1192.25" font-family="Inter" font-size="12.00" fill="#1f2328">wpa_cli get_network &lt;network_id&gt; psk</text>
<text xml:space="preserve" text-anchor="start" x="14.75" y="-1166" font-family="Inter" font-size="12.00" fill="#1f2328">wpa_supplicant config file when wpa_cli hides the secret</text>
<text xml:space="preserve" text-anchor="start" x="14.75" y="-1139.75" font-family="Inter" font-size="12.00" fill="#1f2328">secret_kind may be password, psk_hex, hidden, or unknown.</text>
<text xml:space="preserve" text-anchor="start" x="14.75" y="-1113.5" font-family="Inter" font-size="12.00" fill="#1f2328">Secret should not be logged or rendered unless explicitly requested.</text>
</g>
<!-- saved_secret_note&#45;&gt;saved_secret_view -->
<g id="edge7" class="edge">
<title>saved_secret_note&#45;&gt;saved_secret_view</title>
<path fill="none" stroke="#59636e" stroke-dasharray="5,2" d="M434.81,-1170.12C509.41,-1170.12 589.59,-1170.12 651.03,-1170.12"/>
<polygon fill="#59636e" stroke="#59636e" points="650.68,-1172.58 657.68,-1170.13 650.68,-1167.68 650.68,-1172.58"/>
<text xml:space="preserve" text-anchor="middle" x="529.75" y="-1173.17" font-family="Inter" font-size="11.00" fill="#59636e">borrowed secret fields</text>
</g>
</g>
</svg>
