<?xml version="1.0" encoding="UTF-8" standalone="no"?>
<!DOCTYPE svg PUBLIC "-//W3C//DTD SVG 1.1//EN"
 "http://www.w3.org/Graphics/SVG/1.1/DTD/svg11.dtd">
<!-- Generated by graphviz version 14.1.5 (0)
 -->
<!-- Title: WifiScanBorrowedDataModel Pages: 1 -->
<svg width="998pt" height="1502pt"
 viewBox="0.00 0.00 998.00 1502.00" xmlns="http://www.w3.org/2000/svg" xmlns:xlink="http://www.w3.org/1999/xlink">
<g id="graph0" class="graph" transform="scale(1 1) rotate(0) translate(28.8 1473.55)">
<title>WifiScanBorrowedDataModel</title>
<text xml:space="preserve" text-anchor="middle" x="470" y="-1425.55" font-family="Inter" font-size="16.00">WiFi Borrowed Data Model</text>
<!-- network_view -->
<g id="node1" class="node">
<title>network_view</title>
<path fill="#f6f8fa" stroke="none" d="M879.25,-212.25C879.25,-212.25 704.5,-212.25 704.5,-212.25 698.5,-212.25 692.5,-206.25 692.5,-200.25 692.5,-200.25 692.5,-12 692.5,-12 692.5,-6 698.5,0 704.5,0 704.5,0 879.25,0 879.25,0 885.25,0 891.25,-6 891.25,-12 891.25,-12 891.25,-200.25 891.25,-200.25 891.25,-206.25 885.25,-212.25 879.25,-212.25"/>
<text xml:space="preserve" text-anchor="start" x="752.5" y="-193.5" font-family="Inter" font-size="10.00" fill="#1f2328">&lt;&lt;borrowed&gt;&gt;</text>
<text xml:space="preserve" text-anchor="start" x="701.5" y="-164.1" font-family="Inter" font-weight="bold" font-size="12.00" fill="#1f2328">WifiNetworkBorrowed&lt;&#39;a&gt;</text>
<text xml:space="preserve" text-anchor="start" x="701.5" y="-133" font-family="Inter" font-size="12.00" fill="#1f2328">bssid: &amp;&#39;a str</text>
<text xml:space="preserve" text-anchor="start" x="701.5" y="-102.75" font-family="Inter" font-size="12.00" fill="#1f2328">frequency: &amp;&#39;a str</text>
<text xml:space="preserve" text-anchor="start" x="701.5" y="-72.5" font-family="Inter" font-size="12.00" fill="#1f2328">signal_dbm: &amp;&#39;a str</text>
<text xml:space="preserve" text-anchor="start" x="701.5" y="-42.25" font-family="Inter" font-size="12.00" fill="#1f2328">flags: &amp;&#39;a str</text>
<text xml:space="preserve" text-anchor="start" x="701.5" y="-12" font-family="Inter" font-size="12.00" fill="#1f2328">ssid: &amp;&#39;a str</text>
<polygon fill="none" stroke="#2f3437" points="692.5,0 692.5,-212.25 891.25,-212.25 891.25,0 692.5,0"/>
</g>
<!-- interface_view -->
<g id="node2" class="node">
<title>interface_view</title>
<path fill="#f6f8fa" stroke="none" d="M881.12,-353.75C881.12,-353.75 702.62,-353.75 702.62,-353.75 696.62,-353.75 690.62,-347.75 690.62,-341.75 690.62,-341.75 690.62,-274.5 690.62,-274.5 690.62,-268.5 696.62,-262.5 702.62,-262.5 702.62,-262.5 881.12,-262.5 881.12,-262.5 887.12,-262.5 893.12,-268.5 893.12,-274.5 893.12,-274.5 893.12,-341.75 893.12,-341.75 893.12,-347.75 887.12,-353.75 881.12,-353.75"/>
<text xml:space="preserve" text-anchor="start" x="729.25" y="-335" font-family="Inter" font-size="10.00" fill="#1f2328">&lt;&lt;borrowed interface&gt;&gt;</text>
<text xml:space="preserve" text-anchor="start" x="699.62" y="-305.6" font-family="Inter" font-weight="bold" font-size="12.00" fill="#1f2328">WifiInterfaceBorrowed&lt;&#39;a&gt;</text>
<text xml:space="preserve" text-anchor="start" x="699.62" y="-274.5" font-family="Inter" font-size="12.00" fill="#1f2328">name: &amp;&#39;a str</text>
<polygon fill="none" stroke="#2f3437" points="690.62,-262.5 690.62,-353.75 893.12,-353.75 893.12,-262.5 690.62,-262.5"/>
</g>
<!-- selection_input_view -->
<g id="node3" class="node">
<title>selection_input_view</title>
<path fill="#f6f8fa" stroke="none" d="M928,-494.75C928,-494.75 655.75,-494.75 655.75,-494.75 649.75,-494.75 643.75,-488.75 643.75,-482.75 643.75,-482.75 643.75,-415.5 643.75,-415.5 643.75,-409.5 649.75,-403.5 655.75,-403.5 655.75,-403.5 928,-403.5 928,-403.5 934,-403.5 940,-409.5 940,-415.5 940,-415.5 940,-482.75 940,-482.75 940,-488.75 934,-494.75 928,-494.75"/>
<text xml:space="preserve" text-anchor="start" x="738.62" y="-476" font-family="Inter" font-size="10.00" fill="#1f2328">&lt;&lt;borrowed input&gt;&gt;</text>
<text xml:space="preserve" text-anchor="start" x="652.75" y="-446.6" font-family="Inter" font-weight="bold" font-size="12.00" fill="#1f2328">WifiNetworkSelectionInputBorrowed&lt;&#39;a&gt;</text>
<text xml:space="preserve" text-anchor="start" x="652.75" y="-415.5" font-family="Inter" font-size="12.00" fill="#1f2328">raw: &amp;&#39;a str</text>
<polygon fill="none" stroke="#2f3437" points="643.75,-403.5 643.75,-494.75 940,-494.75 940,-403.5 643.75,-403.5"/>
</g>
<!-- action_selection_input_view -->
<g id="node4" class="node">
<title>action_selection_input_view</title>
<path fill="#f6f8fa" stroke="none" d="M920.12,-657.75C920.12,-657.75 663.62,-657.75 663.62,-657.75 657.62,-657.75 651.62,-651.75 651.62,-645.75 651.62,-645.75 651.62,-578.5 651.62,-578.5 651.62,-572.5 657.62,-566.5 663.62,-566.5 663.62,-566.5 920.12,-566.5 920.12,-566.5 926.12,-566.5 932.12,-572.5 932.12,-578.5 932.12,-578.5 932.12,-645.75 932.12,-645.75 932.12,-651.75 926.12,-657.75 920.12,-657.75"/>
<text xml:space="preserve" text-anchor="start" x="722.12" y="-639" font-family="Inter" font-size="10.00" fill="#1f2328">&lt;&lt;borrowed action input&gt;&gt;</text>
<text xml:space="preserve" text-anchor="start" x="660.62" y="-609.6" font-family="Inter" font-weight="bold" font-size="12.00" fill="#1f2328">WifiActionSelectionInputBorrowed&lt;&#39;a&gt;</text>
<text xml:space="preserve" text-anchor="start" x="660.62" y="-578.5" font-family="Inter" font-size="12.00" fill="#1f2328">raw: &amp;&#39;a str</text>
<polygon fill="none" stroke="#2f3437" points="651.62,-566.5 651.62,-657.75 932.12,-657.75 932.12,-566.5 651.62,-566.5"/>
</g>
<!-- status_view -->
<g id="node5" class="node">
<title>status_view</title>
<path fill="#f6f8fa" stroke="none" d="M910.38,-835.88C910.38,-835.88 673.38,-835.88 673.38,-835.88 667.38,-835.88 661.38,-829.88 661.38,-823.88 661.38,-823.88 661.38,-726.38 661.38,-726.38 661.38,-720.38 667.38,-714.38 673.38,-714.38 673.38,-714.38 910.38,-714.38 910.38,-714.38 916.38,-714.38 922.38,-720.38 922.38,-726.38 922.38,-726.38 922.38,-823.88 922.38,-823.88 922.38,-829.88 916.38,-835.88 910.38,-835.88"/>
<text xml:space="preserve" text-anchor="start" x="736" y="-817.12" font-family="Inter" font-size="10.00" fill="#1f2328">&lt;&lt;borrowed status&gt;&gt;</text>
<text xml:space="preserve" text-anchor="start" x="670.38" y="-787.73" font-family="Inter" font-weight="bold" font-size="12.00" fill="#1f2328">WifiConnectionStatusBorrowed&lt;&#39;a&gt;</text>
<text xml:space="preserve" text-anchor="start" x="670.38" y="-756.62" font-family="Inter" font-size="12.00" fill="#1f2328">ssid: &amp;&#39;a str</text>
<text xml:space="preserve" text-anchor="start" x="670.38" y="-726.38" font-family="Inter" font-size="12.00" fill="#1f2328">status: &amp;&#39;a str</text>
<polygon fill="none" stroke="#2f3437" points="661.38,-714.38 661.38,-835.88 922.38,-835.88 922.38,-714.38 661.38,-714.38"/>
</g>
<!-- password_input_view -->
<g id="node6" class="node">
<title>password_input_view</title>
<path fill="#f6f8fa" stroke="none" d="M900.62,-976.75C900.62,-976.75 683.12,-976.75 683.12,-976.75 677.12,-976.75 671.12,-970.75 671.12,-964.75 671.12,-964.75 671.12,-897.5 671.12,-897.5 671.12,-891.5 677.12,-885.5 683.12,-885.5 683.12,-885.5 900.62,-885.5 900.62,-885.5 906.62,-885.5 912.62,-891.5 912.62,-897.5 912.62,-897.5 912.62,-964.75 912.62,-964.75 912.62,-970.75 906.62,-976.75 900.62,-976.75"/>
<text xml:space="preserve" text-anchor="start" x="722.12" y="-958" font-family="Inter" font-size="10.00" fill="#1f2328">&lt;&lt;borrowed secret input&gt;&gt;</text>
<text xml:space="preserve" text-anchor="start" x="680.12" y="-928.6" font-family="Inter" font-weight="bold" font-size="12.00" fill="#1f2328">WifiPasswordInputBorrowed&lt;&#39;a&gt;</text>
<text xml:space="preserve" text-anchor="start" x="680.12" y="-897.5" font-family="Inter" font-size="12.00" fill="#1f2328">raw: &amp;&#39;a str</text>
<polygon fill="none" stroke="#2f3437" points="671.12,-885.5 671.12,-976.75 912.62,-976.75 912.62,-885.5 671.12,-885.5"/>
</g>
<!-- saved_network_view -->
<g id="node7" class="node">
<title>saved_network_view</title>
<path fill="#f6f8fa" stroke="none" d="M899.88,-1154.88C899.88,-1154.88 683.88,-1154.88 683.88,-1154.88 677.88,-1154.88 671.88,-1148.88 671.88,-1142.88 671.88,-1142.88 671.88,-1045.38 671.88,-1045.38 671.88,-1039.38 677.88,-1033.38 683.88,-1033.38 683.88,-1033.38 899.88,-1033.38 899.88,-1033.38 905.88,-1033.38 911.88,-1039.38 911.88,-1045.38 911.88,-1045.38 911.88,-1142.88 911.88,-1142.88 911.88,-1148.88 905.88,-1154.88 899.88,-1154.88"/>
<text xml:space="preserve" text-anchor="start" x="715" y="-1136.12" font-family="Inter" font-size="10.00" fill="#1f2328">&lt;&lt;borrowed saved network&gt;&gt;</text>
<text xml:space="preserve" text-anchor="start" x="680.88" y="-1106.72" font-family="Inter" font-weight="bold" font-size="12.00" fill="#1f2328">WifiSavedNetworkBorrowed&lt;&#39;a&gt;</text>
<text xml:space="preserve" text-anchor="start" x="680.88" y="-1075.62" font-family="Inter" font-size="12.00" fill="#1f2328">ssid: &amp;&#39;a str</text>
<text xml:space="preserve" text-anchor="start" x="680.88" y="-1045.38" font-family="Inter" font-size="12.00" fill="#1f2328">network_id: &amp;&#39;a str</text>
<polygon fill="none" stroke="#2f3437" points="671.88,-1033.38 671.88,-1154.88 911.88,-1154.88 911.88,-1033.38 671.88,-1033.38"/>
</g>
<!-- saved_secret_view -->
<g id="node8" class="node">
<title>saved_secret_view</title>
<path fill="#f6f8fa" stroke="none" d="M893.12,-1417.25C893.12,-1417.25 690.62,-1417.25 690.62,-1417.25 684.62,-1417.25 678.62,-1411.25 678.62,-1405.25 678.62,-1405.25 678.62,-1217 678.62,-1217 678.62,-1211 684.62,-1205 690.62,-1205 690.62,-1205 893.12,-1205 893.12,-1205 899.12,-1205 905.12,-1211 905.12,-1217 905.12,-1217 905.12,-1405.25 905.12,-1405.25 905.12,-1411.25 899.12,-1417.25 893.12,-1417.25"/>
<text xml:space="preserve" text-anchor="start" x="719.88" y="-1398.5" font-family="Inter" font-size="10.00" fill="#1f2328">&lt;&lt;borrowed saved secret&gt;&gt;</text>
<text xml:space="preserve" text-anchor="start" x="687.62" y="-1369.1" font-family="Inter" font-weight="bold" font-size="12.00" fill="#1f2328">WifiSavedSecretBorrowed&lt;&#39;a&gt;</text>
<text xml:space="preserve" text-anchor="start" x="687.62" y="-1338" font-family="Inter" font-size="12.00" fill="#1f2328">ssid: &amp;&#39;a str</text>
<text xml:space="preserve" text-anchor="start" x="687.62" y="-1307.75" font-family="Inter" font-size="12.00" fill="#1f2328">network_id: &amp;&#39;a str</text>
<text xml:space="preserve" text-anchor="start" x="687.62" y="-1277.5" font-family="Inter" font-size="12.00" fill="#1f2328">secret: &amp;&#39;a str</text>
<text xml:space="preserve" text-anchor="start" x="687.62" y="-1247.25" font-family="Inter" font-size="12.00" fill="#1f2328">secret_kind: &amp;&#39;a str</text>
<text xml:space="preserve" text-anchor="start" x="687.62" y="-1217" font-family="Inter" font-size="12.00" fill="#1f2328">source: &amp;&#39;a str</text>
<polygon fill="none" stroke="#2f3437" points="678.62,-1205 678.62,-1417.25 905.12,-1417.25 905.12,-1205 678.62,-1205"/>
</g>
<!-- source_note -->
<g id="node9" class="node">
<title>source_note</title>
<polygon fill="#fff8c5" stroke="#2f3437" points="386.88,-149.5 46.12,-149.5 46.12,-62.75 392.88,-62.75 392.88,-143.5 386.88,-149.5"/>
<polyline fill="none" stroke="#2f3437" points="386.88,-149.5 386.88,-143.5"/>
<polyline fill="none" stroke="#2f3437" points="392.88,-143.5 386.88,-143.5"/>
<text xml:space="preserve" text-anchor="start" x="166.62" y="-129.1" font-family="Inter" font-weight="bold" font-size="12.00" fill="#1f2328">External source</text>
<text xml:space="preserve" text-anchor="start" x="60.12" y="-102" font-family="Inter" font-size="12.00" fill="#1f2328">wpa_cli scan_results output</text>
<text xml:space="preserve" text-anchor="start" x="60.12" y="-75.75" font-family="Inter" font-size="12.00" fill="#1f2328">Fields borrow from raw scan output during resolution.</text>
</g>
<!-- source_note&#45;&gt;network_view -->
<g id="edge1" class="edge">
<title>source_note&#45;&gt;network_view</title>
<path fill="none" stroke="#59636e" stroke-dasharray="5,2" d="M393.18,-106.12C487.96,-106.12 602.49,-106.12 684.25,-106.12"/>
<polygon fill="#59636e" stroke="#59636e" points="684.04,-108.58 691.04,-106.13 684.04,-103.68 684.04,-108.58"/>
<text xml:space="preserve" text-anchor="middle" x="541.38" y="-109.17" font-family="Inter" font-size="11.00" fill="#59636e">borrowed fields</text>
</g>
<!-- interface_note -->
<g id="node10" class="node">
<title>interface_note</title>
<polygon fill="#fff8c5" stroke="#2f3437" points="433,-351.5 0,-351.5 0,-264.75 439,-264.75 439,-345.5 433,-351.5"/>
<polyline fill="none" stroke="#2f3437" points="433,-351.5 433,-345.5"/>
<polyline fill="none" stroke="#2f3437" points="439,-345.5 433,-345.5"/>
<text xml:space="preserve" text-anchor="start" x="134" y="-331.1" font-family="Inter" font-weight="bold" font-size="12.00" fill="#1f2328">External interface source</text>
<text xml:space="preserve" text-anchor="start" x="14" y="-304" font-family="Inter" font-size="12.00" fill="#1f2328">wpa_cli interface_list, iw dev, ip link</text>
<text xml:space="preserve" text-anchor="start" x="14" y="-277.75" font-family="Inter" font-size="12.00" fill="#1f2328">Interface name borrows from raw interface output during resolution.</text>
</g>
<!-- interface_note&#45;&gt;interface_view -->
<g id="edge2" class="edge">
<title>interface_note&#45;&gt;interface_view</title>
<path fill="none" stroke="#59636e" stroke-dasharray="5,2" d="M439.39,-308.12C522.71,-308.12 614.02,-308.12 682.69,-308.12"/>
<polygon fill="#59636e" stroke="#59636e" points="682.44,-310.58 689.44,-308.13 682.44,-305.68 682.44,-310.58"/>
<text xml:space="preserve" text-anchor="middle" x="541.38" y="-311.18" font-family="Inter" font-size="11.00" fill="#59636e">borrowed interface name</text>
</g>
<!-- input_note -->
<g id="node11" class="node">
<title>input_note</title>
<polygon fill="#fff8c5" stroke="#2f3437" points="400,-492.5 33,-492.5 33,-405.75 406,-405.75 406,-486.5 400,-492.5"/>
<polyline fill="none" stroke="#2f3437" points="400,-492.5 400,-486.5"/>
<polyline fill="none" stroke="#2f3437" points="406,-486.5 400,-486.5"/>
<text xml:space="preserve" text-anchor="start" x="147.12" y="-472.1" font-family="Inter" font-weight="bold" font-size="12.00" fill="#1f2328">External input source</text>
<text xml:space="preserve" text-anchor="start" x="47" y="-445" font-family="Inter" font-size="12.00" fill="#1f2328">terminal, TUI, web, desktop, stdin, keypress</text>
<text xml:space="preserve" text-anchor="start" x="47" y="-418.75" font-family="Inter" font-size="12.00" fill="#1f2328">Selection input borrows from captured presentation input.</text>
</g>
<!-- input_note&#45;&gt;selection_input_view -->
<g id="edge3" class="edge">
<title>input_note&#45;&gt;selection_input_view</title>
<path fill="none" stroke="#59636e" stroke-dasharray="5,2" d="M406.47,-449.12C480.66,-449.12 565.08,-449.12 635.87,-449.12"/>
<polygon fill="#59636e" stroke="#59636e" points="635.48,-451.58 642.48,-449.13 635.48,-446.68 635.48,-451.58"/>
<text xml:space="preserve" text-anchor="middle" x="541.38" y="-452.18" font-family="Inter" font-size="11.00" fill="#59636e">borrowed input</text>
</g>
<!-- action_input_note -->
<g id="node12" class="node">
<title>action_input_note</title>
<polygon fill="#fff8c5" stroke="#2f3437" points="431.12,-681.75 1.88,-681.75 1.88,-542.5 437.12,-542.5 437.12,-675.75 431.12,-681.75"/>
<polyline fill="none" stroke="#2f3437" points="431.12,-681.75 431.12,-675.75"/>
<polyline fill="none" stroke="#2f3437" points="437.12,-675.75 431.12,-675.75"/>
<text xml:space="preserve" text-anchor="start" x="124.25" y="-661.35" font-family="Inter" font-weight="bold" font-size="12.00" fill="#1f2328">External action input source</text>
<text xml:space="preserve" text-anchor="start" x="15.88" y="-634.25" font-family="Inter" font-size="12.00" fill="#1f2328">terminal menu, TUI item, web button, desktop action, CLI command</text>
<text xml:space="preserve" text-anchor="start" x="15.88" y="-608" font-family="Inter" font-size="12.00" fill="#1f2328">Presentation owns the captured input.</text>
<text xml:space="preserve" text-anchor="start" x="15.88" y="-581.75" font-family="Inter" font-size="12.00" fill="#1f2328">Domain defines the minimal borrowed input shape it accepts.</text>
<text xml:space="preserve" text-anchor="start" x="15.88" y="-555.5" font-family="Inter" font-size="12.00" fill="#1f2328">Presentation implementations adapt their source event to raw: &amp;str.</text>
</g>
<!-- action_input_note&#45;&gt;action_selection_input_view -->
<g id="edge4" class="edge">
<title>action_input_note&#45;&gt;action_selection_input_view</title>
<path fill="none" stroke="#59636e" stroke-dasharray="5,2" d="M437.35,-612.12C506.24,-612.12 580.77,-612.12 643.56,-612.12"/>
<polygon fill="#59636e" stroke="#59636e" points="643.43,-614.58 650.43,-612.13 643.43,-609.68 643.43,-614.58"/>
<text xml:space="preserve" text-anchor="middle" x="541.38" y="-615.17" font-family="Inter" font-size="11.00" fill="#59636e">borrowed action input</text>
</g>
<!-- status_note -->
<g id="node13" class="node">
<title>status_note</title>
<polygon fill="#fff8c5" stroke="#2f3437" points="410.88,-818.5 22.12,-818.5 22.12,-731.75 416.88,-731.75 416.88,-812.5 410.88,-818.5"/>
<polyline fill="none" stroke="#2f3437" points="410.88,-818.5 410.88,-812.5"/>
<polyline fill="none" stroke="#2f3437" points="416.88,-812.5 410.88,-812.5"/>
<text xml:space="preserve" text-anchor="start" x="142.62" y="-798.1" font-family="Inter" font-weight="bold" font-size="12.00" fill="#1f2328">External status source</text>
<text xml:space="preserve" text-anchor="start" x="36.12" y="-771" font-family="Inter" font-size="12.00" fill="#1f2328">wpa_cli status output</text>
<text xml:space="preserve" text-anchor="start" x="36.12" y="-744.75" font-family="Inter" font-size="12.00" fill="#1f2328">Status fields borrow from raw status output during resolution.</text>
</g>
<!-- status_note&#45;&gt;status_view -->
<g id="edge5" class="edge">
<title>status_note&#45;&gt;status_view</title>
<path fill="none" stroke="#59636e" stroke-dasharray="5,2" d="M417.19,-775.12C495.04,-775.12 582.66,-775.12 653.48,-775.12"/>
<polygon fill="#59636e" stroke="#59636e" points="653.08,-777.58 660.08,-775.13 653.08,-772.68 653.08,-777.58"/>
<text xml:space="preserve" text-anchor="middle" x="541.38" y="-778.17" font-family="Inter" font-size="11.00" fill="#59636e">borrowed fields</text>
</g>
<!-- secret_input_note -->
<g id="node14" class="node">
<title>secret_input_note</title>
<polygon fill="#fff8c5" stroke="#2f3437" points="415,-987.62 18,-987.62 18,-874.62 421,-874.62 421,-981.62 415,-987.62"/>
<polyline fill="none" stroke="#2f3437" points="415,-987.62 415,-981.62"/>
<polyline fill="none" stroke="#2f3437" points="421,-981.62 415,-981.62"/>
<text xml:space="preserve" text-anchor="start" x="123.5" y="-967.23" font-family="Inter" font-weight="bold" font-size="12.00" fill="#1f2328">External secret input source</text>
<text xml:space="preserve" text-anchor="start" x="32" y="-940.12" font-family="Inter" font-size="12.00" fill="#1f2328">terminal secret prompt, TUI, web, desktop, stdin</text>
<text xml:space="preserve" text-anchor="start" x="32" y="-913.88" font-family="Inter" font-size="12.00" fill="#1f2328">Password input borrows from captured presentation input.</text>
<text xml:space="preserve" text-anchor="start" x="32" y="-887.62" font-family="Inter" font-size="12.00" fill="#1f2328">Secret input should not be logged or rendered back by default.</text>
</g>
<!-- secret_input_note&#45;&gt;password_input_view -->
<g id="edge6" class="edge">
<title>secret_input_note&#45;&gt;password_input_view</title>
<path fill="none" stroke="#59636e" stroke-dasharray="5,2" d="M421.19,-931.12C501.67,-931.12 592.03,-931.12 663.26,-931.12"/>
<polygon fill="#59636e" stroke="#59636e" points="662.9,-933.58 669.9,-931.13 662.9,-928.68 662.9,-933.58"/>
<text xml:space="preserve" text-anchor="middle" x="541.38" y="-934.17" font-family="Inter" font-size="11.00" fill="#59636e">borrowed secret input</text>
</g>
<!-- saved_network_note -->
<g id="node15" class="node">
<title>saved_network_note</title>
<polygon fill="#fff8c5" stroke="#2f3437" points="418,-1150.62 15,-1150.62 15,-1037.62 424,-1037.62 424,-1144.62 418,-1150.62"/>
<polyline fill="none" stroke="#2f3437" points="418,-1150.62 418,-1144.62"/>
<polyline fill="none" stroke="#2f3437" points="424,-1144.62 418,-1144.62"/>
<text xml:space="preserve" text-anchor="start" x="114.12" y="-1130.22" font-family="Inter" font-weight="bold" font-size="12.00" fill="#1f2328">External saved network source</text>
<text xml:space="preserve" text-anchor="start" x="29" y="-1103.12" font-family="Inter" font-size="12.00" fill="#1f2328">wpa_cli list_networks output</text>
<text xml:space="preserve" text-anchor="start" x="29" y="-1076.88" font-family="Inter" font-size="12.00" fill="#1f2328">Saved network fields borrow from raw saved network output.</text>
<text xml:space="preserve" text-anchor="start" x="29" y="-1050.62" font-family="Inter" font-size="12.00" fill="#1f2328">network_id is used to connect without reading the saved secret.</text>
</g>
<!-- saved_network_note&#45;&gt;saved_network_view -->
<g id="edge7" class="edge">
<title>saved_network_note&#45;&gt;saved_network_view</title>
<path fill="none" stroke="#59636e" stroke-dasharray="5,2" d="M424.41,-1094.12C504.15,-1094.12 593.15,-1094.12 663.47,-1094.12"/>
<polygon fill="#59636e" stroke="#59636e" points="663.43,-1096.58 670.43,-1094.13 663.43,-1091.68 663.43,-1096.58"/>
<text xml:space="preserve" text-anchor="middle" x="541.38" y="-1097.17" font-family="Inter" font-size="11.00" fill="#59636e">borrowed fields</text>
</g>
<!-- saved_secret_note -->
<g id="node16" class="node">
<title>saved_secret_note</title>
<polygon fill="#fff8c5" stroke="#2f3437" points="430.38,-1380.75 2.63,-1380.75 2.63,-1241.5 436.38,-1241.5 436.38,-1374.75 430.38,-1380.75"/>
<polyline fill="none" stroke="#2f3437" points="430.38,-1380.75 430.38,-1374.75"/>
<polyline fill="none" stroke="#2f3437" points="436.38,-1374.75 430.38,-1374.75"/>
<text xml:space="preserve" text-anchor="start" x="120.88" y="-1360.35" font-family="Inter" font-weight="bold" font-size="12.00" fill="#1f2328">External saved secret source</text>
<text xml:space="preserve" text-anchor="start" x="16.62" y="-1333.25" font-family="Inter" font-size="12.00" fill="#1f2328">wpa_cli get_network &lt;network_id&gt; psk</text>
<text xml:space="preserve" text-anchor="start" x="16.62" y="-1307" font-family="Inter" font-size="12.00" fill="#1f2328">wpa_supplicant config file when wpa_cli hides the secret</text>
<text xml:space="preserve" text-anchor="start" x="16.62" y="-1280.75" font-family="Inter" font-size="12.00" fill="#1f2328">secret_kind may be password, psk_hex, hidden, or unknown.</text>
<text xml:space="preserve" text-anchor="start" x="16.62" y="-1254.5" font-family="Inter" font-size="12.00" fill="#1f2328">Secret should not be logged or rendered unless explicitly requested.</text>
</g>
<!-- saved_secret_note&#45;&gt;saved_secret_view -->
<g id="edge8" class="edge">
<title>saved_secret_note&#45;&gt;saved_secret_view</title>
<path fill="none" stroke="#59636e" stroke-dasharray="5,2" d="M436.54,-1311.12C515.77,-1311.12 602.58,-1311.12 670.45,-1311.12"/>
<polygon fill="#59636e" stroke="#59636e" points="670.11,-1313.58 677.11,-1311.13 670.11,-1308.68 670.11,-1313.58"/>
<text xml:space="preserve" text-anchor="middle" x="541.38" y="-1314.17" font-family="Inter" font-size="11.00" fill="#59636e">borrowed secret fields</text>
</g>
</g>
</svg>
