<?xml version="1.0" encoding="UTF-8" standalone="no"?>
<!DOCTYPE svg PUBLIC "-//W3C//DTD SVG 1.1//EN"
 "http://www.w3.org/Graphics/SVG/1.1/DTD/svg11.dtd">
<!-- Generated by graphviz version 14.1.5 (0)
 -->
<!-- Title: UseCaseDiagram Pages: 1 -->
<svg width="573pt" height="927pt"
 viewBox="0.00 0.00 573.00 927.00" xmlns="http://www.w3.org/2000/svg" xmlns:xlink="http://www.w3.org/1999/xlink">
<g id="graph0" class="graph" transform="scale(1 1) rotate(0) translate(28.8 897.8)">
<title>UseCaseDiagram</title>
<g id="clust1" class="cluster">
<title>cluster_evo_wifi</title>
<path fill="none" stroke="#8c959f" d="M177.25,-8C177.25,-8 495.23,-8 495.23,-8 501.23,-8 507.23,-14 507.23,-20 507.23,-20 507.23,-849 507.23,-849 507.23,-855 501.23,-861 495.23,-861 495.23,-861 177.25,-861 177.25,-861 171.25,-861 165.25,-855 165.25,-849 165.25,-849 165.25,-20 165.25,-20 165.25,-14 171.25,-8 177.25,-8"/>
<text xml:space="preserve" text-anchor="middle" x="336.24" y="-843.7" font-family="Inter" font-size="14.00">evo&#45;wifi</text>
</g>
<!-- user -->
<g id="node1" class="node">
<title>user</title>
<path fill="#f6f8fa" stroke="#2f3437" d="M96.25,-440C96.25,-440 12,-440 12,-440 6,-440 0,-434 0,-428 0,-428 0,-416 0,-416 0,-410 6,-404 12,-404 12,-404 96.25,-404 96.25,-404 102.25,-404 108.25,-410 108.25,-416 108.25,-416 108.25,-428 108.25,-428 108.25,-434 102.25,-440 96.25,-440"/>
<text xml:space="preserve" text-anchor="middle" x="54.12" y="-417.73" font-family="Inter" font-size="12.00" fill="#1f2328">Void Linux User</text>
</g>
<!-- uc001 -->
<g id="node2" class="node">
<title>uc001</title>
<ellipse fill="none" stroke="#2f3437" cx="336.24" cy="-42" rx="132.23" ry="25.81"/>
<text xml:space="preserve" text-anchor="middle" x="336.24" y="-44.85" font-family="Inter" font-size="12.00" fill="#1f2328">US&#45;001</text>
<text xml:space="preserve" text-anchor="middle" x="336.24" y="-30.6" font-family="Inter" font-size="12.00" fill="#1f2328">View available WiFi networks</text>
</g>
<!-- user&#45;&gt;uc001 -->
<g id="edge1" class="edge">
<title>user&#45;&gt;uc001</title>
<path fill="none" stroke="#59636e" d="M55.52,-403.83C57.74,-348.26 72.19,-178.96 165.25,-90 179.86,-76.03 198.22,-66.07 217.43,-58.99"/>
<polygon fill="#59636e" stroke="#59636e" points="218.16,-61.33 223.97,-56.72 216.56,-56.7 218.16,-61.33"/>
</g>
<!-- uc002 -->
<g id="node3" class="node">
<title>uc002</title>
<ellipse fill="none" stroke="#2f3437" cx="336.24" cy="-137" rx="159.81" ry="25.81"/>
<text xml:space="preserve" text-anchor="middle" x="336.24" y="-139.85" font-family="Inter" font-size="12.00" fill="#1f2328">US&#45;002</text>
<text xml:space="preserve" text-anchor="middle" x="336.24" y="-125.6" font-family="Inter" font-size="12.00" fill="#1f2328">Select and connect to WiFi network</text>
</g>
<!-- user&#45;&gt;uc002 -->
<g id="edge2" class="edge">
<title>user&#45;&gt;uc002</title>
<path fill="none" stroke="#59636e" d="M58.25,-403.74C66.83,-359.32 94.96,-244.87 165.25,-185 178.92,-173.36 195.22,-164.53 212.24,-157.84"/>
<polygon fill="#59636e" stroke="#59636e" points="212.98,-160.18 218.68,-155.45 211.27,-155.59 212.98,-160.18"/>
</g>
<!-- uc003 -->
<g id="node4" class="node">
<title>uc003</title>
<ellipse fill="none" stroke="#2f3437" cx="336.24" cy="-232" rx="159.28" ry="25.81"/>
<text xml:space="preserve" text-anchor="middle" x="336.24" y="-234.85" font-family="Inter" font-size="12.00" fill="#1f2328">US&#45;003</text>
<text xml:space="preserve" text-anchor="middle" x="336.24" y="-220.6" font-family="Inter" font-size="12.00" fill="#1f2328">Handle already connected network</text>
</g>
<!-- user&#45;&gt;uc003 -->
<g id="edge3" class="edge">
<title>user&#45;&gt;uc003</title>
<path fill="none" stroke="#59636e" d="M64.27,-403.72C80.41,-373.35 116.88,-312.61 165.25,-280 181.68,-268.93 200.64,-260.38 219.81,-253.8"/>
<polygon fill="#59636e" stroke="#59636e" points="220.41,-256.18 226.3,-251.67 218.88,-251.53 220.41,-256.18"/>
</g>
<!-- uc004 -->
<g id="node5" class="node">
<title>uc004</title>
<ellipse fill="none" stroke="#2f3437" cx="336.24" cy="-327" rx="142.31" ry="25.81"/>
<text xml:space="preserve" text-anchor="middle" x="336.24" y="-329.85" font-family="Inter" font-size="12.00" fill="#1f2328">US&#45;004</text>
<text xml:space="preserve" text-anchor="middle" x="336.24" y="-315.6" font-family="Inter" font-size="12.00" fill="#1f2328">Switch to another WiFi network</text>
</g>
<!-- user&#45;&gt;uc004 -->
<g id="edge4" class="edge">
<title>user&#45;&gt;uc004</title>
<path fill="none" stroke="#59636e" d="M94.91,-403.56C115.63,-394.33 141.53,-383.37 165.25,-375 190.54,-366.07 218.39,-357.65 244.1,-350.42"/>
<polygon fill="#59636e" stroke="#59636e" points="244.46,-352.86 250.54,-348.62 243.14,-348.14 244.46,-352.86"/>
</g>
<!-- uc005 -->
<g id="node6" class="node">
<title>uc005</title>
<ellipse fill="none" stroke="#2f3437" cx="336.24" cy="-422" rx="147.61" ry="25.81"/>
<text xml:space="preserve" text-anchor="middle" x="336.24" y="-424.85" font-family="Inter" font-size="12.00" fill="#1f2328">US&#45;005</text>
<text xml:space="preserve" text-anchor="middle" x="336.24" y="-410.6" font-family="Inter" font-size="12.00" fill="#1f2328">Request password when needed</text>
</g>
<!-- user&#45;&gt;uc005 -->
<g id="edge5" class="edge">
<title>user&#45;&gt;uc005</title>
<path fill="none" stroke="#59636e" d="M108.47,-422C129.24,-422 154.2,-422 179.86,-422"/>
<polygon fill="#59636e" stroke="#59636e" points="179.7,-424.45 186.7,-422 179.7,-419.55 179.7,-424.45"/>
</g>
<!-- uc006 -->
<g id="node7" class="node">
<title>uc006</title>
<ellipse fill="none" stroke="#2f3437" cx="336.24" cy="-517" rx="162.99" ry="25.81"/>
<text xml:space="preserve" text-anchor="middle" x="336.24" y="-519.85" font-family="Inter" font-size="12.00" fill="#1f2328">US&#45;006</text>
<text xml:space="preserve" text-anchor="middle" x="336.24" y="-505.6" font-family="Inter" font-size="12.00" fill="#1f2328">Use saved password when available</text>
</g>
<!-- user&#45;&gt;uc006 -->
<g id="edge6" class="edge">
<title>user&#45;&gt;uc006</title>
<path fill="none" stroke="#59636e" d="M94.91,-440.44C115.63,-449.67 141.53,-460.63 165.25,-469 189.39,-477.52 215.85,-485.59 240.57,-492.59"/>
<polygon fill="#59636e" stroke="#59636e" points="239.67,-494.88 247.07,-494.41 240.99,-490.16 239.67,-494.88"/>
</g>
<!-- uc007 -->
<g id="node8" class="node">
<title>uc007</title>
<ellipse fill="none" stroke="#2f3437" cx="336.24" cy="-612" rx="158.75" ry="25.81"/>
<text xml:space="preserve" text-anchor="middle" x="336.24" y="-614.85" font-family="Inter" font-size="12.00" fill="#1f2328">US&#45;007</text>
<text xml:space="preserve" text-anchor="middle" x="336.24" y="-600.6" font-family="Inter" font-size="12.00" fill="#1f2328">Show current connection password</text>
</g>
<!-- user&#45;&gt;uc007 -->
<g id="edge7" class="edge">
<title>user&#45;&gt;uc007</title>
<path fill="none" stroke="#59636e" d="M64.27,-440.28C80.41,-470.65 116.88,-531.39 165.25,-564 181.68,-575.07 200.64,-583.62 219.81,-590.2"/>
<polygon fill="#59636e" stroke="#59636e" points="218.88,-592.47 226.3,-592.33 220.41,-587.82 218.88,-592.47"/>
</g>
<!-- uc008 -->
<g id="node9" class="node">
<title>uc008</title>
<ellipse fill="none" stroke="#2f3437" cx="336.24" cy="-707" rx="127.46" ry="25.81"/>
<text xml:space="preserve" text-anchor="middle" x="336.24" y="-709.85" font-family="Inter" font-size="12.00" fill="#1f2328">US&#45;008</text>
<text xml:space="preserve" text-anchor="middle" x="336.24" y="-695.6" font-family="Inter" font-size="12.00" fill="#1f2328">Forget saved WiFi password</text>
</g>
<!-- user&#45;&gt;uc008 -->
<g id="edge8" class="edge">
<title>user&#45;&gt;uc008</title>
<path fill="none" stroke="#59636e" d="M58.25,-440.26C66.83,-484.68 94.96,-599.13 165.25,-659 181.6,-672.93 201.74,-682.83 222.35,-689.86"/>
<polygon fill="#59636e" stroke="#59636e" points="221.42,-692.14 228.83,-691.96 222.92,-687.47 221.42,-692.14"/>
</g>
<!-- uc009 -->
<g id="node10" class="node">
<title>uc009</title>
<ellipse fill="none" stroke="#2f3437" cx="336.24" cy="-802" rx="129.58" ry="25.81"/>
<text xml:space="preserve" text-anchor="middle" x="336.24" y="-804.85" font-family="Inter" font-size="12.00" fill="#1f2328">US&#45;009</text>
<text xml:space="preserve" text-anchor="middle" x="336.24" y="-790.6" font-family="Inter" font-size="12.00" fill="#1f2328">View current network status</text>
</g>
<!-- user&#45;&gt;uc009 -->
<g id="edge9" class="edge">
<title>user&#45;&gt;uc009</title>
<path fill="none" stroke="#59636e" d="M55.52,-440.17C57.74,-495.74 72.19,-665.04 165.25,-754 180.12,-768.22 198.88,-778.28 218.45,-785.39"/>
<polygon fill="#59636e" stroke="#59636e" points="217.44,-787.63 224.85,-787.58 219.02,-782.99 217.44,-787.63"/>
</g>
</g>
</svg>
