<?xml version="1.0" encoding="UTF-8" standalone="no"?>
<!DOCTYPE svg PUBLIC "-//W3C//DTD SVG 1.1//EN"
 "http://www.w3.org/Graphics/SVG/1.1/DTD/svg11.dtd">
<!-- Generated by graphviz version 14.1.5 (0)
 -->
<!-- Title: WifiComponentDiagram Pages: 1 -->
<svg width="2499pt" height="1590pt"
 viewBox="0.00 0.00 2499.00 1590.00" xmlns="http://www.w3.org/2000/svg" xmlns:xlink="http://www.w3.org/1999/xlink">
<g id="graph0" class="graph" transform="scale(1 1) rotate(0) translate(28.8 1561.2)">
<title>WifiComponentDiagram</title>
<text xml:space="preserve" text-anchor="middle" x="1220.88" y="-1513.2" font-family="Inter" font-size="16.00">WiFi Component Diagram: Contracts and Providers</text>
<g id="clust1" class="cluster">
<title>cluster_presentation_contracts</title>
<path fill="none" stroke="#8c959f" d="M2130.25,-896.9C2130.25,-896.9 2421.75,-896.9 2421.75,-896.9 2427.75,-896.9 2433.75,-902.9 2433.75,-908.9 2433.75,-908.9 2433.75,-1484.9 2433.75,-1484.9 2433.75,-1490.9 2427.75,-1496.9 2421.75,-1496.9 2421.75,-1496.9 2130.25,-1496.9 2130.25,-1496.9 2124.25,-1496.9 2118.25,-1490.9 2118.25,-1484.9 2118.25,-1484.9 2118.25,-908.9 2118.25,-908.9 2118.25,-902.9 2124.25,-896.9 2130.25,-896.9"/>
<text xml:space="preserve" text-anchor="middle" x="2276" y="-1479.6" font-family="Inter" font-size="14.00">Presentation Contracts</text>
</g>
<g id="clust2" class="cluster">
<title>cluster_runtime_assembly</title>
<path fill="none" stroke="#8c959f" d="M20,-1007.9C20,-1007.9 172.75,-1007.9 172.75,-1007.9 178.75,-1007.9 184.75,-1013.9 184.75,-1019.9 184.75,-1019.9 184.75,-1130.9 184.75,-1130.9 184.75,-1136.9 178.75,-1142.9 172.75,-1142.9 172.75,-1142.9 20,-1142.9 20,-1142.9 14,-1142.9 8,-1136.9 8,-1130.9 8,-1130.9 8,-1019.9 8,-1019.9 8,-1013.9 14,-1007.9 20,-1007.9"/>
<text xml:space="preserve" text-anchor="middle" x="96.38" y="-1125.6" font-family="Inter" font-size="14.00">Runtime Assembly</text>
</g>
<g id="clust3" class="cluster">
<title>cluster_system_wifi_contracts</title>
<path fill="none" stroke="#8c959f" d="M1701.38,-435.9C1701.38,-435.9 1935.88,-435.9 1935.88,-435.9 1941.88,-435.9 1947.88,-441.9 1947.88,-447.9 1947.88,-447.9 1947.88,-936.9 1947.88,-936.9 1947.88,-942.9 1941.88,-948.9 1935.88,-948.9 1935.88,-948.9 1701.38,-948.9 1701.38,-948.9 1695.38,-948.9 1689.38,-942.9 1689.38,-936.9 1689.38,-936.9 1689.38,-447.9 1689.38,-447.9 1689.38,-441.9 1695.38,-435.9 1701.38,-435.9"/>
<text xml:space="preserve" text-anchor="middle" x="1818.62" y="-931.6" font-family="Inter" font-size="14.00">System WiFi Contracts</text>
</g>
<g id="clust4" class="cluster">
<title>cluster_agent_subjects</title>
<path fill="none" stroke="#8c959f" d="M294.75,-1173.9C294.75,-1173.9 620.75,-1173.9 620.75,-1173.9 626.75,-1173.9 632.75,-1179.9 632.75,-1185.9 632.75,-1185.9 632.75,-1239.9 632.75,-1239.9 632.75,-1245.9 626.75,-1251.9 620.75,-1251.9 620.75,-1251.9 294.75,-1251.9 294.75,-1251.9 288.75,-1251.9 282.75,-1245.9 282.75,-1239.9 282.75,-1239.9 282.75,-1185.9 282.75,-1185.9 282.75,-1179.9 288.75,-1173.9 294.75,-1173.9"/>
<text xml:space="preserve" text-anchor="middle" x="457.75" y="-1234.6" font-family="Inter" font-size="14.00">Agent Subjects</text>
</g>
<g id="clust5" class="cluster">
<title>cluster_resolvers</title>
<path fill="none" stroke="#8c959f" d="M781.75,-1217.9C781.75,-1217.9 1964,-1217.9 1964,-1217.9 1970,-1217.9 1976,-1223.9 1976,-1229.9 1976,-1229.9 1976,-1310.9 1976,-1310.9 1976,-1316.9 1970,-1322.9 1964,-1322.9 1964,-1322.9 781.75,-1322.9 781.75,-1322.9 775.75,-1322.9 769.75,-1316.9 769.75,-1310.9 769.75,-1310.9 769.75,-1229.9 769.75,-1229.9 769.75,-1223.9 775.75,-1217.9 781.75,-1217.9"/>
<text xml:space="preserve" text-anchor="middle" x="1372.88" y="-1305.6" font-family="Inter" font-size="14.00">Resolvers</text>
</g>
<g id="clust6" class="cluster">
<title>cluster_presentation_providers</title>
<path fill="none" stroke="#8c959f" d="M1728,-957.9C1728,-957.9 1909.25,-957.9 1909.25,-957.9 1915.25,-957.9 1921.25,-963.9 1921.25,-969.9 1921.25,-969.9 1921.25,-1197.9 1921.25,-1197.9 1921.25,-1203.9 1915.25,-1209.9 1909.25,-1209.9 1909.25,-1209.9 1728,-1209.9 1728,-1209.9 1722,-1209.9 1716,-1203.9 1716,-1197.9 1716,-1197.9 1716,-969.9 1716,-969.9 1716,-963.9 1722,-957.9 1728,-957.9"/>
<text xml:space="preserve" text-anchor="middle" x="1818.62" y="-1192.6" font-family="Inter" font-size="14.00">Presentation Providers</text>
</g>
<g id="clust7" class="cluster">
<title>cluster_system_wifi_providers</title>
<path fill="none" stroke="#8c959f" d="M1186.25,-512.9C1186.25,-512.9 1412.5,-512.9 1412.5,-512.9 1418.5,-512.9 1424.5,-518.9 1424.5,-524.9 1424.5,-524.9 1424.5,-924.9 1424.5,-924.9 1424.5,-930.9 1418.5,-936.9 1412.5,-936.9 1412.5,-936.9 1186.25,-936.9 1186.25,-936.9 1180.25,-936.9 1174.25,-930.9 1174.25,-924.9 1174.25,-924.9 1174.25,-524.9 1174.25,-524.9 1174.25,-518.9 1180.25,-512.9 1186.25,-512.9"/>
<text xml:space="preserve" text-anchor="middle" x="1299.38" y="-919.6" font-family="Inter" font-size="14.00">System WiFi Providers</text>
</g>
<g id="clust8" class="cluster">
<title>cluster_void_external_components</title>
<path fill="none" stroke="#8c959f" d="M1738.5,-87.9C1738.5,-87.9 2383.12,-87.9 2383.12,-87.9 2389.12,-87.9 2395.12,-93.9 2395.12,-99.9 2395.12,-99.9 2395.12,-414.9 2395.12,-414.9 2395.12,-420.9 2389.12,-426.9 2383.12,-426.9 2383.12,-426.9 1738.5,-426.9 1738.5,-426.9 1732.5,-426.9 1726.5,-420.9 1726.5,-414.9 1726.5,-414.9 1726.5,-99.9 1726.5,-99.9 1726.5,-93.9 1732.5,-87.9 1738.5,-87.9"/>
<text xml:space="preserve" text-anchor="middle" x="2060.81" y="-409.6" font-family="Inter" font-size="14.00">Void External Components</text>
</g>
<!-- WifiActionInputPresentationContract -->
<g id="node1" class="node">
<title>WifiActionInputPresentationContract</title>
<path fill="#f6f8fa" stroke="#2f3437" d="M2380,-941.15C2380,-941.15 2172,-941.15 2172,-941.15 2166,-941.15 2160,-935.15 2160,-929.15 2160,-929.15 2160,-916.65 2160,-916.65 2160,-910.65 2166,-904.65 2172,-904.65 2172,-904.65 2380,-904.65 2380,-904.65 2386,-904.65 2392,-910.65 2392,-916.65 2392,-916.65 2392,-929.15 2392,-929.15 2392,-935.15 2386,-941.15 2380,-941.15"/>
<text xml:space="preserve" text-anchor="middle" x="2276" y="-925.75" font-family="Inter" font-size="12.00" fill="#1f2328">&lt;&lt;contract / trait&gt;&gt;</text>
<text xml:space="preserve" text-anchor="middle" x="2276" y="-911.5" font-family="Inter" font-size="12.00" fill="#1f2328">WifiActionInputPresentationContract</text>
</g>
<!-- WifiNetworkSelectionInputPresentationContract -->
<g id="node2" class="node">
<title>WifiNetworkSelectionInputPresentationContract</title>
<path fill="#f6f8fa" stroke="#2f3437" d="M2413.75,-1289.15C2413.75,-1289.15 2138.25,-1289.15 2138.25,-1289.15 2132.25,-1289.15 2126.25,-1283.15 2126.25,-1277.15 2126.25,-1277.15 2126.25,-1264.65 2126.25,-1264.65 2126.25,-1258.65 2132.25,-1252.65 2138.25,-1252.65 2138.25,-1252.65 2413.75,-1252.65 2413.75,-1252.65 2419.75,-1252.65 2425.75,-1258.65 2425.75,-1264.65 2425.75,-1264.65 2425.75,-1277.15 2425.75,-1277.15 2425.75,-1283.15 2419.75,-1289.15 2413.75,-1289.15"/>
<text xml:space="preserve" text-anchor="middle" x="2276" y="-1273.75" font-family="Inter" font-size="12.00" fill="#1f2328">&lt;&lt;contract / trait&gt;&gt;</text>
<text xml:space="preserve" text-anchor="middle" x="2276" y="-1259.5" font-family="Inter" font-size="12.00" fill="#1f2328">WifiNetworkSelectionInputPresentationContract</text>
</g>
<!-- WifiPasswordInputPresentationContract -->
<g id="node3" class="node">
<title>WifiPasswordInputPresentationContract</title>
<path fill="#f6f8fa" stroke="#2f3437" d="M2389,-1202.15C2389,-1202.15 2163,-1202.15 2163,-1202.15 2157,-1202.15 2151,-1196.15 2151,-1190.15 2151,-1190.15 2151,-1177.65 2151,-1177.65 2151,-1171.65 2157,-1165.65 2163,-1165.65 2163,-1165.65 2389,-1165.65 2389,-1165.65 2395,-1165.65 2401,-1171.65 2401,-1177.65 2401,-1177.65 2401,-1190.15 2401,-1190.15 2401,-1196.15 2395,-1202.15 2389,-1202.15"/>
<text xml:space="preserve" text-anchor="middle" x="2276" y="-1186.75" font-family="Inter" font-size="12.00" fill="#1f2328">&lt;&lt;contract / trait&gt;&gt;</text>
<text xml:space="preserve" text-anchor="middle" x="2276" y="-1172.5" font-family="Inter" font-size="12.00" fill="#1f2328">WifiPasswordInputPresentationContract</text>
</g>
<!-- WifiNetworkRenderPresentationContract -->
<g id="node4" class="node">
<title>WifiNetworkRenderPresentationContract</title>
<path fill="#f6f8fa" stroke="#2f3437" d="M2392.38,-1115.15C2392.38,-1115.15 2159.62,-1115.15 2159.62,-1115.15 2153.62,-1115.15 2147.62,-1109.15 2147.62,-1103.15 2147.62,-1103.15 2147.62,-1090.65 2147.62,-1090.65 2147.62,-1084.65 2153.62,-1078.65 2159.62,-1078.65 2159.62,-1078.65 2392.38,-1078.65 2392.38,-1078.65 2398.38,-1078.65 2404.38,-1084.65 2404.38,-1090.65 2404.38,-1090.65 2404.38,-1103.15 2404.38,-1103.15 2404.38,-1109.15 2398.38,-1115.15 2392.38,-1115.15"/>
<text xml:space="preserve" text-anchor="middle" x="2276" y="-1099.75" font-family="Inter" font-size="12.00" fill="#1f2328">&lt;&lt;contract / trait&gt;&gt;</text>
<text xml:space="preserve" text-anchor="middle" x="2276" y="-1085.5" font-family="Inter" font-size="12.00" fill="#1f2328">WifiNetworkRenderPresentationContract</text>
</g>
<!-- WifiStatusRenderPresentationContract -->
<g id="node5" class="node">
<title>WifiStatusRenderPresentationContract</title>
<path fill="#f6f8fa" stroke="#2f3437" d="M2386,-1463.15C2386,-1463.15 2166,-1463.15 2166,-1463.15 2160,-1463.15 2154,-1457.15 2154,-1451.15 2154,-1451.15 2154,-1438.65 2154,-1438.65 2154,-1432.65 2160,-1426.65 2166,-1426.65 2166,-1426.65 2386,-1426.65 2386,-1426.65 2392,-1426.65 2398,-1432.65 2398,-1438.65 2398,-1438.65 2398,-1451.15 2398,-1451.15 2398,-1457.15 2392,-1463.15 2386,-1463.15"/>
<text xml:space="preserve" text-anchor="middle" x="2276" y="-1447.75" font-family="Inter" font-size="12.00" fill="#1f2328">&lt;&lt;contract / trait&gt;&gt;</text>
<text xml:space="preserve" text-anchor="middle" x="2276" y="-1433.5" font-family="Inter" font-size="12.00" fill="#1f2328">WifiStatusRenderPresentationContract</text>
</g>
<!-- WifiSecretRenderPresentationContract -->
<g id="node6" class="node">
<title>WifiSecretRenderPresentationContract</title>
<path fill="#f6f8fa" stroke="#2f3437" d="M2386.38,-1028.15C2386.38,-1028.15 2165.62,-1028.15 2165.62,-1028.15 2159.62,-1028.15 2153.62,-1022.15 2153.62,-1016.15 2153.62,-1016.15 2153.62,-1003.65 2153.62,-1003.65 2153.62,-997.65 2159.62,-991.65 2165.62,-991.65 2165.62,-991.65 2386.38,-991.65 2386.38,-991.65 2392.38,-991.65 2398.38,-997.65 2398.38,-1003.65 2398.38,-1003.65 2398.38,-1016.15 2398.38,-1016.15 2398.38,-1022.15 2392.38,-1028.15 2386.38,-1028.15"/>
<text xml:space="preserve" text-anchor="middle" x="2276" y="-1012.75" font-family="Inter" font-size="12.00" fill="#1f2328">&lt;&lt;contract / trait&gt;&gt;</text>
<text xml:space="preserve" text-anchor="middle" x="2276" y="-998.5" font-family="Inter" font-size="12.00" fill="#1f2328">WifiSecretRenderPresentationContract</text>
</g>
<!-- WifiMessageRenderPresentationContract -->
<g id="node7" class="node">
<title>WifiMessageRenderPresentationContract</title>
<path fill="#f6f8fa" stroke="#2f3437" d="M2393.5,-1376.15C2393.5,-1376.15 2158.5,-1376.15 2158.5,-1376.15 2152.5,-1376.15 2146.5,-1370.15 2146.5,-1364.15 2146.5,-1364.15 2146.5,-1351.65 2146.5,-1351.65 2146.5,-1345.65 2152.5,-1339.65 2158.5,-1339.65 2158.5,-1339.65 2393.5,-1339.65 2393.5,-1339.65 2399.5,-1339.65 2405.5,-1345.65 2405.5,-1351.65 2405.5,-1351.65 2405.5,-1364.15 2405.5,-1364.15 2405.5,-1370.15 2399.5,-1376.15 2393.5,-1376.15"/>
<text xml:space="preserve" text-anchor="middle" x="2276" y="-1360.75" font-family="Inter" font-size="12.00" fill="#1f2328">&lt;&lt;contract / trait&gt;&gt;</text>
<text xml:space="preserve" text-anchor="middle" x="2276" y="-1346.5" font-family="Inter" font-size="12.00" fill="#1f2328">WifiMessageRenderPresentationContract</text>
</g>
<!-- EvoWifiCompositionRoot -->
<g id="node8" class="node">
<title>EvoWifiCompositionRoot</title>
<path fill="#ddf4ff" stroke="#2f3437" d="M164.75,-1109.52C164.75,-1109.52 28,-1109.52 28,-1109.52 22,-1109.52 16,-1103.52 16,-1097.52 16,-1097.52 16,-1028.27 16,-1028.27 16,-1022.27 22,-1016.27 28,-1016.27 28,-1016.27 164.75,-1016.27 164.75,-1016.27 170.75,-1016.27 176.75,-1022.27 176.75,-1028.27 176.75,-1028.27 176.75,-1097.52 176.75,-1097.52 176.75,-1103.52 170.75,-1109.52 164.75,-1109.52"/>
<text xml:space="preserve" text-anchor="middle" x="96.38" y="-1094.12" font-family="Inter" font-size="12.00" fill="#1f2328">&lt;&lt;composition root&gt;&gt;</text>
<text xml:space="preserve" text-anchor="middle" x="96.38" y="-1079.87" font-family="Inter" font-size="12.00" fill="#1f2328">EvoWifiCompositionRoot</text>
<text xml:space="preserve" text-anchor="middle" x="96.38" y="-1051.62" font-family="Inter" font-size="12.00" fill="#1f2328">creates providers</text>
<text xml:space="preserve" text-anchor="middle" x="96.38" y="-1037.37" font-family="Inter" font-size="12.00" fill="#1f2328">invokes agent_subject</text>
<text xml:space="preserve" text-anchor="middle" x="96.38" y="-1023.12" font-family="Inter" font-size="12.00" fill="#1f2328">no use&#45;case logic</text>
</g>
<!-- WifiConnectionStatusShower -->
<g id="node15" class="node">
<title>WifiConnectionStatusShower</title>
<path fill="#ddf4ff" stroke="#2f3437" d="M612.75,-1218.15C612.75,-1218.15 302.75,-1218.15 302.75,-1218.15 296.75,-1218.15 290.75,-1212.15 290.75,-1206.15 290.75,-1206.15 290.75,-1193.65 290.75,-1193.65 290.75,-1187.65 296.75,-1181.65 302.75,-1181.65 302.75,-1181.65 612.75,-1181.65 612.75,-1181.65 618.75,-1181.65 624.75,-1187.65 624.75,-1193.65 624.75,-1193.65 624.75,-1206.15 624.75,-1206.15 624.75,-1212.15 618.75,-1218.15 612.75,-1218.15"/>
<text xml:space="preserve" text-anchor="middle" x="457.75" y="-1202.75" font-family="Inter" font-size="12.00" fill="#1f2328">&lt;&lt;agent_subject&gt;&gt;</text>
<text xml:space="preserve" text-anchor="middle" x="457.75" y="-1188.5" font-family="Inter" font-size="12.00" fill="#1f2328">agent_subjects::wifi_connection_status_shower::show</text>
</g>
<!-- EvoWifiCompositionRoot&#45;&gt;WifiConnectionStatusShower -->
<g id="edge4" class="edge">
<title>EvoWifiCompositionRoot&#45;&gt;WifiConnectionStatusShower</title>
<path fill="none" stroke="#59636e" d="M177.13,-1093.3C244.62,-1119.03 339.67,-1155.27 399.74,-1178.16"/>
<polygon fill="#59636e" stroke="#59636e" points="398.78,-1180.42 406.2,-1180.63 400.53,-1175.84 398.78,-1180.42"/>
<text xml:space="preserve" text-anchor="middle" x="233.75" y="-1122.18" font-family="Inter" font-size="11.00" fill="#59636e">invokes</text>
</g>
<!-- TerminalPresentationProvider -->
<g id="node19" class="node">
<title>TerminalPresentationProvider</title>
<path fill="#ddf4ff" stroke="#2f3437" d="M1901.25,-1176.15C1901.25,-1176.15 1736,-1176.15 1736,-1176.15 1730,-1176.15 1724,-1170.15 1724,-1164.15 1724,-1164.15 1724,-1151.65 1724,-1151.65 1724,-1145.65 1730,-1139.65 1736,-1139.65 1736,-1139.65 1901.25,-1139.65 1901.25,-1139.65 1907.25,-1139.65 1913.25,-1145.65 1913.25,-1151.65 1913.25,-1151.65 1913.25,-1164.15 1913.25,-1164.15 1913.25,-1170.15 1907.25,-1176.15 1901.25,-1176.15"/>
<text xml:space="preserve" text-anchor="middle" x="1818.62" y="-1160.75" font-family="Inter" font-size="12.00" fill="#1f2328">&lt;&lt;provider&gt;&gt;</text>
<text xml:space="preserve" text-anchor="middle" x="1818.62" y="-1146.5" font-family="Inter" font-size="12.00" fill="#1f2328">TerminalPresentationProvider</text>
</g>
<!-- EvoWifiCompositionRoot&#45;&gt;TerminalPresentationProvider -->
<g id="edge3" class="edge">
<title>EvoWifiCompositionRoot&#45;&gt;TerminalPresentationProvider</title>
<path fill="none" stroke="#59636e" d="M176.95,-1062.9C249.78,-1062.9 360.51,-1062.9 456.75,-1062.9 456.75,-1062.9 456.75,-1062.9 1076,-1062.9 1309.07,-1062.9 1580.02,-1109.63 1721.06,-1137.54"/>
<polygon fill="#59636e" stroke="#59636e" points="1720.51,-1139.93 1727.85,-1138.89 1721.46,-1135.12 1720.51,-1139.93"/>
<text xml:space="preserve" text-anchor="middle" x="877.62" y="-1065.95" font-family="Inter" font-size="11.00" fill="#59636e">creates</text>
</g>
<!-- VoidSystemWifiProvider -->
<g id="node22" class="node">
<title>VoidSystemWifiProvider</title>
<path fill="#ddf4ff" stroke="#2f3437" d="M1372.62,-642.77C1372.62,-642.77 1226.12,-642.77 1226.12,-642.77 1220.12,-642.77 1214.12,-636.77 1214.12,-630.77 1214.12,-630.77 1214.12,-533.02 1214.12,-533.02 1214.12,-527.02 1220.12,-521.02 1226.12,-521.02 1226.12,-521.02 1372.62,-521.02 1372.62,-521.02 1378.62,-521.02 1384.62,-527.02 1384.62,-533.02 1384.62,-533.02 1384.62,-630.77 1384.62,-630.77 1384.62,-636.77 1378.62,-642.77 1372.62,-642.77"/>
<text xml:space="preserve" text-anchor="middle" x="1299.38" y="-627.37" font-family="Inter" font-size="12.00" fill="#1f2328">&lt;&lt;provider&gt;&gt;</text>
<text xml:space="preserve" text-anchor="middle" x="1299.38" y="-613.12" font-family="Inter" font-size="12.00" fill="#1f2328">VoidSystemWifiProvider</text>
<text xml:space="preserve" text-anchor="middle" x="1299.38" y="-584.87" font-family="Inter" font-size="12.00" fill="#1f2328">uses:</text>
<text xml:space="preserve" text-anchor="middle" x="1299.38" y="-570.62" font-family="Inter" font-size="12.00" fill="#1f2328">&#45; wpa_supplicant / wpa_cli</text>
<text xml:space="preserve" text-anchor="middle" x="1299.38" y="-556.37" font-family="Inter" font-size="12.00" fill="#1f2328">&#45; dhcpcd</text>
<text xml:space="preserve" text-anchor="middle" x="1299.38" y="-542.12" font-family="Inter" font-size="12.00" fill="#1f2328">&#45; iw / ip</text>
<text xml:space="preserve" text-anchor="middle" x="1299.38" y="-527.87" font-family="Inter" font-size="12.00" fill="#1f2328">&#45; runit / sv</text>
</g>
<!-- EvoWifiCompositionRoot&#45;&gt;VoidSystemWifiProvider -->
<g id="edge2" class="edge">
<title>EvoWifiCompositionRoot&#45;&gt;VoidSystemWifiProvider</title>
<path fill="none" stroke="#59636e" d="M177.11,-1030.96C391.31,-945.18 978.42,-710.04 1206.27,-618.78"/>
<polygon fill="#59636e" stroke="#59636e" points="1206.91,-621.17 1212.49,-616.29 1205.08,-616.62 1206.91,-621.17"/>
<text xml:space="preserve" text-anchor="middle" x="701.25" y="-836.54" font-family="Inter" font-size="11.00" fill="#59636e">creates</text>
</g>
<!-- WifiScanSystemWifiContract -->
<g id="node9" class="node">
<title>WifiScanSystemWifiContract</title>
<path fill="#f6f8fa" stroke="#2f3437" d="M1899,-828.15C1899,-828.15 1738.25,-828.15 1738.25,-828.15 1732.25,-828.15 1726.25,-822.15 1726.25,-816.15 1726.25,-816.15 1726.25,-803.65 1726.25,-803.65 1726.25,-797.65 1732.25,-791.65 1738.25,-791.65 1738.25,-791.65 1899,-791.65 1899,-791.65 1905,-791.65 1911,-797.65 1911,-803.65 1911,-803.65 1911,-816.15 1911,-816.15 1911,-822.15 1905,-828.15 1899,-828.15"/>
<text xml:space="preserve" text-anchor="middle" x="1818.62" y="-812.75" font-family="Inter" font-size="12.00" fill="#1f2328">&lt;&lt;contract / trait&gt;&gt;</text>
<text xml:space="preserve" text-anchor="middle" x="1818.62" y="-798.5" font-family="Inter" font-size="12.00" fill="#1f2328">WifiScanSystemWifiContract</text>
</g>
<!-- WifiStatusSystemWifiContract -->
<g id="node10" class="node">
<title>WifiStatusSystemWifiContract</title>
<path fill="#f6f8fa" stroke="#2f3437" d="M1903.12,-915.15C1903.12,-915.15 1734.12,-915.15 1734.12,-915.15 1728.12,-915.15 1722.12,-909.15 1722.12,-903.15 1722.12,-903.15 1722.12,-890.65 1722.12,-890.65 1722.12,-884.65 1728.12,-878.65 1734.12,-878.65 1734.12,-878.65 1903.12,-878.65 1903.12,-878.65 1909.12,-878.65 1915.12,-884.65 1915.12,-890.65 1915.12,-890.65 1915.12,-903.15 1915.12,-903.15 1915.12,-909.15 1909.12,-915.15 1903.12,-915.15"/>
<text xml:space="preserve" text-anchor="middle" x="1818.62" y="-899.75" font-family="Inter" font-size="12.00" fill="#1f2328">&lt;&lt;contract / trait&gt;&gt;</text>
<text xml:space="preserve" text-anchor="middle" x="1818.62" y="-885.5" font-family="Inter" font-size="12.00" fill="#1f2328">WifiStatusSystemWifiContract</text>
</g>
<!-- WifiConnectSystemWifiContract -->
<g id="node11" class="node">
<title>WifiConnectSystemWifiContract</title>
<path fill="#f6f8fa" stroke="#2f3437" d="M1909.12,-567.15C1909.12,-567.15 1728.12,-567.15 1728.12,-567.15 1722.12,-567.15 1716.12,-561.15 1716.12,-555.15 1716.12,-555.15 1716.12,-542.65 1716.12,-542.65 1716.12,-536.65 1722.12,-530.65 1728.12,-530.65 1728.12,-530.65 1909.12,-530.65 1909.12,-530.65 1915.12,-530.65 1921.12,-536.65 1921.12,-542.65 1921.12,-542.65 1921.12,-555.15 1921.12,-555.15 1921.12,-561.15 1915.12,-567.15 1909.12,-567.15"/>
<text xml:space="preserve" text-anchor="middle" x="1818.62" y="-551.75" font-family="Inter" font-size="12.00" fill="#1f2328">&lt;&lt;contract / trait&gt;&gt;</text>
<text xml:space="preserve" text-anchor="middle" x="1818.62" y="-537.5" font-family="Inter" font-size="12.00" fill="#1f2328">WifiConnectSystemWifiContract</text>
</g>
<!-- WifiSavedNetworkSystemWifiContract -->
<g id="node12" class="node">
<title>WifiSavedNetworkSystemWifiContract</title>
<path fill="#f6f8fa" stroke="#2f3437" d="M1927.88,-480.15C1927.88,-480.15 1709.38,-480.15 1709.38,-480.15 1703.38,-480.15 1697.38,-474.15 1697.38,-468.15 1697.38,-468.15 1697.38,-455.65 1697.38,-455.65 1697.38,-449.65 1703.38,-443.65 1709.38,-443.65 1709.38,-443.65 1927.88,-443.65 1927.88,-443.65 1933.88,-443.65 1939.88,-449.65 1939.88,-455.65 1939.88,-455.65 1939.88,-468.15 1939.88,-468.15 1939.88,-474.15 1933.88,-480.15 1927.88,-480.15"/>
<text xml:space="preserve" text-anchor="middle" x="1818.62" y="-464.75" font-family="Inter" font-size="12.00" fill="#1f2328">&lt;&lt;contract / trait&gt;&gt;</text>
<text xml:space="preserve" text-anchor="middle" x="1818.62" y="-450.5" font-family="Inter" font-size="12.00" fill="#1f2328">WifiSavedNetworkSystemWifiContract</text>
</g>
<!-- WifiSavedSecretSystemWifiContract -->
<g id="node13" class="node">
<title>WifiSavedSecretSystemWifiContract</title>
<path fill="#f6f8fa" stroke="#2f3437" d="M1921.88,-741.15C1921.88,-741.15 1715.38,-741.15 1715.38,-741.15 1709.38,-741.15 1703.38,-735.15 1703.38,-729.15 1703.38,-729.15 1703.38,-716.65 1703.38,-716.65 1703.38,-710.65 1709.38,-704.65 1715.38,-704.65 1715.38,-704.65 1921.88,-704.65 1921.88,-704.65 1927.88,-704.65 1933.88,-710.65 1933.88,-716.65 1933.88,-716.65 1933.88,-729.15 1933.88,-729.15 1933.88,-735.15 1927.88,-741.15 1921.88,-741.15"/>
<text xml:space="preserve" text-anchor="middle" x="1818.62" y="-725.75" font-family="Inter" font-size="12.00" fill="#1f2328">&lt;&lt;contract / trait&gt;&gt;</text>
<text xml:space="preserve" text-anchor="middle" x="1818.62" y="-711.5" font-family="Inter" font-size="12.00" fill="#1f2328">WifiSavedSecretSystemWifiContract</text>
</g>
<!-- WifiForgetSystemWifiContract -->
<g id="node14" class="node">
<title>WifiForgetSystemWifiContract</title>
<path fill="#f6f8fa" stroke="#2f3437" d="M1903.5,-654.15C1903.5,-654.15 1733.75,-654.15 1733.75,-654.15 1727.75,-654.15 1721.75,-648.15 1721.75,-642.15 1721.75,-642.15 1721.75,-629.65 1721.75,-629.65 1721.75,-623.65 1727.75,-617.65 1733.75,-617.65 1733.75,-617.65 1903.5,-617.65 1903.5,-617.65 1909.5,-617.65 1915.5,-623.65 1915.5,-629.65 1915.5,-629.65 1915.5,-642.15 1915.5,-642.15 1915.5,-648.15 1909.5,-654.15 1903.5,-654.15"/>
<text xml:space="preserve" text-anchor="middle" x="1818.62" y="-638.75" font-family="Inter" font-size="12.00" fill="#1f2328">&lt;&lt;contract / trait&gt;&gt;</text>
<text xml:space="preserve" text-anchor="middle" x="1818.62" y="-624.5" font-family="Inter" font-size="12.00" fill="#1f2328">WifiForgetSystemWifiContract</text>
</g>
<!-- WifiInterfaceResolver -->
<g id="node16" class="node">
<title>WifiInterfaceResolver</title>
<path fill="#f6f8fa" stroke="#2f3437" d="M965.5,-1262.15C965.5,-1262.15 789.75,-1262.15 789.75,-1262.15 783.75,-1262.15 777.75,-1256.15 777.75,-1250.15 777.75,-1250.15 777.75,-1237.65 777.75,-1237.65 777.75,-1231.65 783.75,-1225.65 789.75,-1225.65 789.75,-1225.65 965.5,-1225.65 965.5,-1225.65 971.5,-1225.65 977.5,-1231.65 977.5,-1237.65 977.5,-1237.65 977.5,-1250.15 977.5,-1250.15 977.5,-1256.15 971.5,-1262.15 965.5,-1262.15"/>
<text xml:space="preserve" text-anchor="middle" x="877.62" y="-1246.75" font-family="Inter" font-size="12.00" fill="#1f2328">&lt;&lt;resolver&gt;&gt;</text>
<text xml:space="preserve" text-anchor="middle" x="877.62" y="-1232.5" font-family="Inter" font-size="12.00" fill="#1f2328">wifi_interface_resolver::resolve</text>
</g>
<!-- WifiConnectionStatusShower&#45;&gt;WifiInterfaceResolver -->
<g id="edge31" class="edge">
<title>WifiConnectionStatusShower&#45;&gt;WifiInterfaceResolver</title>
<path fill="none" stroke="#59636e" d="M625.11,-1217.41C673.54,-1222.51 725.15,-1227.95 768.95,-1232.56"/>
<polygon fill="#59636e" stroke="#59636e" points="768.59,-1234.98 775.81,-1233.28 769.1,-1230.11 768.59,-1234.98"/>
<text xml:space="preserve" text-anchor="middle" x="701.25" y="-1232.72" font-family="Inter" font-size="11.00" fill="#59636e">pipeline step 1</text>
</g>
<!-- WifiInterfaceResolver&#45;&gt;WifiStatusSystemWifiContract -->
<g id="edge34" class="edge">
<title>WifiInterfaceResolver&#45;&gt;WifiStatusSystemWifiContract</title>
<path fill="none" stroke="#59636e" stroke-dasharray="5,2" d="M953.5,-1225.21C1121.16,-1182.42 1520.86,-1074.74 1633.25,-993.9 1654.9,-978.32 1647.6,-961.46 1669.25,-945.9 1685.51,-934.21 1704.74,-925.19 1723.86,-918.27"/>
<polygon fill="#59636e" stroke="#59636e" points="1724.51,-920.63 1730.32,-916.02 1722.91,-916 1724.51,-920.63"/>
<text xml:space="preserve" text-anchor="middle" x="1299.38" y="-1167.17" font-family="Inter" font-size="11.00" fill="#59636e">uses</text>
</g>
<!-- WifiConnectionStatusResolver -->
<g id="node17" class="node">
<title>WifiConnectionStatusResolver</title>
<path fill="#f6f8fa" stroke="#2f3437" d="M1414.25,-1289.15C1414.25,-1289.15 1184.5,-1289.15 1184.5,-1289.15 1178.5,-1289.15 1172.5,-1283.15 1172.5,-1277.15 1172.5,-1277.15 1172.5,-1264.65 1172.5,-1264.65 1172.5,-1258.65 1178.5,-1252.65 1184.5,-1252.65 1184.5,-1252.65 1414.25,-1252.65 1414.25,-1252.65 1420.25,-1252.65 1426.25,-1258.65 1426.25,-1264.65 1426.25,-1264.65 1426.25,-1277.15 1426.25,-1277.15 1426.25,-1283.15 1420.25,-1289.15 1414.25,-1289.15"/>
<text xml:space="preserve" text-anchor="middle" x="1299.38" y="-1273.75" font-family="Inter" font-size="12.00" fill="#1f2328">&lt;&lt;resolver&gt;&gt;</text>
<text xml:space="preserve" text-anchor="middle" x="1299.38" y="-1259.5" font-family="Inter" font-size="12.00" fill="#1f2328">wifi_connection_status_resolver::resolve</text>
</g>
<!-- WifiInterfaceResolver&#45;&gt;WifiConnectionStatusResolver -->
<g id="edge32" class="edge">
<title>WifiInterfaceResolver&#45;&gt;WifiConnectionStatusResolver</title>
<path fill="none" stroke="#59636e" d="M977.83,-1250.28C1033.4,-1253.85 1103.46,-1258.36 1163.89,-1262.25"/>
<polygon fill="#59636e" stroke="#59636e" points="1163.7,-1264.69 1170.85,-1262.69 1164.02,-1259.8 1163.7,-1264.69"/>
<text xml:space="preserve" text-anchor="middle" x="1075" y="-1262.87" font-family="Inter" font-size="11.00" fill="#59636e">WifiInterfaceView&lt;&#39;a&gt;</text>
</g>
<!-- WifiConnectionStatusResolver&#45;&gt;WifiStatusSystemWifiContract -->
<g id="edge35" class="edge">
<title>WifiConnectionStatusResolver&#45;&gt;WifiStatusSystemWifiContract</title>
<path fill="none" stroke="#59636e" stroke-dasharray="5,2" d="M1367.71,-1252.21C1444.38,-1227.31 1567.48,-1175.61 1633.25,-1085.9 1671.24,-1034.08 1625.37,-992.83 1669.25,-945.9 1681.54,-932.75 1697.42,-923.13 1714.22,-916.08"/>
<polygon fill="#59636e" stroke="#59636e" points="1714.96,-918.42 1720.58,-913.58 1713.16,-913.86 1714.96,-918.42"/>
<text xml:space="preserve" text-anchor="middle" x="1547.75" y="-1217.3" font-family="Inter" font-size="11.00" fill="#59636e">uses</text>
</g>
<!-- WifiConnectionStatusOutputResolver -->
<g id="node18" class="node">
<title>WifiConnectionStatusOutputResolver</title>
<path fill="#f6f8fa" stroke="#2f3437" d="M1956,-1289.15C1956,-1289.15 1681.25,-1289.15 1681.25,-1289.15 1675.25,-1289.15 1669.25,-1283.15 1669.25,-1277.15 1669.25,-1277.15 1669.25,-1264.65 1669.25,-1264.65 1669.25,-1258.65 1675.25,-1252.65 1681.25,-1252.65 1681.25,-1252.65 1956,-1252.65 1956,-1252.65 1962,-1252.65 1968,-1258.65 1968,-1264.65 1968,-1264.65 1968,-1277.15 1968,-1277.15 1968,-1283.15 1962,-1289.15 1956,-1289.15"/>
<text xml:space="preserve" text-anchor="middle" x="1818.62" y="-1273.75" font-family="Inter" font-size="12.00" fill="#1f2328">&lt;&lt;resolver&gt;&gt;</text>
<text xml:space="preserve" text-anchor="middle" x="1818.62" y="-1259.5" font-family="Inter" font-size="12.00" fill="#1f2328">wifi_connection_status_output_resolver::resolve</text>
</g>
<!-- WifiConnectionStatusResolver&#45;&gt;WifiConnectionStatusOutputResolver -->
<g id="edge33" class="edge">
<title>WifiConnectionStatusResolver&#45;&gt;WifiConnectionStatusOutputResolver</title>
<path fill="none" stroke="#59636e" d="M1426.58,-1270.9C1497.13,-1270.9 1585.68,-1270.9 1660.67,-1270.9"/>
<polygon fill="#59636e" stroke="#59636e" points="1660.3,-1273.35 1667.3,-1270.9 1660.3,-1268.45 1660.3,-1273.35"/>
<text xml:space="preserve" text-anchor="middle" x="1547.75" y="-1273.95" font-family="Inter" font-size="11.00" fill="#59636e">WifiConnectionStatusView&lt;&#39;a&gt;</text>
</g>
<!-- WifiConnectionStatusOutputResolver&#45;&gt;WifiStatusRenderPresentationContract -->
<g id="edge36" class="edge">
<title>WifiConnectionStatusOutputResolver&#45;&gt;WifiStatusRenderPresentationContract</title>
<path fill="none" stroke="#59636e" stroke-dasharray="5,2" d="M1836.33,-1289.22C1866.39,-1320.84 1933.09,-1385.02 2004,-1413.9 2048.17,-1431.89 2099.52,-1440.52 2145.57,-1444.37"/>
<polygon fill="#59636e" stroke="#59636e" points="2145.13,-1446.8 2152.3,-1444.9 2145.51,-1441.91 2145.13,-1446.8"/>
<text xml:space="preserve" text-anchor="middle" x="2047.12" y="-1440.46" font-family="Inter" font-size="11.00" fill="#59636e">uses</text>
</g>
<!-- TerminalPresentationProvider&#45;&gt;WifiActionInputPresentationContract -->
<g id="edge1" class="edge">
<title>TerminalPresentationProvider&#45;&gt;WifiActionInputPresentationContract</title>
<path fill="none" stroke="#59636e" d="M1913.41,-1146.68C1936.08,-1140.14 1958.72,-1129.9 1976,-1113.9 2002.56,-1089.29 1981.11,-1065.45 2004,-1037.4 2041.72,-991.17 2063.61,-990.86 2118.25,-966.9 2138.88,-957.85 2161.87,-950.17 2183.73,-943.88"/>
<polygon fill="#59636e" stroke="#59636e" points="2184.2,-946.3 2190.27,-942.04 2182.87,-941.58 2184.2,-946.3"/>
<text xml:space="preserve" text-anchor="middle" x="2047.12" y="-1040.45" font-family="Inter" font-size="11.00" fill="#59636e">implements</text>
</g>
<!-- TerminalPresentationProvider&#45;&gt;WifiNetworkSelectionInputPresentationContract -->
<g id="edge5" class="edge">
<title>TerminalPresentationProvider&#45;&gt;WifiNetworkSelectionInputPresentationContract</title>
<path fill="none" stroke="#59636e" d="M1895.08,-1176.62C1976.86,-1196.91 2107.01,-1229.21 2191.73,-1250.23"/>
<polygon fill="#59636e" stroke="#59636e" points="2190.93,-1252.56 2198.31,-1251.87 2192.11,-1247.8 2190.93,-1252.56"/>
<text xml:space="preserve" text-anchor="middle" x="2047.12" y="-1227.57" font-family="Inter" font-size="11.00" fill="#59636e">implements</text>
</g>
<!-- TerminalPresentationProvider&#45;&gt;WifiPasswordInputPresentationContract -->
<g id="edge6" class="edge">
<title>TerminalPresentationProvider&#45;&gt;WifiPasswordInputPresentationContract</title>
<path fill="none" stroke="#59636e" d="M1913.7,-1163.27C1979.78,-1167.04 2069.09,-1172.14 2142.38,-1176.33"/>
<polygon fill="#59636e" stroke="#59636e" points="2142.15,-1178.77 2149.27,-1176.72 2142.43,-1173.87 2142.15,-1178.77"/>
<text xml:space="preserve" text-anchor="middle" x="2047.12" y="-1176.28" font-family="Inter" font-size="11.00" fill="#59636e">implements</text>
</g>
<!-- TerminalPresentationProvider&#45;&gt;WifiNetworkRenderPresentationContract -->
<g id="edge7" class="edge">
<title>TerminalPresentationProvider&#45;&gt;WifiNetworkRenderPresentationContract</title>
<path fill="none" stroke="#59636e" d="M1913.7,-1145.29C1978.78,-1136.58 2066.39,-1124.84 2139.04,-1115.11"/>
<polygon fill="#59636e" stroke="#59636e" points="2139.25,-1117.55 2145.87,-1114.2 2138.6,-1112.7 2139.25,-1117.55"/>
<text xml:space="preserve" text-anchor="middle" x="2047.12" y="-1135.91" font-family="Inter" font-size="11.00" fill="#59636e">implements</text>
</g>
<!-- TerminalPresentationProvider&#45;&gt;WifiStatusRenderPresentationContract -->
<g id="edge8" class="edge">
<title>TerminalPresentationProvider&#45;&gt;WifiStatusRenderPresentationContract</title>
<path fill="none" stroke="#59636e" d="M1913.72,-1169.88C1936.8,-1176.99 1959.56,-1188.22 1976,-1205.9 2013.89,-1246.63 1971.95,-1282.42 2004,-1327.9 2038.71,-1377.15 2063.26,-1376.27 2118.25,-1400.9 2138.58,-1410 2161.25,-1417.67 2182.9,-1423.93"/>
<polygon fill="#59636e" stroke="#59636e" points="2181.96,-1426.21 2189.36,-1425.76 2183.29,-1421.49 2181.96,-1426.21"/>
<text xml:space="preserve" text-anchor="middle" x="2047.12" y="-1391.62" font-family="Inter" font-size="11.00" fill="#59636e">implements</text>
</g>
<!-- TerminalPresentationProvider&#45;&gt;WifiSecretRenderPresentationContract -->
<g id="edge9" class="edge">
<title>TerminalPresentationProvider&#45;&gt;WifiSecretRenderPresentationContract</title>
<path fill="none" stroke="#59636e" d="M1902.73,-1139.23C1926.86,-1132.56 1952.92,-1124.11 1976,-1113.9 1989.42,-1107.96 1990.83,-1102.88 2004,-1096.4 2062.71,-1067.5 2133.23,-1045.35 2187.62,-1030.7"/>
<polygon fill="#59636e" stroke="#59636e" points="2187.92,-1033.15 2194.06,-1028.98 2186.66,-1028.42 2187.92,-1033.15"/>
<text xml:space="preserve" text-anchor="middle" x="2047.12" y="-1099.45" font-family="Inter" font-size="11.00" fill="#59636e">implements</text>
</g>
<!-- TerminalPresentationProvider&#45;&gt;WifiMessageRenderPresentationContract -->
<g id="edge10" class="edge">
<title>TerminalPresentationProvider&#45;&gt;WifiMessageRenderPresentationContract</title>
<path fill="none" stroke="#59636e" d="M1913.7,-1175.11C1935.6,-1182.16 1957.81,-1192.04 1976,-1205.9 1994.44,-1219.94 1987.16,-1233.97 2004,-1249.9 2046.29,-1289.88 2064.47,-1291.65 2118.25,-1313.9 2139.86,-1322.84 2163.88,-1330.59 2186.49,-1337"/>
<polygon fill="#59636e" stroke="#59636e" points="2185.56,-1339.28 2192.96,-1338.8 2186.88,-1334.56 2185.56,-1339.28"/>
<text xml:space="preserve" text-anchor="middle" x="2047.12" y="-1305.59" font-family="Inter" font-size="11.00" fill="#59636e">implements</text>
</g>
<!-- TuiPresentationProvider -->
<g id="node20" class="node">
<title>TuiPresentationProvider</title>
<path fill="#fff8c5" stroke="#2f3437" d="M1890.38,-1089.15C1890.38,-1089.15 1746.88,-1089.15 1746.88,-1089.15 1740.88,-1089.15 1734.88,-1083.15 1734.88,-1077.15 1734.88,-1077.15 1734.88,-1064.65 1734.88,-1064.65 1734.88,-1058.65 1740.88,-1052.65 1746.88,-1052.65 1746.88,-1052.65 1890.38,-1052.65 1890.38,-1052.65 1896.38,-1052.65 1902.38,-1058.65 1902.38,-1064.65 1902.38,-1064.65 1902.38,-1077.15 1902.38,-1077.15 1902.38,-1083.15 1896.38,-1089.15 1890.38,-1089.15"/>
<text xml:space="preserve" text-anchor="middle" x="1818.62" y="-1073.75" font-family="Inter" font-size="12.00" fill="#1f2328">&lt;&lt;provider candidate&gt;&gt;</text>
<text xml:space="preserve" text-anchor="middle" x="1818.62" y="-1059.5" font-family="Inter" font-size="12.00" fill="#1f2328">TuiPresentationProvider</text>
</g>
<!-- TuiPresentationProvider&#45;&gt;WifiActionInputPresentationContract -->
<g id="edge11" class="edge">
<title>TuiPresentationProvider&#45;&gt;WifiActionInputPresentationContract</title>
<path fill="none" stroke="#59636e" stroke-dasharray="5,2" d="M1902.85,-1064.02C1929.38,-1057.88 1956.8,-1046.77 1976,-1026.9 2012.4,-989.22 1962.79,-944.74 2004,-912.4 2065.06,-864.47 2159.85,-882.62 2219.62,-901.62"/>
<polygon fill="#59636e" stroke="#59636e" points="2218.6,-903.87 2226.01,-903.71 2220.12,-899.21 2218.6,-903.87"/>
<text xml:space="preserve" text-anchor="middle" x="2047.12" y="-915.45" font-family="Inter" font-size="11.00" fill="#59636e">may implement</text>
</g>
<!-- WebPresentationProvider -->
<g id="node21" class="node">
<title>WebPresentationProvider</title>
<path fill="#fff8c5" stroke="#2f3437" d="M1890.38,-1002.15C1890.38,-1002.15 1746.88,-1002.15 1746.88,-1002.15 1740.88,-1002.15 1734.88,-996.15 1734.88,-990.15 1734.88,-990.15 1734.88,-977.65 1734.88,-977.65 1734.88,-971.65 1740.88,-965.65 1746.88,-965.65 1746.88,-965.65 1890.38,-965.65 1890.38,-965.65 1896.38,-965.65 1902.38,-971.65 1902.38,-977.65 1902.38,-977.65 1902.38,-990.15 1902.38,-990.15 1902.38,-996.15 1896.38,-1002.15 1890.38,-1002.15"/>
<text xml:space="preserve" text-anchor="middle" x="1818.62" y="-986.75" font-family="Inter" font-size="12.00" fill="#1f2328">&lt;&lt;provider candidate&gt;&gt;</text>
<text xml:space="preserve" text-anchor="middle" x="1818.62" y="-972.5" font-family="Inter" font-size="12.00" fill="#1f2328">WebPresentationProvider</text>
</g>
<!-- WebPresentationProvider&#45;&gt;WifiActionInputPresentationContract -->
<g id="edge12" class="edge">
<title>WebPresentationProvider&#45;&gt;WifiActionInputPresentationContract</title>
<path fill="none" stroke="#59636e" stroke-dasharray="5,2" d="M1902.54,-989.14C1928.88,-986.61 1956.27,-978.97 1976,-960.9 2015.59,-924.64 1961.87,-876.67 2004,-843.4 2077.8,-785.12 2193.13,-858.79 2246.34,-899.41"/>
<polygon fill="#59636e" stroke="#59636e" points="2244.59,-901.15 2251.62,-903.5 2247.59,-897.27 2244.59,-901.15"/>
<text xml:space="preserve" text-anchor="middle" x="2047.12" y="-846.45" font-family="Inter" font-size="11.00" fill="#59636e">may implement</text>
</g>
<!-- VoidSystemWifiProvider&#45;&gt;WifiScanSystemWifiContract -->
<g id="edge13" class="edge">
<title>VoidSystemWifiProvider&#45;&gt;WifiScanSystemWifiContract</title>
<path fill="none" stroke="#59636e" d="M1385.08,-629.62C1409.55,-642.37 1436.58,-655.48 1462.25,-665.9 1535.79,-695.75 1568.3,-671.77 1633.25,-717.4 1655.22,-732.83 1647.25,-750.51 1669.25,-765.9 1683.86,-776.11 1700.86,-783.99 1718.03,-790.05"/>
<polygon fill="#59636e" stroke="#59636e" points="1717.07,-792.31 1724.49,-792.23 1718.64,-787.67 1717.07,-792.31"/>
<text xml:space="preserve" text-anchor="middle" x="1547.75" y="-720.45" font-family="Inter" font-size="11.00" fill="#59636e">implements</text>
</g>
<!-- VoidSystemWifiProvider&#45;&gt;WifiStatusSystemWifiContract -->
<g id="edge14" class="edge">
<title>VoidSystemWifiProvider&#45;&gt;WifiStatusSystemWifiContract</title>
<path fill="none" stroke="#59636e" d="M1384.83,-626.35C1400.57,-638 1415.45,-651.88 1426.25,-667.9 1468.2,-730.14 1408.21,-780.8 1462.25,-832.9 1528.14,-896.41 1634.45,-908.3 1713.65,-906.79"/>
<polygon fill="#59636e" stroke="#59636e" points="1713.26,-909.25 1720.2,-906.62 1713.14,-904.35 1713.26,-909.25"/>
<text xml:space="preserve" text-anchor="middle" x="1547.75" y="-905.46" font-family="Inter" font-size="11.00" fill="#59636e">implements</text>
</g>
<!-- VoidSystemWifiProvider&#45;&gt;WifiConnectSystemWifiContract -->
<g id="edge15" class="edge">
<title>VoidSystemWifiProvider&#45;&gt;WifiConnectSystemWifiContract</title>
<path fill="none" stroke="#59636e" d="M1385.04,-535.96C1409.28,-525.05 1436.2,-514.96 1462.25,-509.4 1560.16,-488.47 1675.76,-509.59 1747.89,-528.08"/>
<polygon fill="#59636e" stroke="#59636e" points="1747.18,-530.43 1754.57,-529.83 1748.41,-525.69 1747.18,-530.43"/>
<text xml:space="preserve" text-anchor="middle" x="1547.75" y="-512.45" font-family="Inter" font-size="11.00" fill="#59636e">implements</text>
</g>
<!-- VoidSystemWifiProvider&#45;&gt;WifiSavedNetworkSystemWifiContract -->
<g id="edge16" class="edge">
<title>VoidSystemWifiProvider&#45;&gt;WifiSavedNetworkSystemWifiContract</title>
<path fill="none" stroke="#59636e" d="M1374.99,-520.64C1401.04,-502.69 1431.49,-485.25 1462.25,-475.4 1534.86,-452.14 1620.1,-448.18 1688.9,-450.31"/>
<polygon fill="#59636e" stroke="#59636e" points="1688.61,-452.75 1695.69,-450.55 1688.78,-447.86 1688.61,-452.75"/>
<text xml:space="preserve" text-anchor="middle" x="1547.75" y="-478.45" font-family="Inter" font-size="11.00" fill="#59636e">implements</text>
</g>
<!-- VoidSystemWifiProvider&#45;&gt;WifiSavedSecretSystemWifiContract -->
<g id="edge17" class="edge">
<title>VoidSystemWifiProvider&#45;&gt;WifiSavedSecretSystemWifiContract</title>
<path fill="none" stroke="#59636e" d="M1385.12,-593.46C1468.88,-605.79 1590.49,-626.4 1633.25,-647.4 1652.33,-656.77 1650.63,-668.64 1669.25,-678.9 1686.03,-688.14 1704.98,-695.65 1723.58,-701.67"/>
<polygon fill="#59636e" stroke="#59636e" points="1722.67,-703.96 1730.08,-703.71 1724.13,-699.28 1722.67,-703.96"/>
<text xml:space="preserve" text-anchor="middle" x="1547.75" y="-650.45" font-family="Inter" font-size="11.00" fill="#59636e">implements</text>
</g>
<!-- VoidSystemWifiProvider&#45;&gt;WifiForgetSystemWifiContract -->
<g id="edge18" class="edge">
<title>VoidSystemWifiProvider&#45;&gt;WifiForgetSystemWifiContract</title>
<path fill="none" stroke="#59636e" d="M1384.8,-579.73C1409.74,-579.18 1437.09,-578.67 1462.25,-578.4 1538.25,-577.58 1558.47,-564.84 1633.25,-578.4 1650.06,-581.45 1653.05,-586.46 1669.25,-591.9 1693.05,-599.88 1719.25,-607.9 1742.91,-614.86"/>
<polygon fill="#59636e" stroke="#59636e" points="1741.98,-617.14 1749.38,-616.75 1743.35,-612.43 1741.98,-617.14"/>
<text xml:space="preserve" text-anchor="middle" x="1547.75" y="-581.45" font-family="Inter" font-size="11.00" fill="#59636e">implements</text>
</g>
<!-- WpaCli -->
<g id="node27" class="node">
<title>WpaCli</title>
<path fill="#f6f8fa" stroke="#2f3437" d="M1890.75,-393.15C1890.75,-393.15 1746.5,-393.15 1746.5,-393.15 1740.5,-393.15 1734.5,-387.15 1734.5,-381.15 1734.5,-381.15 1734.5,-368.65 1734.5,-368.65 1734.5,-362.65 1740.5,-356.65 1746.5,-356.65 1746.5,-356.65 1890.75,-356.65 1890.75,-356.65 1896.75,-356.65 1902.75,-362.65 1902.75,-368.65 1902.75,-368.65 1902.75,-381.15 1902.75,-381.15 1902.75,-387.15 1896.75,-393.15 1890.75,-393.15"/>
<text xml:space="preserve" text-anchor="middle" x="1818.62" y="-377.75" font-family="Inter" font-size="12.00" fill="#1f2328">&lt;&lt;external command&gt;&gt;</text>
<text xml:space="preserve" text-anchor="middle" x="1818.62" y="-363.5" font-family="Inter" font-size="12.00" fill="#1f2328">wpa_cli</text>
</g>
<!-- VoidSystemWifiProvider&#45;&gt;WpaCli -->
<g id="edge22" class="edge">
<title>VoidSystemWifiProvider&#45;&gt;WpaCli</title>
<path fill="none" stroke="#59636e" d="M1346.48,-520.88C1375.75,-486.76 1416.64,-446.71 1462.25,-424.4 1545.09,-383.87 1650.96,-373.66 1725.53,-372.26"/>
<polygon fill="#59636e" stroke="#59636e" points="1725.53,-374.71 1732.49,-372.16 1725.46,-369.81 1725.53,-374.71"/>
<text xml:space="preserve" text-anchor="middle" x="1547.75" y="-427.45" font-family="Inter" font-size="11.00" fill="#59636e">uses</text>
</g>
<!-- Dhcpcd -->
<g id="node28" class="node">
<title>Dhcpcd</title>
<path fill="#f6f8fa" stroke="#2f3437" d="M2375.12,-139.15C2375.12,-139.15 2176.88,-139.15 2176.88,-139.15 2170.88,-139.15 2164.88,-133.15 2164.88,-127.15 2164.88,-127.15 2164.88,-114.65 2164.88,-114.65 2164.88,-108.65 2170.88,-102.65 2176.88,-102.65 2176.88,-102.65 2375.12,-102.65 2375.12,-102.65 2381.12,-102.65 2387.12,-108.65 2387.12,-114.65 2387.12,-114.65 2387.12,-127.15 2387.12,-127.15 2387.12,-133.15 2381.12,-139.15 2375.12,-139.15"/>
<text xml:space="preserve" text-anchor="middle" x="2276" y="-123.75" font-family="Inter" font-size="12.00" fill="#1f2328">&lt;&lt;external service / command&gt;&gt;</text>
<text xml:space="preserve" text-anchor="middle" x="2276" y="-109.5" font-family="Inter" font-size="12.00" fill="#1f2328">dhcpcd</text>
</g>
<!-- VoidSystemWifiProvider&#45;&gt;Dhcpcd -->
<g id="edge23" class="edge">
<title>VoidSystemWifiProvider&#45;&gt;Dhcpcd</title>
<path fill="none" stroke="#59636e" d="M1302.64,-520.55C1309.9,-418.08 1339.84,-212.59 1462.25,-102.9 1681.47,93.54 2082.92,-42.04 2224.19,-99.03"/>
<polygon fill="#59636e" stroke="#59636e" points="2223.11,-101.24 2230.52,-101.61 2224.96,-96.7 2223.11,-101.24"/>
<text xml:space="preserve" text-anchor="middle" x="1818.62" y="-24.53" font-family="Inter" font-size="11.00" fill="#59636e">uses</text>
</g>
<!-- Iw -->
<g id="node29" class="node">
<title>Iw</title>
<path fill="#f6f8fa" stroke="#2f3437" d="M1890.75,-306.15C1890.75,-306.15 1746.5,-306.15 1746.5,-306.15 1740.5,-306.15 1734.5,-300.15 1734.5,-294.15 1734.5,-294.15 1734.5,-281.65 1734.5,-281.65 1734.5,-275.65 1740.5,-269.65 1746.5,-269.65 1746.5,-269.65 1890.75,-269.65 1890.75,-269.65 1896.75,-269.65 1902.75,-275.65 1902.75,-281.65 1902.75,-281.65 1902.75,-294.15 1902.75,-294.15 1902.75,-300.15 1896.75,-306.15 1890.75,-306.15"/>
<text xml:space="preserve" text-anchor="middle" x="1818.62" y="-290.75" font-family="Inter" font-size="12.00" fill="#1f2328">&lt;&lt;external command&gt;&gt;</text>
<text xml:space="preserve" text-anchor="middle" x="1818.62" y="-276.5" font-family="Inter" font-size="12.00" fill="#1f2328">iw</text>
</g>
<!-- VoidSystemWifiProvider&#45;&gt;Iw -->
<g id="edge24" class="edge">
<title>VoidSystemWifiProvider&#45;&gt;Iw</title>
<path fill="none" stroke="#59636e" d="M1327.2,-520.65C1353.69,-467.71 1399.36,-393.56 1462.25,-353.4 1541.58,-302.73 1649.98,-288.96 1726.14,-286.23"/>
<polygon fill="#59636e" stroke="#59636e" points="1725.9,-288.69 1732.82,-286.03 1725.75,-283.79 1725.9,-288.69"/>
<text xml:space="preserve" text-anchor="middle" x="1547.75" y="-356.45" font-family="Inter" font-size="11.00" fill="#59636e">uses</text>
</g>
<!-- Ip -->
<g id="node30" class="node">
<title>Ip</title>
<path fill="#f6f8fa" stroke="#2f3437" d="M1890.75,-219.15C1890.75,-219.15 1746.5,-219.15 1746.5,-219.15 1740.5,-219.15 1734.5,-213.15 1734.5,-207.15 1734.5,-207.15 1734.5,-194.65 1734.5,-194.65 1734.5,-188.65 1740.5,-182.65 1746.5,-182.65 1746.5,-182.65 1890.75,-182.65 1890.75,-182.65 1896.75,-182.65 1902.75,-188.65 1902.75,-194.65 1902.75,-194.65 1902.75,-207.15 1902.75,-207.15 1902.75,-213.15 1896.75,-219.15 1890.75,-219.15"/>
<text xml:space="preserve" text-anchor="middle" x="1818.62" y="-203.75" font-family="Inter" font-size="12.00" fill="#1f2328">&lt;&lt;external command&gt;&gt;</text>
<text xml:space="preserve" text-anchor="middle" x="1818.62" y="-189.5" font-family="Inter" font-size="12.00" fill="#1f2328">ip</text>
</g>
<!-- VoidSystemWifiProvider&#45;&gt;Ip -->
<g id="edge25" class="edge">
<title>VoidSystemWifiProvider&#45;&gt;Ip</title>
<path fill="none" stroke="#59636e" d="M1314.91,-520.75C1335.26,-449.12 1379.41,-332.37 1462.25,-270.4 1538.26,-213.53 1648.24,-199.57 1725.67,-197.68"/>
<polygon fill="#59636e" stroke="#59636e" points="1725.54,-200.13 1732.49,-197.55 1725.44,-195.24 1725.54,-200.13"/>
<text xml:space="preserve" text-anchor="middle" x="1547.75" y="-273.45" font-family="Inter" font-size="11.00" fill="#59636e">uses</text>
</g>
<!-- Sv -->
<g id="node31" class="node">
<title>Sv</title>
<path fill="#f6f8fa" stroke="#2f3437" d="M1890.75,-132.15C1890.75,-132.15 1746.5,-132.15 1746.5,-132.15 1740.5,-132.15 1734.5,-126.15 1734.5,-120.15 1734.5,-120.15 1734.5,-107.65 1734.5,-107.65 1734.5,-101.65 1740.5,-95.65 1746.5,-95.65 1746.5,-95.65 1890.75,-95.65 1890.75,-95.65 1896.75,-95.65 1902.75,-101.65 1902.75,-107.65 1902.75,-107.65 1902.75,-120.15 1902.75,-120.15 1902.75,-126.15 1896.75,-132.15 1890.75,-132.15"/>
<text xml:space="preserve" text-anchor="middle" x="1818.62" y="-116.75" font-family="Inter" font-size="12.00" fill="#1f2328">&lt;&lt;external command&gt;&gt;</text>
<text xml:space="preserve" text-anchor="middle" x="1818.62" y="-102.5" font-family="Inter" font-size="12.00" fill="#1f2328">sv</text>
</g>
<!-- VoidSystemWifiProvider&#45;&gt;Sv -->
<g id="edge26" class="edge">
<title>VoidSystemWifiProvider&#45;&gt;Sv</title>
<path fill="none" stroke="#59636e" d="M1306.95,-520.72C1319.95,-431.61 1357.46,-267.39 1462.25,-181.4 1536.02,-120.86 1647.43,-108.41 1725.8,-108.28"/>
<polygon fill="#59636e" stroke="#59636e" points="1725.71,-110.73 1732.72,-108.31 1725.73,-105.83 1725.71,-110.73"/>
<text xml:space="preserve" text-anchor="middle" x="1547.75" y="-184.45" font-family="Inter" font-size="11.00" fill="#59636e">uses</text>
</g>
<!-- WindowsSystemWifiProvider -->
<g id="node23" class="node">
<title>WindowsSystemWifiProvider</title>
<path fill="#fff8c5" stroke="#2f3437" d="M1379,-729.15C1379,-729.15 1219.75,-729.15 1219.75,-729.15 1213.75,-729.15 1207.75,-723.15 1207.75,-717.15 1207.75,-717.15 1207.75,-704.65 1207.75,-704.65 1207.75,-698.65 1213.75,-692.65 1219.75,-692.65 1219.75,-692.65 1379,-692.65 1379,-692.65 1385,-692.65 1391,-698.65 1391,-704.65 1391,-704.65 1391,-717.15 1391,-717.15 1391,-723.15 1385,-729.15 1379,-729.15"/>
<text xml:space="preserve" text-anchor="middle" x="1299.38" y="-713.75" font-family="Inter" font-size="12.00" fill="#1f2328">&lt;&lt;provider candidate&gt;&gt;</text>
<text xml:space="preserve" text-anchor="middle" x="1299.38" y="-699.5" font-family="Inter" font-size="12.00" fill="#1f2328">WindowsSystemWifiProvider</text>
</g>
<!-- WindowsSystemWifiProvider&#45;&gt;WifiScanSystemWifiContract -->
<g id="edge19" class="edge">
<title>WindowsSystemWifiProvider&#45;&gt;WifiScanSystemWifiContract</title>
<path fill="none" stroke="#59636e" stroke-dasharray="5,2" d="M1391.36,-728.31C1482.76,-745.81 1623.25,-772.69 1717.7,-790.77"/>
<polygon fill="#59636e" stroke="#59636e" points="1717.02,-793.14 1724.35,-792.05 1717.94,-788.32 1717.02,-793.14"/>
<text xml:space="preserve" text-anchor="middle" x="1547.75" y="-775.23" font-family="Inter" font-size="11.00" fill="#59636e">may implement</text>
</g>
<!-- NetworkManagerSystemWifiProvider -->
<g id="node24" class="node">
<title>NetworkManagerSystemWifiProvider</title>
<path fill="#fff8c5" stroke="#2f3437" d="M1404.5,-903.15C1404.5,-903.15 1194.25,-903.15 1194.25,-903.15 1188.25,-903.15 1182.25,-897.15 1182.25,-891.15 1182.25,-891.15 1182.25,-878.65 1182.25,-878.65 1182.25,-872.65 1188.25,-866.65 1194.25,-866.65 1194.25,-866.65 1404.5,-866.65 1404.5,-866.65 1410.5,-866.65 1416.5,-872.65 1416.5,-878.65 1416.5,-878.65 1416.5,-891.15 1416.5,-891.15 1416.5,-897.15 1410.5,-903.15 1404.5,-903.15"/>
<text xml:space="preserve" text-anchor="middle" x="1299.38" y="-887.75" font-family="Inter" font-size="12.00" fill="#1f2328">&lt;&lt;provider candidate&gt;&gt;</text>
<text xml:space="preserve" text-anchor="middle" x="1299.38" y="-873.5" font-family="Inter" font-size="12.00" fill="#1f2328">NetworkManagerSystemWifiProvider</text>
</g>
<!-- NetworkManagerSystemWifiProvider&#45;&gt;WifiScanSystemWifiContract -->
<g id="edge20" class="edge">
<title>NetworkManagerSystemWifiProvider&#45;&gt;WifiScanSystemWifiContract</title>
<path fill="none" stroke="#59636e" stroke-dasharray="5,2" d="M1330.94,-903.38C1393.4,-938.51 1537.84,-1005.95 1633.25,-941.9 1668.33,-918.34 1637.91,-882.25 1669.25,-853.9 1683.11,-841.36 1700.39,-832.39 1718.22,-825.97"/>
<polygon fill="#59636e" stroke="#59636e" points="1718.6,-828.42 1724.45,-823.85 1717.03,-823.78 1718.6,-828.42"/>
<text xml:space="preserve" text-anchor="middle" x="1547.75" y="-971.48" font-family="Inter" font-size="11.00" fill="#59636e">may implement</text>
</g>
<!-- IwdSystemWifiProvider -->
<g id="node25" class="node">
<title>IwdSystemWifiProvider</title>
<path fill="#fff8c5" stroke="#2f3437" d="M1371.12,-816.15C1371.12,-816.15 1227.62,-816.15 1227.62,-816.15 1221.62,-816.15 1215.62,-810.15 1215.62,-804.15 1215.62,-804.15 1215.62,-791.65 1215.62,-791.65 1215.62,-785.65 1221.62,-779.65 1227.62,-779.65 1227.62,-779.65 1371.12,-779.65 1371.12,-779.65 1377.12,-779.65 1383.12,-785.65 1383.12,-791.65 1383.12,-791.65 1383.12,-804.15 1383.12,-804.15 1383.12,-810.15 1377.12,-816.15 1371.12,-816.15"/>
<text xml:space="preserve" text-anchor="middle" x="1299.38" y="-800.75" font-family="Inter" font-size="12.00" fill="#1f2328">&lt;&lt;provider candidate&gt;&gt;</text>
<text xml:space="preserve" text-anchor="middle" x="1299.38" y="-786.5" font-family="Inter" font-size="12.00" fill="#1f2328">IwdSystemWifiProvider</text>
</g>
<!-- IwdSystemWifiProvider&#45;&gt;WifiScanSystemWifiContract -->
<g id="edge21" class="edge">
<title>IwdSystemWifiProvider&#45;&gt;WifiScanSystemWifiContract</title>
<path fill="none" stroke="#59636e" stroke-dasharray="5,2" d="M1383.55,-801.3C1408.82,-802.25 1436.67,-803.21 1462.25,-803.9 1548.52,-806.22 1646.6,-807.8 1717.83,-808.75"/>
<polygon fill="#59636e" stroke="#59636e" points="1717.4,-811.19 1724.43,-808.84 1717.46,-806.29 1717.4,-811.19"/>
<text xml:space="preserve" text-anchor="middle" x="1547.75" y="-810.45" font-family="Inter" font-size="11.00" fill="#59636e">may implement</text>
</g>
<!-- WpaSupplicant -->
<g id="node26" class="node">
<title>WpaSupplicant</title>
<path fill="#f6f8fa" stroke="#2f3437" d="M2339.12,-321.15C2339.12,-321.15 2212.88,-321.15 2212.88,-321.15 2206.88,-321.15 2200.88,-315.15 2200.88,-309.15 2200.88,-309.15 2200.88,-296.65 2200.88,-296.65 2200.88,-290.65 2206.88,-284.65 2212.88,-284.65 2212.88,-284.65 2339.12,-284.65 2339.12,-284.65 2345.12,-284.65 2351.12,-290.65 2351.12,-296.65 2351.12,-296.65 2351.12,-309.15 2351.12,-309.15 2351.12,-315.15 2345.12,-321.15 2339.12,-321.15"/>
<text xml:space="preserve" text-anchor="middle" x="2276" y="-305.75" font-family="Inter" font-size="12.00" fill="#1f2328">&lt;&lt;external service&gt;&gt;</text>
<text xml:space="preserve" text-anchor="middle" x="2276" y="-291.5" font-family="Inter" font-size="12.00" fill="#1f2328">wpa_supplicant</text>
</g>
<!-- WpaCli&#45;&gt;WpaSupplicant -->
<g id="edge27" class="edge">
<title>WpaCli&#45;&gt;WpaSupplicant</title>
<path fill="none" stroke="#59636e" d="M1903.15,-361.69C1985.44,-348.68 2110.41,-328.92 2192.39,-315.96"/>
<polygon fill="#59636e" stroke="#59636e" points="2192.65,-318.4 2199.18,-314.89 2191.88,-313.56 2192.65,-318.4"/>
<text xml:space="preserve" text-anchor="middle" x="2047.12" y="-348.4" font-family="Inter" font-size="11.00" fill="#59636e">controls</text>
</g>
<!-- Sv&#45;&gt;WpaSupplicant -->
<g id="edge29" class="edge">
<title>Sv&#45;&gt;WpaSupplicant</title>
<path fill="none" stroke="#59636e" stroke-dasharray="5,2" d="M1903.17,-126.08C1928.24,-132.6 1954.7,-142.59 1976,-157.9 1993.92,-170.77 1987.47,-184.28 2004,-198.9 2046.81,-236.76 2065.14,-236.8 2118.25,-257.9 2141.89,-267.29 2168.24,-275.63 2192.49,-282.5"/>
<polygon fill="#59636e" stroke="#59636e" points="2191.77,-284.84 2199.17,-284.37 2193.09,-280.13 2191.77,-284.84"/>
<text xml:space="preserve" text-anchor="middle" x="2047.12" y="-250.34" font-family="Inter" font-size="11.00" fill="#59636e">manages</text>
</g>
<!-- Sv&#45;&gt;Dhcpcd -->
<g id="edge30" class="edge">
<title>Sv&#45;&gt;Dhcpcd</title>
<path fill="none" stroke="#59636e" stroke-dasharray="5,2" d="M1903.15,-115.18C1974.14,-116.27 2076.91,-117.85 2156.42,-119.07"/>
<polygon fill="#59636e" stroke="#59636e" points="2155.98,-121.52 2163.02,-119.18 2156.06,-116.62 2155.98,-121.52"/>
<text xml:space="preserve" text-anchor="middle" x="2047.12" y="-121.07" font-family="Inter" font-size="11.00" fill="#59636e">manages</text>
</g>
<!-- Runit -->
<g id="node32" class="node">
<title>Runit</title>
<path fill="#f6f8fa" stroke="#2f3437" d="M2368.38,-233.15C2368.38,-233.15 2183.62,-233.15 2183.62,-233.15 2177.62,-233.15 2171.62,-227.15 2171.62,-221.15 2171.62,-221.15 2171.62,-208.65 2171.62,-208.65 2171.62,-202.65 2177.62,-196.65 2183.62,-196.65 2183.62,-196.65 2368.38,-196.65 2368.38,-196.65 2374.38,-196.65 2380.38,-202.65 2380.38,-208.65 2380.38,-208.65 2380.38,-221.15 2380.38,-221.15 2380.38,-227.15 2374.38,-233.15 2368.38,-233.15"/>
<text xml:space="preserve" text-anchor="middle" x="2276" y="-217.75" font-family="Inter" font-size="12.00" fill="#1f2328">&lt;&lt;external service manager&gt;&gt;</text>
<text xml:space="preserve" text-anchor="middle" x="2276" y="-203.5" font-family="Inter" font-size="12.00" fill="#1f2328">runit</text>
</g>
<!-- Sv&#45;&gt;Runit -->
<g id="edge28" class="edge">
<title>Sv&#45;&gt;Runit</title>
<path fill="none" stroke="#59636e" d="M1903.15,-132.42C1982.09,-149.93 2100.3,-176.15 2182.16,-194.31"/>
<polygon fill="#59636e" stroke="#59636e" points="2181.62,-196.7 2188.99,-195.82 2182.68,-191.91 2181.62,-196.7"/>
<text xml:space="preserve" text-anchor="middle" x="2047.12" y="-176.49" font-family="Inter" font-size="11.00" fill="#59636e">talks to</text>
</g>
</g>
</svg>
