<?xml version="1.0" encoding="UTF-8" standalone="no"?>
<!DOCTYPE svg PUBLIC "-//W3C//DTD SVG 1.1//EN"
 "http://www.w3.org/Graphics/SVG/1.1/DTD/svg11.dtd">
<!-- Generated by graphviz version 14.1.5 (0)
 -->
<!-- Title: WifiComponentDiagram Pages: 1 -->
<svg width="2225pt" height="1586pt"
 viewBox="0.00 0.00 2225.00 1586.00" xmlns="http://www.w3.org/2000/svg" xmlns:xlink="http://www.w3.org/1999/xlink">
<g id="graph0" class="graph" transform="scale(1 1) rotate(0) translate(28.8 1556.92)">
<title>WifiComponentDiagram</title>
<text xml:space="preserve" text-anchor="middle" x="1083.5" y="-1508.92" font-family="Inter" font-size="16.00">WiFi Component Diagram: Contracts and Providers</text>
<g id="clust1" class="cluster">
<title>cluster_presentation_contracts</title>
<path fill="none" stroke="#8c959f" d="M1855.5,-892.62C1855.5,-892.62 2147,-892.62 2147,-892.62 2153,-892.62 2159,-898.62 2159,-904.62 2159,-904.62 2159,-1480.62 2159,-1480.62 2159,-1486.62 2153,-1492.62 2147,-1492.62 2147,-1492.62 1855.5,-1492.62 1855.5,-1492.62 1849.5,-1492.62 1843.5,-1486.62 1843.5,-1480.62 1843.5,-1480.62 1843.5,-904.62 1843.5,-904.62 1843.5,-898.62 1849.5,-892.62 1855.5,-892.62"/>
<text xml:space="preserve" text-anchor="middle" x="2001.25" y="-1475.32" font-family="Inter" font-size="14.00">Presentation Contracts</text>
</g>
<g id="clust2" class="cluster">
<title>cluster_system_wifi_contracts</title>
<path fill="none" stroke="#8c959f" d="M1426.62,-431.62C1426.62,-431.62 1661.12,-431.62 1661.12,-431.62 1667.12,-431.62 1673.12,-437.62 1673.12,-443.62 1673.12,-443.62 1673.12,-932.62 1673.12,-932.62 1673.12,-938.62 1667.12,-944.62 1661.12,-944.62 1661.12,-944.62 1426.62,-944.62 1426.62,-944.62 1420.62,-944.62 1414.62,-938.62 1414.62,-932.62 1414.62,-932.62 1414.62,-443.62 1414.62,-443.62 1414.62,-437.62 1420.62,-431.62 1426.62,-431.62"/>
<text xml:space="preserve" text-anchor="middle" x="1543.88" y="-927.32" font-family="Inter" font-size="14.00">System WiFi Contracts</text>
</g>
<g id="clust3" class="cluster">
<title>cluster_agent_subjects</title>
<path fill="none" stroke="#8c959f" d="M20,-1226.62C20,-1226.62 346,-1226.62 346,-1226.62 352,-1226.62 358,-1232.62 358,-1238.62 358,-1238.62 358,-1292.62 358,-1292.62 358,-1298.62 352,-1304.62 346,-1304.62 346,-1304.62 20,-1304.62 20,-1304.62 14,-1304.62 8,-1298.62 8,-1292.62 8,-1292.62 8,-1238.62 8,-1238.62 8,-1232.62 14,-1226.62 20,-1226.62"/>
<text xml:space="preserve" text-anchor="middle" x="183" y="-1287.32" font-family="Inter" font-size="14.00">Agent Subjects</text>
</g>
<g id="clust4" class="cluster">
<title>cluster_resolvers</title>
<path fill="none" stroke="#8c959f" d="M507,-1213.62C507,-1213.62 1689.25,-1213.62 1689.25,-1213.62 1695.25,-1213.62 1701.25,-1219.62 1701.25,-1225.62 1701.25,-1225.62 1701.25,-1306.62 1701.25,-1306.62 1701.25,-1312.62 1695.25,-1318.62 1689.25,-1318.62 1689.25,-1318.62 507,-1318.62 507,-1318.62 501,-1318.62 495,-1312.62 495,-1306.62 495,-1306.62 495,-1225.62 495,-1225.62 495,-1219.62 501,-1213.62 507,-1213.62"/>
<text xml:space="preserve" text-anchor="middle" x="1098.12" y="-1301.32" font-family="Inter" font-size="14.00">Resolvers</text>
</g>
<g id="clust5" class="cluster">
<title>cluster_presentation_providers</title>
<path fill="none" stroke="#8c959f" d="M1453.25,-953.62C1453.25,-953.62 1634.5,-953.62 1634.5,-953.62 1640.5,-953.62 1646.5,-959.62 1646.5,-965.62 1646.5,-965.62 1646.5,-1193.62 1646.5,-1193.62 1646.5,-1199.62 1640.5,-1205.62 1634.5,-1205.62 1634.5,-1205.62 1453.25,-1205.62 1453.25,-1205.62 1447.25,-1205.62 1441.25,-1199.62 1441.25,-1193.62 1441.25,-1193.62 1441.25,-965.62 1441.25,-965.62 1441.25,-959.62 1447.25,-953.62 1453.25,-953.62"/>
<text xml:space="preserve" text-anchor="middle" x="1543.88" y="-1188.32" font-family="Inter" font-size="14.00">Presentation Providers</text>
</g>
<g id="clust6" class="cluster">
<title>cluster_system_wifi_providers</title>
<path fill="none" stroke="#8c959f" d="M911.5,-468.62C911.5,-468.62 1137.75,-468.62 1137.75,-468.62 1143.75,-468.62 1149.75,-474.62 1149.75,-480.62 1149.75,-480.62 1149.75,-880.62 1149.75,-880.62 1149.75,-886.62 1143.75,-892.62 1137.75,-892.62 1137.75,-892.62 911.5,-892.62 911.5,-892.62 905.5,-892.62 899.5,-886.62 899.5,-880.62 899.5,-880.62 899.5,-480.62 899.5,-480.62 899.5,-474.62 905.5,-468.62 911.5,-468.62"/>
<text xml:space="preserve" text-anchor="middle" x="1024.62" y="-875.32" font-family="Inter" font-size="14.00">System WiFi Providers</text>
</g>
<g id="clust7" class="cluster">
<title>cluster_void_external_components</title>
<path fill="none" stroke="#8c959f" d="M1463.75,-83.62C1463.75,-83.62 2108.38,-83.62 2108.38,-83.62 2114.38,-83.62 2120.38,-89.62 2120.38,-95.62 2120.38,-95.62 2120.38,-410.62 2120.38,-410.62 2120.38,-416.62 2114.38,-422.62 2108.38,-422.62 2108.38,-422.62 1463.75,-422.62 1463.75,-422.62 1457.75,-422.62 1451.75,-416.62 1451.75,-410.62 1451.75,-410.62 1451.75,-95.62 1451.75,-95.62 1451.75,-89.62 1457.75,-83.62 1463.75,-83.62"/>
<text xml:space="preserve" text-anchor="middle" x="1786.06" y="-405.32" font-family="Inter" font-size="14.00">Void External Components</text>
</g>
<!-- WifiActionInputPresentationContract -->
<g id="node1" class="node">
<title>WifiActionInputPresentationContract</title>
<path fill="#f6f8fa" stroke="#2f3437" d="M2105.25,-936.87C2105.25,-936.87 1897.25,-936.87 1897.25,-936.87 1891.25,-936.87 1885.25,-930.87 1885.25,-924.87 1885.25,-924.87 1885.25,-912.37 1885.25,-912.37 1885.25,-906.37 1891.25,-900.37 1897.25,-900.37 1897.25,-900.37 2105.25,-900.37 2105.25,-900.37 2111.25,-900.37 2117.25,-906.37 2117.25,-912.37 2117.25,-912.37 2117.25,-924.87 2117.25,-924.87 2117.25,-930.87 2111.25,-936.87 2105.25,-936.87"/>
<text xml:space="preserve" text-anchor="middle" x="2001.25" y="-921.47" font-family="Inter" font-size="12.00" fill="#1f2328">&lt;&lt;contract / trait&gt;&gt;</text>
<text xml:space="preserve" text-anchor="middle" x="2001.25" y="-907.22" font-family="Inter" font-size="12.00" fill="#1f2328">WifiActionInputPresentationContract</text>
</g>
<!-- WifiNetworkSelectionInputPresentationContract -->
<g id="node2" class="node">
<title>WifiNetworkSelectionInputPresentationContract</title>
<path fill="#f6f8fa" stroke="#2f3437" d="M2139,-1284.87C2139,-1284.87 1863.5,-1284.87 1863.5,-1284.87 1857.5,-1284.87 1851.5,-1278.87 1851.5,-1272.87 1851.5,-1272.87 1851.5,-1260.37 1851.5,-1260.37 1851.5,-1254.37 1857.5,-1248.37 1863.5,-1248.37 1863.5,-1248.37 2139,-1248.37 2139,-1248.37 2145,-1248.37 2151,-1254.37 2151,-1260.37 2151,-1260.37 2151,-1272.87 2151,-1272.87 2151,-1278.87 2145,-1284.87 2139,-1284.87"/>
<text xml:space="preserve" text-anchor="middle" x="2001.25" y="-1269.47" font-family="Inter" font-size="12.00" fill="#1f2328">&lt;&lt;contract / trait&gt;&gt;</text>
<text xml:space="preserve" text-anchor="middle" x="2001.25" y="-1255.22" font-family="Inter" font-size="12.00" fill="#1f2328">WifiNetworkSelectionInputPresentationContract</text>
</g>
<!-- WifiPasswordInputPresentationContract -->
<g id="node3" class="node">
<title>WifiPasswordInputPresentationContract</title>
<path fill="#f6f8fa" stroke="#2f3437" d="M2114.25,-1197.87C2114.25,-1197.87 1888.25,-1197.87 1888.25,-1197.87 1882.25,-1197.87 1876.25,-1191.87 1876.25,-1185.87 1876.25,-1185.87 1876.25,-1173.37 1876.25,-1173.37 1876.25,-1167.37 1882.25,-1161.37 1888.25,-1161.37 1888.25,-1161.37 2114.25,-1161.37 2114.25,-1161.37 2120.25,-1161.37 2126.25,-1167.37 2126.25,-1173.37 2126.25,-1173.37 2126.25,-1185.87 2126.25,-1185.87 2126.25,-1191.87 2120.25,-1197.87 2114.25,-1197.87"/>
<text xml:space="preserve" text-anchor="middle" x="2001.25" y="-1182.47" font-family="Inter" font-size="12.00" fill="#1f2328">&lt;&lt;contract / trait&gt;&gt;</text>
<text xml:space="preserve" text-anchor="middle" x="2001.25" y="-1168.22" font-family="Inter" font-size="12.00" fill="#1f2328">WifiPasswordInputPresentationContract</text>
</g>
<!-- WifiNetworkRenderPresentationContract -->
<g id="node4" class="node">
<title>WifiNetworkRenderPresentationContract</title>
<path fill="#f6f8fa" stroke="#2f3437" d="M2117.62,-1110.87C2117.62,-1110.87 1884.88,-1110.87 1884.88,-1110.87 1878.88,-1110.87 1872.88,-1104.87 1872.88,-1098.87 1872.88,-1098.87 1872.88,-1086.37 1872.88,-1086.37 1872.88,-1080.37 1878.88,-1074.37 1884.88,-1074.37 1884.88,-1074.37 2117.62,-1074.37 2117.62,-1074.37 2123.62,-1074.37 2129.62,-1080.37 2129.62,-1086.37 2129.62,-1086.37 2129.62,-1098.87 2129.62,-1098.87 2129.62,-1104.87 2123.62,-1110.87 2117.62,-1110.87"/>
<text xml:space="preserve" text-anchor="middle" x="2001.25" y="-1095.47" font-family="Inter" font-size="12.00" fill="#1f2328">&lt;&lt;contract / trait&gt;&gt;</text>
<text xml:space="preserve" text-anchor="middle" x="2001.25" y="-1081.22" font-family="Inter" font-size="12.00" fill="#1f2328">WifiNetworkRenderPresentationContract</text>
</g>
<!-- WifiStatusRenderPresentationContract -->
<g id="node5" class="node">
<title>WifiStatusRenderPresentationContract</title>
<path fill="#f6f8fa" stroke="#2f3437" d="M2111.25,-1458.87C2111.25,-1458.87 1891.25,-1458.87 1891.25,-1458.87 1885.25,-1458.87 1879.25,-1452.87 1879.25,-1446.87 1879.25,-1446.87 1879.25,-1434.37 1879.25,-1434.37 1879.25,-1428.37 1885.25,-1422.37 1891.25,-1422.37 1891.25,-1422.37 2111.25,-1422.37 2111.25,-1422.37 2117.25,-1422.37 2123.25,-1428.37 2123.25,-1434.37 2123.25,-1434.37 2123.25,-1446.87 2123.25,-1446.87 2123.25,-1452.87 2117.25,-1458.87 2111.25,-1458.87"/>
<text xml:space="preserve" text-anchor="middle" x="2001.25" y="-1443.47" font-family="Inter" font-size="12.00" fill="#1f2328">&lt;&lt;contract / trait&gt;&gt;</text>
<text xml:space="preserve" text-anchor="middle" x="2001.25" y="-1429.22" font-family="Inter" font-size="12.00" fill="#1f2328">WifiStatusRenderPresentationContract</text>
</g>
<!-- WifiSecretRenderPresentationContract -->
<g id="node6" class="node">
<title>WifiSecretRenderPresentationContract</title>
<path fill="#f6f8fa" stroke="#2f3437" d="M2111.62,-1023.87C2111.62,-1023.87 1890.88,-1023.87 1890.88,-1023.87 1884.88,-1023.87 1878.88,-1017.87 1878.88,-1011.87 1878.88,-1011.87 1878.88,-999.37 1878.88,-999.37 1878.88,-993.37 1884.88,-987.37 1890.88,-987.37 1890.88,-987.37 2111.62,-987.37 2111.62,-987.37 2117.62,-987.37 2123.62,-993.37 2123.62,-999.37 2123.62,-999.37 2123.62,-1011.87 2123.62,-1011.87 2123.62,-1017.87 2117.62,-1023.87 2111.62,-1023.87"/>
<text xml:space="preserve" text-anchor="middle" x="2001.25" y="-1008.47" font-family="Inter" font-size="12.00" fill="#1f2328">&lt;&lt;contract / trait&gt;&gt;</text>
<text xml:space="preserve" text-anchor="middle" x="2001.25" y="-994.22" font-family="Inter" font-size="12.00" fill="#1f2328">WifiSecretRenderPresentationContract</text>
</g>
<!-- WifiMessageRenderPresentationContract -->
<g id="node7" class="node">
<title>WifiMessageRenderPresentationContract</title>
<path fill="#f6f8fa" stroke="#2f3437" d="M2118.75,-1371.87C2118.75,-1371.87 1883.75,-1371.87 1883.75,-1371.87 1877.75,-1371.87 1871.75,-1365.87 1871.75,-1359.87 1871.75,-1359.87 1871.75,-1347.37 1871.75,-1347.37 1871.75,-1341.37 1877.75,-1335.37 1883.75,-1335.37 1883.75,-1335.37 2118.75,-1335.37 2118.75,-1335.37 2124.75,-1335.37 2130.75,-1341.37 2130.75,-1347.37 2130.75,-1347.37 2130.75,-1359.87 2130.75,-1359.87 2130.75,-1365.87 2124.75,-1371.87 2118.75,-1371.87"/>
<text xml:space="preserve" text-anchor="middle" x="2001.25" y="-1356.47" font-family="Inter" font-size="12.00" fill="#1f2328">&lt;&lt;contract / trait&gt;&gt;</text>
<text xml:space="preserve" text-anchor="middle" x="2001.25" y="-1342.22" font-family="Inter" font-size="12.00" fill="#1f2328">WifiMessageRenderPresentationContract</text>
</g>
<!-- WifiScanSystemWifiContract -->
<g id="node8" class="node">
<title>WifiScanSystemWifiContract</title>
<path fill="#f6f8fa" stroke="#2f3437" d="M1624.25,-823.87C1624.25,-823.87 1463.5,-823.87 1463.5,-823.87 1457.5,-823.87 1451.5,-817.87 1451.5,-811.87 1451.5,-811.87 1451.5,-799.37 1451.5,-799.37 1451.5,-793.37 1457.5,-787.37 1463.5,-787.37 1463.5,-787.37 1624.25,-787.37 1624.25,-787.37 1630.25,-787.37 1636.25,-793.37 1636.25,-799.37 1636.25,-799.37 1636.25,-811.87 1636.25,-811.87 1636.25,-817.87 1630.25,-823.87 1624.25,-823.87"/>
<text xml:space="preserve" text-anchor="middle" x="1543.88" y="-808.47" font-family="Inter" font-size="12.00" fill="#1f2328">&lt;&lt;contract / trait&gt;&gt;</text>
<text xml:space="preserve" text-anchor="middle" x="1543.88" y="-794.22" font-family="Inter" font-size="12.00" fill="#1f2328">WifiScanSystemWifiContract</text>
</g>
<!-- WifiStatusSystemWifiContract -->
<g id="node9" class="node">
<title>WifiStatusSystemWifiContract</title>
<path fill="#f6f8fa" stroke="#2f3437" d="M1628.38,-910.87C1628.38,-910.87 1459.38,-910.87 1459.38,-910.87 1453.38,-910.87 1447.38,-904.87 1447.38,-898.87 1447.38,-898.87 1447.38,-886.37 1447.38,-886.37 1447.38,-880.37 1453.38,-874.37 1459.38,-874.37 1459.38,-874.37 1628.38,-874.37 1628.38,-874.37 1634.38,-874.37 1640.38,-880.37 1640.38,-886.37 1640.38,-886.37 1640.38,-898.87 1640.38,-898.87 1640.38,-904.87 1634.38,-910.87 1628.38,-910.87"/>
<text xml:space="preserve" text-anchor="middle" x="1543.88" y="-895.47" font-family="Inter" font-size="12.00" fill="#1f2328">&lt;&lt;contract / trait&gt;&gt;</text>
<text xml:space="preserve" text-anchor="middle" x="1543.88" y="-881.22" font-family="Inter" font-size="12.00" fill="#1f2328">WifiStatusSystemWifiContract</text>
</g>
<!-- WifiConnectSystemWifiContract -->
<g id="node10" class="node">
<title>WifiConnectSystemWifiContract</title>
<path fill="#f6f8fa" stroke="#2f3437" d="M1634.38,-475.87C1634.38,-475.87 1453.38,-475.87 1453.38,-475.87 1447.38,-475.87 1441.38,-469.87 1441.38,-463.87 1441.38,-463.87 1441.38,-451.37 1441.38,-451.37 1441.38,-445.37 1447.38,-439.37 1453.38,-439.37 1453.38,-439.37 1634.38,-439.37 1634.38,-439.37 1640.38,-439.37 1646.38,-445.37 1646.38,-451.37 1646.38,-451.37 1646.38,-463.87 1646.38,-463.87 1646.38,-469.87 1640.38,-475.87 1634.38,-475.87"/>
<text xml:space="preserve" text-anchor="middle" x="1543.88" y="-460.47" font-family="Inter" font-size="12.00" fill="#1f2328">&lt;&lt;contract / trait&gt;&gt;</text>
<text xml:space="preserve" text-anchor="middle" x="1543.88" y="-446.22" font-family="Inter" font-size="12.00" fill="#1f2328">WifiConnectSystemWifiContract</text>
</g>
<!-- WifiSavedNetworkSystemWifiContract -->
<g id="node11" class="node">
<title>WifiSavedNetworkSystemWifiContract</title>
<path fill="#f6f8fa" stroke="#2f3437" d="M1653.12,-736.87C1653.12,-736.87 1434.62,-736.87 1434.62,-736.87 1428.62,-736.87 1422.62,-730.87 1422.62,-724.87 1422.62,-724.87 1422.62,-712.37 1422.62,-712.37 1422.62,-706.37 1428.62,-700.37 1434.62,-700.37 1434.62,-700.37 1653.12,-700.37 1653.12,-700.37 1659.12,-700.37 1665.12,-706.37 1665.12,-712.37 1665.12,-712.37 1665.12,-724.87 1665.12,-724.87 1665.12,-730.87 1659.12,-736.87 1653.12,-736.87"/>
<text xml:space="preserve" text-anchor="middle" x="1543.88" y="-721.47" font-family="Inter" font-size="12.00" fill="#1f2328">&lt;&lt;contract / trait&gt;&gt;</text>
<text xml:space="preserve" text-anchor="middle" x="1543.88" y="-707.22" font-family="Inter" font-size="12.00" fill="#1f2328">WifiSavedNetworkSystemWifiContract</text>
</g>
<!-- WifiSavedSecretSystemWifiContract -->
<g id="node12" class="node">
<title>WifiSavedSecretSystemWifiContract</title>
<path fill="#f6f8fa" stroke="#2f3437" d="M1647.12,-649.87C1647.12,-649.87 1440.62,-649.87 1440.62,-649.87 1434.62,-649.87 1428.62,-643.87 1428.62,-637.87 1428.62,-637.87 1428.62,-625.37 1428.62,-625.37 1428.62,-619.37 1434.62,-613.37 1440.62,-613.37 1440.62,-613.37 1647.12,-613.37 1647.12,-613.37 1653.12,-613.37 1659.12,-619.37 1659.12,-625.37 1659.12,-625.37 1659.12,-637.87 1659.12,-637.87 1659.12,-643.87 1653.12,-649.87 1647.12,-649.87"/>
<text xml:space="preserve" text-anchor="middle" x="1543.88" y="-634.47" font-family="Inter" font-size="12.00" fill="#1f2328">&lt;&lt;contract / trait&gt;&gt;</text>
<text xml:space="preserve" text-anchor="middle" x="1543.88" y="-620.22" font-family="Inter" font-size="12.00" fill="#1f2328">WifiSavedSecretSystemWifiContract</text>
</g>
<!-- WifiForgetSystemWifiContract -->
<g id="node13" class="node">
<title>WifiForgetSystemWifiContract</title>
<path fill="#f6f8fa" stroke="#2f3437" d="M1628.75,-562.87C1628.75,-562.87 1459,-562.87 1459,-562.87 1453,-562.87 1447,-556.87 1447,-550.87 1447,-550.87 1447,-538.37 1447,-538.37 1447,-532.37 1453,-526.37 1459,-526.37 1459,-526.37 1628.75,-526.37 1628.75,-526.37 1634.75,-526.37 1640.75,-532.37 1640.75,-538.37 1640.75,-538.37 1640.75,-550.87 1640.75,-550.87 1640.75,-556.87 1634.75,-562.87 1628.75,-562.87"/>
<text xml:space="preserve" text-anchor="middle" x="1543.88" y="-547.47" font-family="Inter" font-size="12.00" fill="#1f2328">&lt;&lt;contract / trait&gt;&gt;</text>
<text xml:space="preserve" text-anchor="middle" x="1543.88" y="-533.22" font-family="Inter" font-size="12.00" fill="#1f2328">WifiForgetSystemWifiContract</text>
</g>
<!-- WifiConnectionStatusShower -->
<g id="node14" class="node">
<title>WifiConnectionStatusShower</title>
<path fill="#ddf4ff" stroke="#2f3437" d="M338,-1270.87C338,-1270.87 28,-1270.87 28,-1270.87 22,-1270.87 16,-1264.87 16,-1258.87 16,-1258.87 16,-1246.37 16,-1246.37 16,-1240.37 22,-1234.37 28,-1234.37 28,-1234.37 338,-1234.37 338,-1234.37 344,-1234.37 350,-1240.37 350,-1246.37 350,-1246.37 350,-1258.87 350,-1258.87 350,-1264.87 344,-1270.87 338,-1270.87"/>
<text xml:space="preserve" text-anchor="middle" x="183" y="-1255.47" font-family="Inter" font-size="12.00" fill="#1f2328">&lt;&lt;agent_subject&gt;&gt;</text>
<text xml:space="preserve" text-anchor="middle" x="183" y="-1241.22" font-family="Inter" font-size="12.00" fill="#1f2328">agent_subjects::wifi_connection_status_shower::show</text>
</g>
<!-- WifiInterfaceResolver -->
<g id="node15" class="node">
<title>WifiInterfaceResolver</title>
<path fill="#f6f8fa" stroke="#2f3437" d="M690.75,-1270.87C690.75,-1270.87 515,-1270.87 515,-1270.87 509,-1270.87 503,-1264.87 503,-1258.87 503,-1258.87 503,-1246.37 503,-1246.37 503,-1240.37 509,-1234.37 515,-1234.37 515,-1234.37 690.75,-1234.37 690.75,-1234.37 696.75,-1234.37 702.75,-1240.37 702.75,-1246.37 702.75,-1246.37 702.75,-1258.87 702.75,-1258.87 702.75,-1264.87 696.75,-1270.87 690.75,-1270.87"/>
<text xml:space="preserve" text-anchor="middle" x="602.88" y="-1255.47" font-family="Inter" font-size="12.00" fill="#1f2328">&lt;&lt;resolver&gt;&gt;</text>
<text xml:space="preserve" text-anchor="middle" x="602.88" y="-1241.22" font-family="Inter" font-size="12.00" fill="#1f2328">wifi_interface_resolver::resolve</text>
</g>
<!-- WifiConnectionStatusShower&#45;&gt;WifiInterfaceResolver -->
<g id="edge28" class="edge">
<title>WifiConnectionStatusShower&#45;&gt;WifiInterfaceResolver</title>
<path fill="none" stroke="#59636e" d="M350.36,-1252.62C398.79,-1252.62 450.4,-1252.62 494.2,-1252.62"/>
<polygon fill="#59636e" stroke="#59636e" points="494.05,-1255.07 501.05,-1252.62 494.05,-1250.17 494.05,-1255.07"/>
<text xml:space="preserve" text-anchor="middle" x="426.5" y="-1255.67" font-family="Inter" font-size="11.00" fill="#59636e">pipeline step 1</text>
</g>
<!-- WifiInterfaceResolver&#45;&gt;WifiStatusSystemWifiContract -->
<g id="edge31" class="edge">
<title>WifiInterfaceResolver&#45;&gt;WifiStatusSystemWifiContract</title>
<path fill="none" stroke="#59636e" stroke-dasharray="5,2" d="M670.77,-1233.88C805.63,-1194.73 1117.82,-1097.01 1358.5,-967.62 1375.88,-958.27 1376.92,-950.59 1394.5,-941.62 1416.11,-930.58 1440.74,-921.27 1463.63,-913.83"/>
<polygon fill="#59636e" stroke="#59636e" points="1464.28,-916.2 1470.2,-911.74 1462.79,-911.53 1464.28,-916.2"/>
<text xml:space="preserve" text-anchor="middle" x="1024.62" y="-1162.99" font-family="Inter" font-size="11.00" fill="#59636e">uses</text>
</g>
<!-- WifiConnectionStatusResolver -->
<g id="node16" class="node">
<title>WifiConnectionStatusResolver</title>
<path fill="#f6f8fa" stroke="#2f3437" d="M1139.5,-1284.87C1139.5,-1284.87 909.75,-1284.87 909.75,-1284.87 903.75,-1284.87 897.75,-1278.87 897.75,-1272.87 897.75,-1272.87 897.75,-1260.37 897.75,-1260.37 897.75,-1254.37 903.75,-1248.37 909.75,-1248.37 909.75,-1248.37 1139.5,-1248.37 1139.5,-1248.37 1145.5,-1248.37 1151.5,-1254.37 1151.5,-1260.37 1151.5,-1260.37 1151.5,-1272.87 1151.5,-1272.87 1151.5,-1278.87 1145.5,-1284.87 1139.5,-1284.87"/>
<text xml:space="preserve" text-anchor="middle" x="1024.62" y="-1269.47" font-family="Inter" font-size="12.00" fill="#1f2328">&lt;&lt;resolver&gt;&gt;</text>
<text xml:space="preserve" text-anchor="middle" x="1024.62" y="-1255.22" font-family="Inter" font-size="12.00" fill="#1f2328">wifi_connection_status_resolver::resolve</text>
</g>
<!-- WifiInterfaceResolver&#45;&gt;WifiConnectionStatusResolver -->
<g id="edge29" class="edge">
<title>WifiInterfaceResolver&#45;&gt;WifiConnectionStatusResolver</title>
<path fill="none" stroke="#59636e" d="M703.08,-1255.93C758.65,-1257.78 828.71,-1260.12 889.14,-1262.13"/>
<polygon fill="#59636e" stroke="#59636e" points="889.02,-1264.58 896.09,-1262.36 889.18,-1259.68 889.02,-1264.58"/>
<text xml:space="preserve" text-anchor="middle" x="800.25" y="-1263.92" font-family="Inter" font-size="11.00" fill="#59636e">WifiInterfaceView&lt;&#39;a&gt;</text>
</g>
<!-- WifiConnectionStatusResolver&#45;&gt;WifiStatusSystemWifiContract -->
<g id="edge32" class="edge">
<title>WifiConnectionStatusResolver&#45;&gt;WifiStatusSystemWifiContract</title>
<path fill="none" stroke="#59636e" stroke-dasharray="5,2" d="M1122.83,-1247.95C1198.46,-1228.28 1300.06,-1189.6 1358.5,-1116.62 1408.13,-1054.63 1341.7,-1000.93 1394.5,-941.62 1406.54,-928.09 1422.4,-918.28 1439.26,-911.18"/>
<polygon fill="#59636e" stroke="#59636e" points="1440.04,-913.5 1445.66,-908.65 1438.25,-908.94 1440.04,-913.5"/>
<text xml:space="preserve" text-anchor="middle" x="1273" y="-1230.51" font-family="Inter" font-size="11.00" fill="#59636e">uses</text>
</g>
<!-- WifiConnectionStatusOutputResolver -->
<g id="node17" class="node">
<title>WifiConnectionStatusOutputResolver</title>
<path fill="#f6f8fa" stroke="#2f3437" d="M1681.25,-1284.87C1681.25,-1284.87 1406.5,-1284.87 1406.5,-1284.87 1400.5,-1284.87 1394.5,-1278.87 1394.5,-1272.87 1394.5,-1272.87 1394.5,-1260.37 1394.5,-1260.37 1394.5,-1254.37 1400.5,-1248.37 1406.5,-1248.37 1406.5,-1248.37 1681.25,-1248.37 1681.25,-1248.37 1687.25,-1248.37 1693.25,-1254.37 1693.25,-1260.37 1693.25,-1260.37 1693.25,-1272.87 1693.25,-1272.87 1693.25,-1278.87 1687.25,-1284.87 1681.25,-1284.87"/>
<text xml:space="preserve" text-anchor="middle" x="1543.88" y="-1269.47" font-family="Inter" font-size="12.00" fill="#1f2328">&lt;&lt;resolver&gt;&gt;</text>
<text xml:space="preserve" text-anchor="middle" x="1543.88" y="-1255.22" font-family="Inter" font-size="12.00" fill="#1f2328">wifi_connection_status_output_resolver::resolve</text>
</g>
<!-- WifiConnectionStatusResolver&#45;&gt;WifiConnectionStatusOutputResolver -->
<g id="edge30" class="edge">
<title>WifiConnectionStatusResolver&#45;&gt;WifiConnectionStatusOutputResolver</title>
<path fill="none" stroke="#59636e" d="M1151.83,-1266.62C1222.38,-1266.62 1310.93,-1266.62 1385.92,-1266.62"/>
<polygon fill="#59636e" stroke="#59636e" points="1385.55,-1269.07 1392.55,-1266.62 1385.55,-1264.17 1385.55,-1269.07"/>
<text xml:space="preserve" text-anchor="middle" x="1273" y="-1269.67" font-family="Inter" font-size="11.00" fill="#59636e">WifiConnectionStatusView&lt;&#39;a&gt;</text>
</g>
<!-- WifiConnectionStatusOutputResolver&#45;&gt;WifiStatusRenderPresentationContract -->
<g id="edge33" class="edge">
<title>WifiConnectionStatusOutputResolver&#45;&gt;WifiStatusRenderPresentationContract</title>
<path fill="none" stroke="#59636e" stroke-dasharray="5,2" d="M1561.58,-1284.94C1591.64,-1316.56 1658.34,-1380.74 1729.25,-1409.62 1773.42,-1427.61 1824.77,-1436.24 1870.82,-1440.09"/>
<polygon fill="#59636e" stroke="#59636e" points="1870.38,-1442.52 1877.55,-1440.62 1870.76,-1437.63 1870.38,-1442.52"/>
<text xml:space="preserve" text-anchor="middle" x="1772.38" y="-1436.18" font-family="Inter" font-size="11.00" fill="#59636e">uses</text>
</g>
<!-- TerminalPresentationProvider -->
<g id="node18" class="node">
<title>TerminalPresentationProvider</title>
<path fill="#ddf4ff" stroke="#2f3437" d="M1626.5,-1171.87C1626.5,-1171.87 1461.25,-1171.87 1461.25,-1171.87 1455.25,-1171.87 1449.25,-1165.87 1449.25,-1159.87 1449.25,-1159.87 1449.25,-1147.37 1449.25,-1147.37 1449.25,-1141.37 1455.25,-1135.37 1461.25,-1135.37 1461.25,-1135.37 1626.5,-1135.37 1626.5,-1135.37 1632.5,-1135.37 1638.5,-1141.37 1638.5,-1147.37 1638.5,-1147.37 1638.5,-1159.87 1638.5,-1159.87 1638.5,-1165.87 1632.5,-1171.87 1626.5,-1171.87"/>
<text xml:space="preserve" text-anchor="middle" x="1543.88" y="-1156.47" font-family="Inter" font-size="12.00" fill="#1f2328">&lt;&lt;provider&gt;&gt;</text>
<text xml:space="preserve" text-anchor="middle" x="1543.88" y="-1142.22" font-family="Inter" font-size="12.00" fill="#1f2328">TerminalPresentationProvider</text>
</g>
<!-- TerminalPresentationProvider&#45;&gt;WifiActionInputPresentationContract -->
<g id="edge1" class="edge">
<title>TerminalPresentationProvider&#45;&gt;WifiActionInputPresentationContract</title>
<path fill="none" stroke="#59636e" d="M1638.66,-1142.4C1661.33,-1135.86 1683.97,-1125.62 1701.25,-1109.62 1727.81,-1085.01 1706.36,-1061.17 1729.25,-1033.12 1766.97,-986.89 1788.86,-986.58 1843.5,-962.62 1864.13,-953.57 1887.12,-945.89 1908.98,-939.6"/>
<polygon fill="#59636e" stroke="#59636e" points="1909.45,-942.02 1915.52,-937.76 1908.12,-937.3 1909.45,-942.02"/>
<text xml:space="preserve" text-anchor="middle" x="1772.38" y="-1036.17" font-family="Inter" font-size="11.00" fill="#59636e">implements</text>
</g>
<!-- TerminalPresentationProvider&#45;&gt;WifiNetworkSelectionInputPresentationContract -->
<g id="edge2" class="edge">
<title>TerminalPresentationProvider&#45;&gt;WifiNetworkSelectionInputPresentationContract</title>
<path fill="none" stroke="#59636e" d="M1620.33,-1172.34C1702.11,-1192.63 1832.26,-1224.93 1916.98,-1245.95"/>
<polygon fill="#59636e" stroke="#59636e" points="1916.18,-1248.28 1923.56,-1247.59 1917.36,-1243.52 1916.18,-1248.28"/>
<text xml:space="preserve" text-anchor="middle" x="1772.38" y="-1223.29" font-family="Inter" font-size="11.00" fill="#59636e">implements</text>
</g>
<!-- TerminalPresentationProvider&#45;&gt;WifiPasswordInputPresentationContract -->
<g id="edge3" class="edge">
<title>TerminalPresentationProvider&#45;&gt;WifiPasswordInputPresentationContract</title>
<path fill="none" stroke="#59636e" d="M1638.95,-1158.99C1705.03,-1162.76 1794.34,-1167.86 1867.63,-1172.04"/>
<polygon fill="#59636e" stroke="#59636e" points="1867.4,-1174.48 1874.52,-1172.44 1867.68,-1169.59 1867.4,-1174.48"/>
<text xml:space="preserve" text-anchor="middle" x="1772.38" y="-1172" font-family="Inter" font-size="11.00" fill="#59636e">implements</text>
</g>
<!-- TerminalPresentationProvider&#45;&gt;WifiNetworkRenderPresentationContract -->
<g id="edge4" class="edge">
<title>TerminalPresentationProvider&#45;&gt;WifiNetworkRenderPresentationContract</title>
<path fill="none" stroke="#59636e" d="M1638.95,-1141.01C1704.03,-1132.3 1791.64,-1120.56 1864.29,-1110.83"/>
<polygon fill="#59636e" stroke="#59636e" points="1864.5,-1113.27 1871.12,-1109.91 1863.85,-1108.42 1864.5,-1113.27"/>
<text xml:space="preserve" text-anchor="middle" x="1772.38" y="-1131.63" font-family="Inter" font-size="11.00" fill="#59636e">implements</text>
</g>
<!-- TerminalPresentationProvider&#45;&gt;WifiStatusRenderPresentationContract -->
<g id="edge5" class="edge">
<title>TerminalPresentationProvider&#45;&gt;WifiStatusRenderPresentationContract</title>
<path fill="none" stroke="#59636e" d="M1638.97,-1165.6C1662.05,-1172.71 1684.81,-1183.94 1701.25,-1201.62 1739.14,-1242.35 1697.2,-1278.14 1729.25,-1323.62 1763.96,-1372.87 1788.51,-1371.98 1843.5,-1396.62 1863.83,-1405.72 1886.5,-1413.39 1908.15,-1419.65"/>
<polygon fill="#59636e" stroke="#59636e" points="1907.21,-1421.93 1914.61,-1421.48 1908.54,-1417.21 1907.21,-1421.93"/>
<text xml:space="preserve" text-anchor="middle" x="1772.38" y="-1387.34" font-family="Inter" font-size="11.00" fill="#59636e">implements</text>
</g>
<!-- TerminalPresentationProvider&#45;&gt;WifiSecretRenderPresentationContract -->
<g id="edge6" class="edge">
<title>TerminalPresentationProvider&#45;&gt;WifiSecretRenderPresentationContract</title>
<path fill="none" stroke="#59636e" d="M1627.98,-1134.95C1652.11,-1128.28 1678.17,-1119.83 1701.25,-1109.62 1714.67,-1103.68 1716.08,-1098.6 1729.25,-1092.12 1787.96,-1063.22 1858.48,-1041.07 1912.87,-1026.42"/>
<polygon fill="#59636e" stroke="#59636e" points="1913.17,-1028.87 1919.31,-1024.7 1911.91,-1024.14 1913.17,-1028.87"/>
<text xml:space="preserve" text-anchor="middle" x="1772.38" y="-1095.17" font-family="Inter" font-size="11.00" fill="#59636e">implements</text>
</g>
<!-- TerminalPresentationProvider&#45;&gt;WifiMessageRenderPresentationContract -->
<g id="edge7" class="edge">
<title>TerminalPresentationProvider&#45;&gt;WifiMessageRenderPresentationContract</title>
<path fill="none" stroke="#59636e" d="M1638.95,-1170.83C1660.85,-1177.88 1683.06,-1187.76 1701.25,-1201.62 1719.69,-1215.66 1712.41,-1229.69 1729.25,-1245.62 1771.54,-1285.6 1789.72,-1287.37 1843.5,-1309.62 1865.11,-1318.55 1889.13,-1326.31 1911.74,-1332.72"/>
<polygon fill="#59636e" stroke="#59636e" points="1910.81,-1335 1918.21,-1334.52 1912.13,-1330.28 1910.81,-1335"/>
<text xml:space="preserve" text-anchor="middle" x="1772.38" y="-1301.31" font-family="Inter" font-size="11.00" fill="#59636e">implements</text>
</g>
<!-- TuiPresentationProvider -->
<g id="node19" class="node">
<title>TuiPresentationProvider</title>
<path fill="#fff8c5" stroke="#2f3437" d="M1615.62,-1084.87C1615.62,-1084.87 1472.12,-1084.87 1472.12,-1084.87 1466.12,-1084.87 1460.12,-1078.87 1460.12,-1072.87 1460.12,-1072.87 1460.12,-1060.37 1460.12,-1060.37 1460.12,-1054.37 1466.12,-1048.37 1472.12,-1048.37 1472.12,-1048.37 1615.62,-1048.37 1615.62,-1048.37 1621.62,-1048.37 1627.62,-1054.37 1627.62,-1060.37 1627.62,-1060.37 1627.62,-1072.87 1627.62,-1072.87 1627.62,-1078.87 1621.62,-1084.87 1615.62,-1084.87"/>
<text xml:space="preserve" text-anchor="middle" x="1543.88" y="-1069.47" font-family="Inter" font-size="12.00" fill="#1f2328">&lt;&lt;provider candidate&gt;&gt;</text>
<text xml:space="preserve" text-anchor="middle" x="1543.88" y="-1055.22" font-family="Inter" font-size="12.00" fill="#1f2328">TuiPresentationProvider</text>
</g>
<!-- TuiPresentationProvider&#45;&gt;WifiActionInputPresentationContract -->
<g id="edge8" class="edge">
<title>TuiPresentationProvider&#45;&gt;WifiActionInputPresentationContract</title>
<path fill="none" stroke="#59636e" stroke-dasharray="5,2" d="M1628.1,-1059.74C1654.63,-1053.6 1682.05,-1042.49 1701.25,-1022.62 1737.65,-984.94 1688.04,-940.46 1729.25,-908.12 1790.31,-860.19 1885.1,-878.34 1944.87,-897.34"/>
<polygon fill="#59636e" stroke="#59636e" points="1943.85,-899.59 1951.26,-899.43 1945.37,-894.93 1943.85,-899.59"/>
<text xml:space="preserve" text-anchor="middle" x="1772.38" y="-911.17" font-family="Inter" font-size="11.00" fill="#59636e">may implement</text>
</g>
<!-- WebPresentationProvider -->
<g id="node20" class="node">
<title>WebPresentationProvider</title>
<path fill="#fff8c5" stroke="#2f3437" d="M1615.62,-997.87C1615.62,-997.87 1472.12,-997.87 1472.12,-997.87 1466.12,-997.87 1460.12,-991.87 1460.12,-985.87 1460.12,-985.87 1460.12,-973.37 1460.12,-973.37 1460.12,-967.37 1466.12,-961.37 1472.12,-961.37 1472.12,-961.37 1615.62,-961.37 1615.62,-961.37 1621.62,-961.37 1627.62,-967.37 1627.62,-973.37 1627.62,-973.37 1627.62,-985.87 1627.62,-985.87 1627.62,-991.87 1621.62,-997.87 1615.62,-997.87"/>
<text xml:space="preserve" text-anchor="middle" x="1543.88" y="-982.47" font-family="Inter" font-size="12.00" fill="#1f2328">&lt;&lt;provider candidate&gt;&gt;</text>
<text xml:space="preserve" text-anchor="middle" x="1543.88" y="-968.22" font-family="Inter" font-size="12.00" fill="#1f2328">WebPresentationProvider</text>
</g>
<!-- WebPresentationProvider&#45;&gt;WifiActionInputPresentationContract -->
<g id="edge9" class="edge">
<title>WebPresentationProvider&#45;&gt;WifiActionInputPresentationContract</title>
<path fill="none" stroke="#59636e" stroke-dasharray="5,2" d="M1627.79,-984.86C1654.13,-982.33 1681.52,-974.69 1701.25,-956.62 1740.84,-920.36 1687.12,-872.39 1729.25,-839.12 1803.05,-780.83 1918.38,-854.51 1971.59,-895.13"/>
<polygon fill="#59636e" stroke="#59636e" points="1969.84,-896.87 1976.87,-899.22 1972.84,-892.99 1969.84,-896.87"/>
<text xml:space="preserve" text-anchor="middle" x="1772.38" y="-842.17" font-family="Inter" font-size="11.00" fill="#59636e">may implement</text>
</g>
<!-- VoidSystemWifiProvider -->
<g id="node21" class="node">
<title>VoidSystemWifiProvider</title>
<path fill="#ddf4ff" stroke="#2f3437" d="M1097.88,-598.49C1097.88,-598.49 951.38,-598.49 951.38,-598.49 945.38,-598.49 939.38,-592.49 939.38,-586.49 939.38,-586.49 939.38,-488.74 939.38,-488.74 939.38,-482.74 945.38,-476.74 951.38,-476.74 951.38,-476.74 1097.88,-476.74 1097.88,-476.74 1103.88,-476.74 1109.88,-482.74 1109.88,-488.74 1109.88,-488.74 1109.88,-586.49 1109.88,-586.49 1109.88,-592.49 1103.88,-598.49 1097.88,-598.49"/>
<text xml:space="preserve" text-anchor="middle" x="1024.62" y="-583.09" font-family="Inter" font-size="12.00" fill="#1f2328">&lt;&lt;provider&gt;&gt;</text>
<text xml:space="preserve" text-anchor="middle" x="1024.62" y="-568.84" font-family="Inter" font-size="12.00" fill="#1f2328">VoidSystemWifiProvider</text>
<text xml:space="preserve" text-anchor="middle" x="1024.62" y="-540.59" font-family="Inter" font-size="12.00" fill="#1f2328">uses:</text>
<text xml:space="preserve" text-anchor="middle" x="1024.62" y="-526.34" font-family="Inter" font-size="12.00" fill="#1f2328">&#45; wpa_supplicant / wpa_cli</text>
<text xml:space="preserve" text-anchor="middle" x="1024.62" y="-512.09" font-family="Inter" font-size="12.00" fill="#1f2328">&#45; dhcpcd</text>
<text xml:space="preserve" text-anchor="middle" x="1024.62" y="-497.84" font-family="Inter" font-size="12.00" fill="#1f2328">&#45; iw / ip</text>
<text xml:space="preserve" text-anchor="middle" x="1024.62" y="-483.59" font-family="Inter" font-size="12.00" fill="#1f2328">&#45; runit / sv</text>
</g>
<!-- VoidSystemWifiProvider&#45;&gt;WifiScanSystemWifiContract -->
<g id="edge10" class="edge">
<title>VoidSystemWifiProvider&#45;&gt;WifiScanSystemWifiContract</title>
<path fill="none" stroke="#59636e" d="M1110.11,-592.88C1124.18,-602.78 1138.44,-613.25 1151.5,-623.62 1168.5,-637.11 1168.61,-645.93 1187.5,-656.62 1256.48,-695.62 1294.8,-659.98 1358.5,-707.12 1381.83,-724.39 1371.18,-744.33 1394.5,-761.62 1408.92,-772.3 1425.91,-780.4 1443.15,-786.54"/>
<polygon fill="#59636e" stroke="#59636e" points="1442.23,-788.82 1449.64,-788.74 1443.8,-784.18 1442.23,-788.82"/>
<text xml:space="preserve" text-anchor="middle" x="1273" y="-710.17" font-family="Inter" font-size="11.00" fill="#59636e">implements</text>
</g>
<!-- VoidSystemWifiProvider&#45;&gt;WifiStatusSystemWifiContract -->
<g id="edge11" class="edge">
<title>VoidSystemWifiProvider&#45;&gt;WifiStatusSystemWifiContract</title>
<path fill="none" stroke="#59636e" d="M1110.15,-580.68C1126.2,-592.52 1141.17,-606.82 1151.5,-623.62 1183.55,-675.74 1141.49,-856.27 1187.5,-896.62 1269.81,-968.78 1408.7,-939 1486.23,-913.92"/>
<polygon fill="#59636e" stroke="#59636e" points="1486.68,-916.35 1492.56,-911.83 1485.14,-911.7 1486.68,-916.35"/>
<text xml:space="preserve" text-anchor="middle" x="1273" y="-944.93" font-family="Inter" font-size="11.00" fill="#59636e">implements</text>
</g>
<!-- VoidSystemWifiProvider&#45;&gt;WifiConnectSystemWifiContract -->
<g id="edge12" class="edge">
<title>VoidSystemWifiProvider&#45;&gt;WifiConnectSystemWifiContract</title>
<path fill="none" stroke="#59636e" d="M1110.15,-494.25C1134.5,-483.73 1161.52,-473.86 1187.5,-468.12 1268.31,-450.25 1361.96,-448.22 1432.83,-450.34"/>
<polygon fill="#59636e" stroke="#59636e" points="1432.33,-452.77 1439.41,-450.55 1432.49,-447.88 1432.33,-452.77"/>
<text xml:space="preserve" text-anchor="middle" x="1273" y="-471.17" font-family="Inter" font-size="11.00" fill="#59636e">implements</text>
</g>
<!-- VoidSystemWifiProvider&#45;&gt;WifiSavedNetworkSystemWifiContract -->
<g id="edge13" class="edge">
<title>VoidSystemWifiProvider&#45;&gt;WifiSavedNetworkSystemWifiContract</title>
<path fill="none" stroke="#59636e" d="M1110,-563.89C1134.93,-571.6 1162.3,-580 1187.5,-587.62 1263.36,-610.53 1290.52,-597.39 1358.5,-638.12 1378.05,-649.83 1374.96,-662.9 1394.5,-674.62 1409.99,-683.9 1427.57,-691.35 1445.07,-697.28"/>
<polygon fill="#59636e" stroke="#59636e" points="1444.25,-699.59 1451.67,-699.43 1445.77,-694.93 1444.25,-699.59"/>
<text xml:space="preserve" text-anchor="middle" x="1273" y="-641.17" font-family="Inter" font-size="11.00" fill="#59636e">implements</text>
</g>
<!-- VoidSystemWifiProvider&#45;&gt;WifiSavedSecretSystemWifiContract -->
<g id="edge14" class="edge">
<title>VoidSystemWifiProvider&#45;&gt;WifiSavedSecretSystemWifiContract</title>
<path fill="none" stroke="#59636e" d="M1110.04,-536.84C1178.33,-538.29 1276.32,-545.08 1358.5,-569.12 1375.77,-574.17 1377.8,-580.92 1394.5,-587.62 1415.93,-596.21 1439.7,-604 1461.81,-610.55"/>
<polygon fill="#59636e" stroke="#59636e" points="1461.02,-612.87 1468.43,-612.48 1462.39,-608.16 1461.02,-612.87"/>
<text xml:space="preserve" text-anchor="middle" x="1273" y="-572.17" font-family="Inter" font-size="11.00" fill="#59636e">implements</text>
</g>
<!-- VoidSystemWifiProvider&#45;&gt;WifiForgetSystemWifiContract -->
<g id="edge15" class="edge">
<title>VoidSystemWifiProvider&#45;&gt;WifiForgetSystemWifiContract</title>
<path fill="none" stroke="#59636e" d="M1110.26,-514.19C1134.96,-508.39 1162.14,-503.02 1187.5,-500.12 1263.01,-491.48 1283.03,-491.14 1358.5,-500.12 1396.94,-504.69 1438.97,-514.45 1473.17,-523.67"/>
<polygon fill="#59636e" stroke="#59636e" points="1472.38,-525.99 1479.78,-525.47 1473.67,-521.26 1472.38,-525.99"/>
<text xml:space="preserve" text-anchor="middle" x="1273" y="-503.17" font-family="Inter" font-size="11.00" fill="#59636e">implements</text>
</g>
<!-- WpaCli -->
<g id="node26" class="node">
<title>WpaCli</title>
<path fill="#f6f8fa" stroke="#2f3437" d="M1616,-388.87C1616,-388.87 1471.75,-388.87 1471.75,-388.87 1465.75,-388.87 1459.75,-382.87 1459.75,-376.87 1459.75,-376.87 1459.75,-364.37 1459.75,-364.37 1459.75,-358.37 1465.75,-352.37 1471.75,-352.37 1471.75,-352.37 1616,-352.37 1616,-352.37 1622,-352.37 1628,-358.37 1628,-364.37 1628,-364.37 1628,-376.87 1628,-376.87 1628,-382.87 1622,-388.87 1616,-388.87"/>
<text xml:space="preserve" text-anchor="middle" x="1543.88" y="-373.47" font-family="Inter" font-size="12.00" fill="#1f2328">&lt;&lt;external command&gt;&gt;</text>
<text xml:space="preserve" text-anchor="middle" x="1543.88" y="-359.22" font-family="Inter" font-size="12.00" fill="#1f2328">wpa_cli</text>
</g>
<!-- VoidSystemWifiProvider&#45;&gt;WpaCli -->
<g id="edge19" class="edge">
<title>VoidSystemWifiProvider&#45;&gt;WpaCli</title>
<path fill="none" stroke="#59636e" d="M1098.5,-476.45C1125.01,-457.15 1156.19,-437.61 1187.5,-425.12 1272.77,-391.08 1377.36,-378.17 1450.93,-373.34"/>
<polygon fill="#59636e" stroke="#59636e" points="1450.95,-375.79 1457.78,-372.91 1450.64,-370.9 1450.95,-375.79"/>
<text xml:space="preserve" text-anchor="middle" x="1273" y="-428.17" font-family="Inter" font-size="11.00" fill="#59636e">uses</text>
</g>
<!-- Dhcpcd -->
<g id="node27" class="node">
<title>Dhcpcd</title>
<path fill="#f6f8fa" stroke="#2f3437" d="M2100.38,-134.87C2100.38,-134.87 1902.12,-134.87 1902.12,-134.87 1896.12,-134.87 1890.12,-128.87 1890.12,-122.87 1890.12,-122.87 1890.12,-110.37 1890.12,-110.37 1890.12,-104.37 1896.12,-98.37 1902.12,-98.37 1902.12,-98.37 2100.38,-98.37 2100.38,-98.37 2106.38,-98.37 2112.38,-104.37 2112.38,-110.37 2112.38,-110.37 2112.38,-122.87 2112.38,-122.87 2112.38,-128.87 2106.38,-134.87 2100.38,-134.87"/>
<text xml:space="preserve" text-anchor="middle" x="2001.25" y="-119.47" font-family="Inter" font-size="12.00" fill="#1f2328">&lt;&lt;external service / command&gt;&gt;</text>
<text xml:space="preserve" text-anchor="middle" x="2001.25" y="-105.22" font-family="Inter" font-size="12.00" fill="#1f2328">dhcpcd</text>
</g>
<!-- VoidSystemWifiProvider&#45;&gt;Dhcpcd -->
<g id="edge20" class="edge">
<title>VoidSystemWifiProvider&#45;&gt;Dhcpcd</title>
<path fill="none" stroke="#59636e" d="M1030.68,-476.49C1041.85,-382.13 1077.2,-201.64 1187.5,-103.62 1406.98,91.43 1806.57,-39.16 1948.52,-94.9"/>
<polygon fill="#59636e" stroke="#59636e" points="1947.48,-97.13 1954.89,-97.43 1949.28,-92.57 1947.48,-97.13"/>
<text xml:space="preserve" text-anchor="middle" x="1543.88" y="-23.17" font-family="Inter" font-size="11.00" fill="#59636e">uses</text>
</g>
<!-- Iw -->
<g id="node28" class="node">
<title>Iw</title>
<path fill="#f6f8fa" stroke="#2f3437" d="M1616,-301.87C1616,-301.87 1471.75,-301.87 1471.75,-301.87 1465.75,-301.87 1459.75,-295.87 1459.75,-289.87 1459.75,-289.87 1459.75,-277.37 1459.75,-277.37 1459.75,-271.37 1465.75,-265.37 1471.75,-265.37 1471.75,-265.37 1616,-265.37 1616,-265.37 1622,-265.37 1628,-271.37 1628,-277.37 1628,-277.37 1628,-289.87 1628,-289.87 1628,-295.87 1622,-301.87 1616,-301.87"/>
<text xml:space="preserve" text-anchor="middle" x="1543.88" y="-286.47" font-family="Inter" font-size="12.00" fill="#1f2328">&lt;&lt;external command&gt;&gt;</text>
<text xml:space="preserve" text-anchor="middle" x="1543.88" y="-272.22" font-family="Inter" font-size="12.00" fill="#1f2328">iw</text>
</g>
<!-- VoidSystemWifiProvider&#45;&gt;Iw -->
<g id="edge21" class="edge">
<title>VoidSystemWifiProvider&#45;&gt;Iw</title>
<path fill="none" stroke="#59636e" d="M1065,-476.38C1094.04,-436.26 1137.14,-386.07 1187.5,-357.12 1268.92,-310.3 1376.01,-293.08 1451.28,-286.87"/>
<polygon fill="#59636e" stroke="#59636e" points="1451.08,-289.34 1457.87,-286.35 1450.7,-284.46 1451.08,-289.34"/>
<text xml:space="preserve" text-anchor="middle" x="1273" y="-360.17" font-family="Inter" font-size="11.00" fill="#59636e">uses</text>
</g>
<!-- Ip -->
<g id="node29" class="node">
<title>Ip</title>
<path fill="#f6f8fa" stroke="#2f3437" d="M1616,-214.87C1616,-214.87 1471.75,-214.87 1471.75,-214.87 1465.75,-214.87 1459.75,-208.87 1459.75,-202.87 1459.75,-202.87 1459.75,-190.37 1459.75,-190.37 1459.75,-184.37 1465.75,-178.37 1471.75,-178.37 1471.75,-178.37 1616,-178.37 1616,-178.37 1622,-178.37 1628,-184.37 1628,-190.37 1628,-190.37 1628,-202.87 1628,-202.87 1628,-208.87 1622,-214.87 1616,-214.87"/>
<text xml:space="preserve" text-anchor="middle" x="1543.88" y="-199.47" font-family="Inter" font-size="12.00" fill="#1f2328">&lt;&lt;external command&gt;&gt;</text>
<text xml:space="preserve" text-anchor="middle" x="1543.88" y="-185.22" font-family="Inter" font-size="12.00" fill="#1f2328">ip</text>
</g>
<!-- VoidSystemWifiProvider&#45;&gt;Ip -->
<g id="edge22" class="edge">
<title>VoidSystemWifiProvider&#45;&gt;Ip</title>
<path fill="none" stroke="#59636e" d="M1046.84,-476.36C1071.16,-415.47 1117.01,-324.15 1187.5,-274.12 1265,-219.1 1374.22,-201.99 1451.06,-197.22"/>
<polygon fill="#59636e" stroke="#59636e" points="1450.97,-199.68 1457.82,-196.84 1450.69,-194.79 1450.97,-199.68"/>
<text xml:space="preserve" text-anchor="middle" x="1273" y="-277.17" font-family="Inter" font-size="11.00" fill="#59636e">uses</text>
</g>
<!-- Sv -->
<g id="node30" class="node">
<title>Sv</title>
<path fill="#f6f8fa" stroke="#2f3437" d="M1616,-127.87C1616,-127.87 1471.75,-127.87 1471.75,-127.87 1465.75,-127.87 1459.75,-121.87 1459.75,-115.87 1459.75,-115.87 1459.75,-103.37 1459.75,-103.37 1459.75,-97.37 1465.75,-91.37 1471.75,-91.37 1471.75,-91.37 1616,-91.37 1616,-91.37 1622,-91.37 1628,-97.37 1628,-103.37 1628,-103.37 1628,-115.87 1628,-115.87 1628,-121.87 1622,-127.87 1616,-127.87"/>
<text xml:space="preserve" text-anchor="middle" x="1543.88" y="-112.47" font-family="Inter" font-size="12.00" fill="#1f2328">&lt;&lt;external command&gt;&gt;</text>
<text xml:space="preserve" text-anchor="middle" x="1543.88" y="-98.22" font-family="Inter" font-size="12.00" fill="#1f2328">sv</text>
</g>
<!-- VoidSystemWifiProvider&#45;&gt;Sv -->
<g id="edge23" class="edge">
<title>VoidSystemWifiProvider&#45;&gt;Sv</title>
<path fill="none" stroke="#59636e" d="M1036.19,-476.33C1053.33,-396.36 1095.07,-257.95 1187.5,-184.12 1262.23,-124.42 1373.2,-109.32 1451.21,-106.92"/>
<polygon fill="#59636e" stroke="#59636e" points="1451.16,-109.37 1458.09,-106.74 1451.03,-104.47 1451.16,-109.37"/>
<text xml:space="preserve" text-anchor="middle" x="1273" y="-187.17" font-family="Inter" font-size="11.00" fill="#59636e">uses</text>
</g>
<!-- WindowsSystemWifiProvider -->
<g id="node22" class="node">
<title>WindowsSystemWifiProvider</title>
<path fill="#fff8c5" stroke="#2f3437" d="M1104.25,-684.87C1104.25,-684.87 945,-684.87 945,-684.87 939,-684.87 933,-678.87 933,-672.87 933,-672.87 933,-660.37 933,-660.37 933,-654.37 939,-648.37 945,-648.37 945,-648.37 1104.25,-648.37 1104.25,-648.37 1110.25,-648.37 1116.25,-654.37 1116.25,-660.37 1116.25,-660.37 1116.25,-672.87 1116.25,-672.87 1116.25,-678.87 1110.25,-684.87 1104.25,-684.87"/>
<text xml:space="preserve" text-anchor="middle" x="1024.62" y="-669.47" font-family="Inter" font-size="12.00" fill="#1f2328">&lt;&lt;provider candidate&gt;&gt;</text>
<text xml:space="preserve" text-anchor="middle" x="1024.62" y="-655.22" font-family="Inter" font-size="12.00" fill="#1f2328">WindowsSystemWifiProvider</text>
</g>
<!-- WindowsSystemWifiProvider&#45;&gt;WifiScanSystemWifiContract -->
<g id="edge16" class="edge">
<title>WindowsSystemWifiProvider&#45;&gt;WifiScanSystemWifiContract</title>
<path fill="none" stroke="#59636e" stroke-dasharray="5,2" d="M1081.34,-685.31C1103.3,-692.88 1128.69,-701.89 1151.5,-710.62 1167.69,-716.81 1170.98,-720.36 1187.5,-725.62 1272.22,-752.58 1371.06,-774.05 1442.96,-787.94"/>
<polygon fill="#59636e" stroke="#59636e" points="1442.33,-790.31 1449.67,-789.22 1443.26,-785.5 1442.33,-790.31"/>
<text xml:space="preserve" text-anchor="middle" x="1273" y="-771.94" font-family="Inter" font-size="11.00" fill="#59636e">may implement</text>
</g>
<!-- NetworkManagerSystemWifiProvider -->
<g id="node23" class="node">
<title>NetworkManagerSystemWifiProvider</title>
<path fill="#fff8c5" stroke="#2f3437" d="M1129.75,-771.87C1129.75,-771.87 919.5,-771.87 919.5,-771.87 913.5,-771.87 907.5,-765.87 907.5,-759.87 907.5,-759.87 907.5,-747.37 907.5,-747.37 907.5,-741.37 913.5,-735.37 919.5,-735.37 919.5,-735.37 1129.75,-735.37 1129.75,-735.37 1135.75,-735.37 1141.75,-741.37 1141.75,-747.37 1141.75,-747.37 1141.75,-759.87 1141.75,-759.87 1141.75,-765.87 1135.75,-771.87 1129.75,-771.87"/>
<text xml:space="preserve" text-anchor="middle" x="1024.62" y="-756.47" font-family="Inter" font-size="12.00" fill="#1f2328">&lt;&lt;provider candidate&gt;&gt;</text>
<text xml:space="preserve" text-anchor="middle" x="1024.62" y="-742.22" font-family="Inter" font-size="12.00" fill="#1f2328">NetworkManagerSystemWifiProvider</text>
</g>
<!-- NetworkManagerSystemWifiProvider&#45;&gt;WifiScanSystemWifiContract -->
<g id="edge17" class="edge">
<title>NetworkManagerSystemWifiProvider&#45;&gt;WifiScanSystemWifiContract</title>
<path fill="none" stroke="#59636e" stroke-dasharray="5,2" d="M1086.11,-772.26C1116.27,-780.7 1153.48,-789.84 1187.5,-794.62 1273.14,-806.64 1371.48,-808.8 1442.97,-808.29"/>
<polygon fill="#59636e" stroke="#59636e" points="1442.62,-810.74 1449.6,-808.23 1442.58,-805.84 1442.62,-810.74"/>
<text xml:space="preserve" text-anchor="middle" x="1273" y="-810.38" font-family="Inter" font-size="11.00" fill="#59636e">may implement</text>
</g>
<!-- IwdSystemWifiProvider -->
<g id="node24" class="node">
<title>IwdSystemWifiProvider</title>
<path fill="#fff8c5" stroke="#2f3437" d="M1096.38,-858.87C1096.38,-858.87 952.88,-858.87 952.88,-858.87 946.88,-858.87 940.88,-852.87 940.88,-846.87 940.88,-846.87 940.88,-834.37 940.88,-834.37 940.88,-828.37 946.88,-822.37 952.88,-822.37 952.88,-822.37 1096.38,-822.37 1096.38,-822.37 1102.38,-822.37 1108.38,-828.37 1108.38,-834.37 1108.38,-834.37 1108.38,-846.87 1108.38,-846.87 1108.38,-852.87 1102.38,-858.87 1096.38,-858.87"/>
<text xml:space="preserve" text-anchor="middle" x="1024.62" y="-843.47" font-family="Inter" font-size="12.00" fill="#1f2328">&lt;&lt;provider candidate&gt;&gt;</text>
<text xml:space="preserve" text-anchor="middle" x="1024.62" y="-829.22" font-family="Inter" font-size="12.00" fill="#1f2328">IwdSystemWifiProvider</text>
</g>
<!-- IwdSystemWifiProvider&#45;&gt;WifiScanSystemWifiContract -->
<g id="edge18" class="edge">
<title>IwdSystemWifiProvider&#45;&gt;WifiScanSystemWifiContract</title>
<path fill="none" stroke="#59636e" stroke-dasharray="5,2" d="M1108.57,-854.69C1133.83,-858.36 1161.73,-861.79 1187.5,-863.62 1263.31,-868.98 1283.8,-877.63 1358.5,-863.62 1375.37,-860.45 1378.26,-855.17 1394.5,-849.62 1418.14,-841.53 1444.18,-833.51 1467.76,-826.58"/>
<polygon fill="#59636e" stroke="#59636e" points="1468.17,-829.01 1474.21,-824.7 1466.8,-824.31 1468.17,-829.01"/>
<text xml:space="preserve" text-anchor="middle" x="1273" y="-874.26" font-family="Inter" font-size="11.00" fill="#59636e">may implement</text>
</g>
<!-- WpaSupplicant -->
<g id="node25" class="node">
<title>WpaSupplicant</title>
<path fill="#f6f8fa" stroke="#2f3437" d="M2064.38,-316.87C2064.38,-316.87 1938.12,-316.87 1938.12,-316.87 1932.12,-316.87 1926.12,-310.87 1926.12,-304.87 1926.12,-304.87 1926.12,-292.37 1926.12,-292.37 1926.12,-286.37 1932.12,-280.37 1938.12,-280.37 1938.12,-280.37 2064.38,-280.37 2064.38,-280.37 2070.38,-280.37 2076.38,-286.37 2076.38,-292.37 2076.38,-292.37 2076.38,-304.87 2076.38,-304.87 2076.38,-310.87 2070.38,-316.87 2064.38,-316.87"/>
<text xml:space="preserve" text-anchor="middle" x="2001.25" y="-301.47" font-family="Inter" font-size="12.00" fill="#1f2328">&lt;&lt;external service&gt;&gt;</text>
<text xml:space="preserve" text-anchor="middle" x="2001.25" y="-287.22" font-family="Inter" font-size="12.00" fill="#1f2328">wpa_supplicant</text>
</g>
<!-- WpaCli&#45;&gt;WpaSupplicant -->
<g id="edge24" class="edge">
<title>WpaCli&#45;&gt;WpaSupplicant</title>
<path fill="none" stroke="#59636e" d="M1628.4,-357.41C1710.69,-344.4 1835.66,-324.64 1917.64,-311.68"/>
<polygon fill="#59636e" stroke="#59636e" points="1917.9,-314.12 1924.43,-310.6 1917.13,-309.28 1917.9,-314.12"/>
<text xml:space="preserve" text-anchor="middle" x="1772.38" y="-344.12" font-family="Inter" font-size="11.00" fill="#59636e">controls</text>
</g>
<!-- Sv&#45;&gt;WpaSupplicant -->
<g id="edge26" class="edge">
<title>Sv&#45;&gt;WpaSupplicant</title>
<path fill="none" stroke="#59636e" stroke-dasharray="5,2" d="M1628.42,-121.8C1653.49,-128.32 1679.95,-138.31 1701.25,-153.62 1719.17,-166.49 1712.72,-180 1729.25,-194.62 1772.06,-232.48 1790.39,-232.52 1843.5,-253.62 1867.14,-263.01 1893.49,-271.35 1917.74,-278.22"/>
<polygon fill="#59636e" stroke="#59636e" points="1917.02,-280.56 1924.42,-280.09 1918.34,-275.84 1917.02,-280.56"/>
<text xml:space="preserve" text-anchor="middle" x="1772.38" y="-246.06" font-family="Inter" font-size="11.00" fill="#59636e">manages</text>
</g>
<!-- Sv&#45;&gt;Dhcpcd -->
<g id="edge27" class="edge">
<title>Sv&#45;&gt;Dhcpcd</title>
<path fill="none" stroke="#59636e" stroke-dasharray="5,2" d="M1628.4,-110.9C1699.39,-111.99 1802.16,-113.57 1881.67,-114.79"/>
<polygon fill="#59636e" stroke="#59636e" points="1881.23,-117.24 1888.27,-114.89 1881.31,-112.34 1881.23,-117.24"/>
<text xml:space="preserve" text-anchor="middle" x="1772.38" y="-116.79" font-family="Inter" font-size="11.00" fill="#59636e">manages</text>
</g>
<!-- Runit -->
<g id="node31" class="node">
<title>Runit</title>
<path fill="#f6f8fa" stroke="#2f3437" d="M2093.62,-228.87C2093.62,-228.87 1908.88,-228.87 1908.88,-228.87 1902.88,-228.87 1896.88,-222.87 1896.88,-216.87 1896.88,-216.87 1896.88,-204.37 1896.88,-204.37 1896.88,-198.37 1902.88,-192.37 1908.88,-192.37 1908.88,-192.37 2093.62,-192.37 2093.62,-192.37 2099.62,-192.37 2105.62,-198.37 2105.62,-204.37 2105.62,-204.37 2105.62,-216.87 2105.62,-216.87 2105.62,-222.87 2099.62,-228.87 2093.62,-228.87"/>
<text xml:space="preserve" text-anchor="middle" x="2001.25" y="-213.47" font-family="Inter" font-size="12.00" fill="#1f2328">&lt;&lt;external service manager&gt;&gt;</text>
<text xml:space="preserve" text-anchor="middle" x="2001.25" y="-199.22" font-family="Inter" font-size="12.00" fill="#1f2328">runit</text>
</g>
<!-- Sv&#45;&gt;Runit -->
<g id="edge25" class="edge">
<title>Sv&#45;&gt;Runit</title>
<path fill="none" stroke="#59636e" d="M1628.4,-128.14C1707.34,-145.65 1825.55,-171.87 1907.41,-190.03"/>
<polygon fill="#59636e" stroke="#59636e" points="1906.87,-192.42 1914.24,-191.54 1907.93,-187.63 1906.87,-192.42"/>
<text xml:space="preserve" text-anchor="middle" x="1772.38" y="-172.21" font-family="Inter" font-size="11.00" fill="#59636e">talks to</text>
</g>
</g>
</svg>
