<?xml version="1.0" encoding="UTF-8" standalone="no"?>
<!DOCTYPE svg PUBLIC "-//W3C//DTD SVG 1.1//EN"
 "http://www.w3.org/Graphics/SVG/1.1/DTD/svg11.dtd">
<!-- Generated by graphviz version 14.1.5 (0)
 -->
<!-- Title: WifiComponentDiagram Pages: 1 -->
<svg width="2429pt" height="1563pt"
 viewBox="0.00 0.00 2429.00 1563.00" xmlns="http://www.w3.org/2000/svg" xmlns:xlink="http://www.w3.org/1999/xlink">
<g id="graph0" class="graph" transform="scale(1 1) rotate(0) translate(28.8 1533.82)">
<title>WifiComponentDiagram</title>
<text xml:space="preserve" text-anchor="middle" x="1185.62" y="-1485.82" font-family="Inter" font-size="16.00">WiFi Component Diagram: Contracts and Providers</text>
<g id="clust1" class="cluster">
<title>cluster_presentation_contracts</title>
<path fill="none" stroke="#8c959f" d="M2134,-869.52C2134,-869.52 2351.25,-869.52 2351.25,-869.52 2357.25,-869.52 2363.25,-875.52 2363.25,-881.52 2363.25,-881.52 2363.25,-1457.52 2363.25,-1457.52 2363.25,-1463.52 2357.25,-1469.52 2351.25,-1469.52 2351.25,-1469.52 2134,-1469.52 2134,-1469.52 2128,-1469.52 2122,-1463.52 2122,-1457.52 2122,-1457.52 2122,-881.52 2122,-881.52 2122,-875.52 2128,-869.52 2134,-869.52"/>
<text xml:space="preserve" text-anchor="middle" x="2242.62" y="-1452.22" font-family="Inter" font-size="14.00">Output Contracts</text>
</g>
<g id="clust2" class="cluster">
<title>cluster_runtime_assembly</title>
<path fill="none" stroke="#8c959f" d="M20,-1095.52C20,-1095.52 172.75,-1095.52 172.75,-1095.52 178.75,-1095.52 184.75,-1101.52 184.75,-1107.52 184.75,-1107.52 184.75,-1218.52 184.75,-1218.52 184.75,-1224.52 178.75,-1230.52 172.75,-1230.52 172.75,-1230.52 20,-1230.52 20,-1230.52 14,-1230.52 8,-1224.52 8,-1218.52 8,-1218.52 8,-1107.52 8,-1107.52 8,-1101.52 14,-1095.52 20,-1095.52"/>
<text xml:space="preserve" text-anchor="middle" x="96.38" y="-1213.22" font-family="Inter" font-size="14.00">Runtime Assembly</text>
</g>
<g id="clust3" class="cluster">
<title>cluster_system_wifi_contracts</title>
<path fill="none" stroke="#8c959f" d="M1738.12,-438.52C1738.12,-438.52 1906.62,-438.52 1906.62,-438.52 1912.62,-438.52 1918.62,-444.52 1918.62,-450.52 1918.62,-450.52 1918.62,-939.52 1918.62,-939.52 1918.62,-945.52 1912.62,-951.52 1906.62,-951.52 1906.62,-951.52 1738.12,-951.52 1738.12,-951.52 1732.12,-951.52 1726.12,-945.52 1726.12,-939.52 1726.12,-939.52 1726.12,-450.52 1726.12,-450.52 1726.12,-444.52 1732.12,-438.52 1738.12,-438.52"/>
<text xml:space="preserve" text-anchor="middle" x="1822.38" y="-934.22" font-family="Inter" font-size="14.00">WiFi Contracts</text>
</g>
<g id="clust4" class="cluster">
<title>cluster_agents</title>
<path fill="none" stroke="#8c959f" d="M294.75,-1261.52C294.75,-1261.52 572,-1261.52 572,-1261.52 578,-1261.52 584,-1267.52 584,-1273.52 584,-1273.52 584,-1327.52 584,-1327.52 584,-1333.52 578,-1339.52 572,-1339.52 572,-1339.52 294.75,-1339.52 294.75,-1339.52 288.75,-1339.52 282.75,-1333.52 282.75,-1327.52 282.75,-1327.52 282.75,-1273.52 282.75,-1273.52 282.75,-1267.52 288.75,-1261.52 294.75,-1261.52"/>
<text xml:space="preserve" text-anchor="middle" x="433.38" y="-1322.22" font-family="Inter" font-size="14.00">Agents</text>
</g>
<g id="clust5" class="cluster">
<title>cluster_resolvers</title>
<path fill="none" stroke="#8c959f" d="M733,-1305.52C733,-1305.52 1967.75,-1305.52 1967.75,-1305.52 1973.75,-1305.52 1979.75,-1311.52 1979.75,-1317.52 1979.75,-1317.52 1979.75,-1398.52 1979.75,-1398.52 1979.75,-1404.52 1973.75,-1410.52 1967.75,-1410.52 1967.75,-1410.52 733,-1410.52 733,-1410.52 727,-1410.52 721,-1404.52 721,-1398.52 721,-1398.52 721,-1317.52 721,-1317.52 721,-1311.52 727,-1305.52 733,-1305.52"/>
<text xml:space="preserve" text-anchor="middle" x="1350.38" y="-1393.22" font-family="Inter" font-size="14.00">Resolvers</text>
</g>
<g id="clust6" class="cluster">
<title>cluster_presentation_providers</title>
<path fill="none" stroke="#8c959f" d="M1742.62,-1045.52C1742.62,-1045.52 1902.12,-1045.52 1902.12,-1045.52 1908.12,-1045.52 1914.12,-1051.52 1914.12,-1057.52 1914.12,-1057.52 1914.12,-1285.52 1914.12,-1285.52 1914.12,-1291.52 1908.12,-1297.52 1902.12,-1297.52 1902.12,-1297.52 1742.62,-1297.52 1742.62,-1297.52 1736.62,-1297.52 1730.62,-1291.52 1730.62,-1285.52 1730.62,-1285.52 1730.62,-1057.52 1730.62,-1057.52 1730.62,-1051.52 1736.62,-1045.52 1742.62,-1045.52"/>
<text xml:space="preserve" text-anchor="middle" x="1822.38" y="-1280.22" font-family="Inter" font-size="14.00">Output Providers</text>
</g>
<g id="clust7" class="cluster">
<title>cluster_system_wifi_providers</title>
<path fill="none" stroke="#8c959f" d="M1185.88,-515.52C1185.88,-515.52 1367.88,-515.52 1367.88,-515.52 1373.88,-515.52 1379.88,-521.52 1379.88,-527.52 1379.88,-527.52 1379.88,-927.52 1379.88,-927.52 1379.88,-933.52 1373.88,-939.52 1367.88,-939.52 1367.88,-939.52 1185.88,-939.52 1185.88,-939.52 1179.88,-939.52 1173.88,-933.52 1173.88,-927.52 1173.88,-927.52 1173.88,-527.52 1173.88,-527.52 1173.88,-521.52 1179.88,-515.52 1185.88,-515.52"/>
<text xml:space="preserve" text-anchor="middle" x="1276.88" y="-922.22" font-family="Inter" font-size="14.00">WiFi Providers</text>
</g>
<g id="clust8" class="cluster">
<title>cluster_void_external_components</title>
<path fill="none" stroke="#8c959f" d="M1742.25,-90.52C1742.25,-90.52 2349.75,-90.52 2349.75,-90.52 2355.75,-90.52 2361.75,-96.52 2361.75,-102.52 2361.75,-102.52 2361.75,-417.52 2361.75,-417.52 2361.75,-423.52 2355.75,-429.52 2349.75,-429.52 2349.75,-429.52 1742.25,-429.52 1742.25,-429.52 1736.25,-429.52 1730.25,-423.52 1730.25,-417.52 1730.25,-417.52 1730.25,-102.52 1730.25,-102.52 1730.25,-96.52 1736.25,-90.52 1742.25,-90.52"/>
<text xml:space="preserve" text-anchor="middle" x="2046" y="-412.22" font-family="Inter" font-size="14.00">Void External Components</text>
</g>
<!-- WifiActionSelectionInputContract -->
<g id="node1" class="node">
<title>WifiActionSelectionInputContract</title>
<path fill="#f6f8fa" stroke="#2f3437" d="M2336.88,-1087.77C2336.88,-1087.77 2148.38,-1087.77 2148.38,-1087.77 2142.38,-1087.77 2136.38,-1081.77 2136.38,-1075.77 2136.38,-1075.77 2136.38,-1063.27 2136.38,-1063.27 2136.38,-1057.27 2142.38,-1051.27 2148.38,-1051.27 2148.38,-1051.27 2336.88,-1051.27 2336.88,-1051.27 2342.88,-1051.27 2348.88,-1057.27 2348.88,-1063.27 2348.88,-1063.27 2348.88,-1075.77 2348.88,-1075.77 2348.88,-1081.77 2342.88,-1087.77 2336.88,-1087.77"/>
<text xml:space="preserve" text-anchor="middle" x="2242.62" y="-1072.37" font-family="Inter" font-size="12.00" fill="#1f2328">&lt;&lt;contract / trait&gt;&gt;</text>
<text xml:space="preserve" text-anchor="middle" x="2242.62" y="-1058.12" font-family="Inter" font-size="12.00" fill="#1f2328">WifiActionSelectionInputContract</text>
</g>
<!-- WifiNetworkSelectionInputContract -->
<g id="node2" class="node">
<title>WifiNetworkSelectionInputContract</title>
<path fill="#f6f8fa" stroke="#2f3437" d="M2343.25,-1000.77C2343.25,-1000.77 2142,-1000.77 2142,-1000.77 2136,-1000.77 2130,-994.77 2130,-988.77 2130,-988.77 2130,-976.27 2130,-976.27 2130,-970.27 2136,-964.27 2142,-964.27 2142,-964.27 2343.25,-964.27 2343.25,-964.27 2349.25,-964.27 2355.25,-970.27 2355.25,-976.27 2355.25,-976.27 2355.25,-988.77 2355.25,-988.77 2355.25,-994.77 2349.25,-1000.77 2343.25,-1000.77"/>
<text xml:space="preserve" text-anchor="middle" x="2242.62" y="-985.37" font-family="Inter" font-size="12.00" fill="#1f2328">&lt;&lt;contract / trait&gt;&gt;</text>
<text xml:space="preserve" text-anchor="middle" x="2242.62" y="-971.12" font-family="Inter" font-size="12.00" fill="#1f2328">WifiNetworkSelectionInputContract</text>
</g>
<!-- WifiPasswordInputContract -->
<g id="node3" class="node">
<title>WifiPasswordInputContract</title>
<path fill="#f6f8fa" stroke="#2f3437" d="M2318.5,-913.77C2318.5,-913.77 2166.75,-913.77 2166.75,-913.77 2160.75,-913.77 2154.75,-907.77 2154.75,-901.77 2154.75,-901.77 2154.75,-889.27 2154.75,-889.27 2154.75,-883.27 2160.75,-877.27 2166.75,-877.27 2166.75,-877.27 2318.5,-877.27 2318.5,-877.27 2324.5,-877.27 2330.5,-883.27 2330.5,-889.27 2330.5,-889.27 2330.5,-901.77 2330.5,-901.77 2330.5,-907.77 2324.5,-913.77 2318.5,-913.77"/>
<text xml:space="preserve" text-anchor="middle" x="2242.62" y="-898.37" font-family="Inter" font-size="12.00" fill="#1f2328">&lt;&lt;contract / trait&gt;&gt;</text>
<text xml:space="preserve" text-anchor="middle" x="2242.62" y="-884.12" font-family="Inter" font-size="12.00" fill="#1f2328">WifiPasswordInputContract</text>
</g>
<!-- WifiNetworkOutputContract -->
<g id="node4" class="node">
<title>WifiNetworkOutputContract</title>
<path fill="#f6f8fa" stroke="#2f3437" d="M2321.12,-1174.77C2321.12,-1174.77 2164.12,-1174.77 2164.12,-1174.77 2158.12,-1174.77 2152.12,-1168.77 2152.12,-1162.77 2152.12,-1162.77 2152.12,-1150.27 2152.12,-1150.27 2152.12,-1144.27 2158.12,-1138.27 2164.12,-1138.27 2164.12,-1138.27 2321.12,-1138.27 2321.12,-1138.27 2327.12,-1138.27 2333.12,-1144.27 2333.12,-1150.27 2333.12,-1150.27 2333.12,-1162.77 2333.12,-1162.77 2333.12,-1168.77 2327.12,-1174.77 2321.12,-1174.77"/>
<text xml:space="preserve" text-anchor="middle" x="2242.62" y="-1159.37" font-family="Inter" font-size="12.00" fill="#1f2328">&lt;&lt;contract / trait&gt;&gt;</text>
<text xml:space="preserve" text-anchor="middle" x="2242.62" y="-1145.12" font-family="Inter" font-size="12.00" fill="#1f2328">WifiNetworkOutputContract</text>
</g>
<!-- WifiStatusOutputContract -->
<g id="node5" class="node">
<title>WifiStatusOutputContract</title>
<path fill="#f6f8fa" stroke="#2f3437" d="M2314.75,-1435.77C2314.75,-1435.77 2170.5,-1435.77 2170.5,-1435.77 2164.5,-1435.77 2158.5,-1429.77 2158.5,-1423.77 2158.5,-1423.77 2158.5,-1411.27 2158.5,-1411.27 2158.5,-1405.27 2164.5,-1399.27 2170.5,-1399.27 2170.5,-1399.27 2314.75,-1399.27 2314.75,-1399.27 2320.75,-1399.27 2326.75,-1405.27 2326.75,-1411.27 2326.75,-1411.27 2326.75,-1423.77 2326.75,-1423.77 2326.75,-1429.77 2320.75,-1435.77 2314.75,-1435.77"/>
<text xml:space="preserve" text-anchor="middle" x="2242.62" y="-1420.37" font-family="Inter" font-size="12.00" fill="#1f2328">&lt;&lt;contract / trait&gt;&gt;</text>
<text xml:space="preserve" text-anchor="middle" x="2242.62" y="-1406.12" font-family="Inter" font-size="12.00" fill="#1f2328">WifiStatusOutputContract</text>
</g>
<!-- WifiSecretOutputContract -->
<g id="node6" class="node">
<title>WifiSecretOutputContract</title>
<path fill="#f6f8fa" stroke="#2f3437" d="M2315.12,-1348.77C2315.12,-1348.77 2170.12,-1348.77 2170.12,-1348.77 2164.12,-1348.77 2158.12,-1342.77 2158.12,-1336.77 2158.12,-1336.77 2158.12,-1324.27 2158.12,-1324.27 2158.12,-1318.27 2164.12,-1312.27 2170.12,-1312.27 2170.12,-1312.27 2315.12,-1312.27 2315.12,-1312.27 2321.12,-1312.27 2327.12,-1318.27 2327.12,-1324.27 2327.12,-1324.27 2327.12,-1336.77 2327.12,-1336.77 2327.12,-1342.77 2321.12,-1348.77 2315.12,-1348.77"/>
<text xml:space="preserve" text-anchor="middle" x="2242.62" y="-1333.37" font-family="Inter" font-size="12.00" fill="#1f2328">&lt;&lt;contract / trait&gt;&gt;</text>
<text xml:space="preserve" text-anchor="middle" x="2242.62" y="-1319.12" font-family="Inter" font-size="12.00" fill="#1f2328">WifiSecretOutputContract</text>
</g>
<!-- WifiMessageOutputContract -->
<g id="node7" class="node">
<title>WifiMessageOutputContract</title>
<path fill="#f6f8fa" stroke="#2f3437" d="M2322.25,-1261.77C2322.25,-1261.77 2163,-1261.77 2163,-1261.77 2157,-1261.77 2151,-1255.77 2151,-1249.77 2151,-1249.77 2151,-1237.27 2151,-1237.27 2151,-1231.27 2157,-1225.27 2163,-1225.27 2163,-1225.27 2322.25,-1225.27 2322.25,-1225.27 2328.25,-1225.27 2334.25,-1231.27 2334.25,-1237.27 2334.25,-1237.27 2334.25,-1249.77 2334.25,-1249.77 2334.25,-1255.77 2328.25,-1261.77 2322.25,-1261.77"/>
<text xml:space="preserve" text-anchor="middle" x="2242.62" y="-1246.37" font-family="Inter" font-size="12.00" fill="#1f2328">&lt;&lt;contract / trait&gt;&gt;</text>
<text xml:space="preserve" text-anchor="middle" x="2242.62" y="-1232.12" font-family="Inter" font-size="12.00" fill="#1f2328">WifiMessageOutputContract</text>
</g>
<!-- EvoWifiCompositionRoot -->
<g id="node8" class="node">
<title>EvoWifiCompositionRoot</title>
<path fill="#ddf4ff" stroke="#2f3437" d="M164.75,-1197.14C164.75,-1197.14 28,-1197.14 28,-1197.14 22,-1197.14 16,-1191.14 16,-1185.14 16,-1185.14 16,-1115.89 16,-1115.89 16,-1109.89 22,-1103.89 28,-1103.89 28,-1103.89 164.75,-1103.89 164.75,-1103.89 170.75,-1103.89 176.75,-1109.89 176.75,-1115.89 176.75,-1115.89 176.75,-1185.14 176.75,-1185.14 176.75,-1191.14 170.75,-1197.14 164.75,-1197.14"/>
<text xml:space="preserve" text-anchor="middle" x="96.38" y="-1181.74" font-family="Inter" font-size="12.00" fill="#1f2328">&lt;&lt;composition root&gt;&gt;</text>
<text xml:space="preserve" text-anchor="middle" x="96.38" y="-1167.49" font-family="Inter" font-size="12.00" fill="#1f2328">EvoWifiCompositionRoot</text>
<text xml:space="preserve" text-anchor="middle" x="96.38" y="-1139.24" font-family="Inter" font-size="12.00" fill="#1f2328">creates providers</text>
<text xml:space="preserve" text-anchor="middle" x="96.38" y="-1124.99" font-family="Inter" font-size="12.00" fill="#1f2328">invokes agent_subject</text>
<text xml:space="preserve" text-anchor="middle" x="96.38" y="-1110.74" font-family="Inter" font-size="12.00" fill="#1f2328">no use&#45;case logic</text>
</g>
<!-- WifiConnectionStatusShower -->
<g id="node15" class="node">
<title>WifiConnectionStatusShower</title>
<path fill="#ddf4ff" stroke="#2f3437" d="M564,-1305.77C564,-1305.77 302.75,-1305.77 302.75,-1305.77 296.75,-1305.77 290.75,-1299.77 290.75,-1293.77 290.75,-1293.77 290.75,-1281.27 290.75,-1281.27 290.75,-1275.27 296.75,-1269.27 302.75,-1269.27 302.75,-1269.27 564,-1269.27 564,-1269.27 570,-1269.27 576,-1275.27 576,-1281.27 576,-1281.27 576,-1293.77 576,-1293.77 576,-1299.77 570,-1305.77 564,-1305.77"/>
<text xml:space="preserve" text-anchor="middle" x="433.38" y="-1290.37" font-family="Inter" font-size="12.00" fill="#1f2328">&lt;&lt;agent_subject&gt;&gt;</text>
<text xml:space="preserve" text-anchor="middle" x="433.38" y="-1276.12" font-family="Inter" font-size="12.00" fill="#1f2328">agents::wifi_connection_status_shower::show</text>
</g>
<!-- EvoWifiCompositionRoot&#45;&gt;WifiConnectionStatusShower -->
<g id="edge4" class="edge">
<title>EvoWifiCompositionRoot&#45;&gt;WifiConnectionStatusShower</title>
<path fill="none" stroke="#59636e" d="M177.19,-1183.16C239.54,-1208.65 324.45,-1243.38 378.86,-1265.63"/>
<polygon fill="#59636e" stroke="#59636e" points="377.85,-1267.86 385.25,-1268.24 379.7,-1263.33 377.85,-1267.86"/>
<text xml:space="preserve" text-anchor="middle" x="233.75" y="-1213.86" font-family="Inter" font-size="11.00" fill="#59636e">invokes</text>
</g>
<!-- TerminalOutputProvider -->
<g id="node19" class="node">
<title>TerminalOutputProvider</title>
<path fill="#ddf4ff" stroke="#2f3437" d="M1888.5,-1263.77C1888.5,-1263.77 1756.25,-1263.77 1756.25,-1263.77 1750.25,-1263.77 1744.25,-1257.77 1744.25,-1251.77 1744.25,-1251.77 1744.25,-1239.27 1744.25,-1239.27 1744.25,-1233.27 1750.25,-1227.27 1756.25,-1227.27 1756.25,-1227.27 1888.5,-1227.27 1888.5,-1227.27 1894.5,-1227.27 1900.5,-1233.27 1900.5,-1239.27 1900.5,-1239.27 1900.5,-1251.77 1900.5,-1251.77 1900.5,-1257.77 1894.5,-1263.77 1888.5,-1263.77"/>
<text xml:space="preserve" text-anchor="middle" x="1822.38" y="-1248.37" font-family="Inter" font-size="12.00" fill="#1f2328">&lt;&lt;provider&gt;&gt;</text>
<text xml:space="preserve" text-anchor="middle" x="1822.38" y="-1234.12" font-family="Inter" font-size="12.00" fill="#1f2328">TerminalOutputProvider</text>
</g>
<!-- EvoWifiCompositionRoot&#45;&gt;TerminalOutputProvider -->
<g id="edge3" class="edge">
<title>EvoWifiCompositionRoot&#45;&gt;TerminalOutputProvider</title>
<path fill="none" stroke="#59636e" d="M177.25,-1150.52C245.12,-1150.52 345.14,-1150.52 432.38,-1150.52 432.38,-1150.52 432.38,-1150.52 1040.38,-1150.52 1306.33,-1150.52 1374.81,-1151.95 1637,-1196.52 1676.3,-1203.19 1719.4,-1214.42 1754.04,-1224.45"/>
<polygon fill="#59636e" stroke="#59636e" points="1753.34,-1226.8 1760.74,-1226.41 1754.71,-1222.09 1753.34,-1226.8"/>
<text xml:space="preserve" text-anchor="middle" x="828.88" y="-1153.57" font-family="Inter" font-size="11.00" fill="#59636e">creates</text>
</g>
<!-- VoidWifiProvider -->
<g id="node22" class="node">
<title>VoidWifiProvider</title>
<path fill="#ddf4ff" stroke="#2f3437" d="M1350.12,-645.39C1350.12,-645.39 1203.62,-645.39 1203.62,-645.39 1197.62,-645.39 1191.62,-639.39 1191.62,-633.39 1191.62,-633.39 1191.62,-535.64 1191.62,-535.64 1191.62,-529.64 1197.62,-523.64 1203.62,-523.64 1203.62,-523.64 1350.12,-523.64 1350.12,-523.64 1356.12,-523.64 1362.12,-529.64 1362.12,-535.64 1362.12,-535.64 1362.12,-633.39 1362.12,-633.39 1362.12,-639.39 1356.12,-645.39 1350.12,-645.39"/>
<text xml:space="preserve" text-anchor="middle" x="1276.88" y="-629.99" font-family="Inter" font-size="12.00" fill="#1f2328">&lt;&lt;provider&gt;&gt;</text>
<text xml:space="preserve" text-anchor="middle" x="1276.88" y="-615.74" font-family="Inter" font-size="12.00" fill="#1f2328">VoidWifiProvider</text>
<text xml:space="preserve" text-anchor="middle" x="1276.88" y="-587.49" font-family="Inter" font-size="12.00" fill="#1f2328">uses:</text>
<text xml:space="preserve" text-anchor="middle" x="1276.88" y="-573.24" font-family="Inter" font-size="12.00" fill="#1f2328">&#45; wpa_supplicant / wpa_cli</text>
<text xml:space="preserve" text-anchor="middle" x="1276.88" y="-558.99" font-family="Inter" font-size="12.00" fill="#1f2328">&#45; dhcpcd</text>
<text xml:space="preserve" text-anchor="middle" x="1276.88" y="-544.74" font-family="Inter" font-size="12.00" fill="#1f2328">&#45; iw / ip</text>
<text xml:space="preserve" text-anchor="middle" x="1276.88" y="-530.49" font-family="Inter" font-size="12.00" fill="#1f2328">&#45; runit / sv</text>
</g>
<!-- EvoWifiCompositionRoot&#45;&gt;VoidWifiProvider -->
<g id="edge2" class="edge">
<title>EvoWifiCompositionRoot&#45;&gt;VoidWifiProvider</title>
<path fill="none" stroke="#59636e" d="M176.99,-1112.28C387.76,-1011.05 959.43,-736.49 1183.76,-628.75"/>
<polygon fill="#59636e" stroke="#59636e" points="1184.66,-631.04 1189.91,-625.8 1182.54,-626.63 1184.66,-631.04"/>
<text xml:space="preserve" text-anchor="middle" x="652.5" y="-903.15" font-family="Inter" font-size="11.00" fill="#59636e">creates</text>
</g>
<!-- WifiScanContract -->
<g id="node9" class="node">
<title>WifiScanContract</title>
<path fill="#f6f8fa" stroke="#2f3437" d="M1881,-830.77C1881,-830.77 1763.75,-830.77 1763.75,-830.77 1757.75,-830.77 1751.75,-824.77 1751.75,-818.77 1751.75,-818.77 1751.75,-806.27 1751.75,-806.27 1751.75,-800.27 1757.75,-794.27 1763.75,-794.27 1763.75,-794.27 1881,-794.27 1881,-794.27 1887,-794.27 1893,-800.27 1893,-806.27 1893,-806.27 1893,-818.77 1893,-818.77 1893,-824.77 1887,-830.77 1881,-830.77"/>
<text xml:space="preserve" text-anchor="middle" x="1822.38" y="-815.37" font-family="Inter" font-size="12.00" fill="#1f2328">&lt;&lt;contract / trait&gt;&gt;</text>
<text xml:space="preserve" text-anchor="middle" x="1822.38" y="-801.12" font-family="Inter" font-size="12.00" fill="#1f2328">WifiScanContract</text>
</g>
<!-- WifiStatusContract -->
<g id="node10" class="node">
<title>WifiStatusContract</title>
<path fill="#f6f8fa" stroke="#2f3437" d="M1881,-917.77C1881,-917.77 1763.75,-917.77 1763.75,-917.77 1757.75,-917.77 1751.75,-911.77 1751.75,-905.77 1751.75,-905.77 1751.75,-893.27 1751.75,-893.27 1751.75,-887.27 1757.75,-881.27 1763.75,-881.27 1763.75,-881.27 1881,-881.27 1881,-881.27 1887,-881.27 1893,-887.27 1893,-893.27 1893,-893.27 1893,-905.77 1893,-905.77 1893,-911.77 1887,-917.77 1881,-917.77"/>
<text xml:space="preserve" text-anchor="middle" x="1822.38" y="-902.37" font-family="Inter" font-size="12.00" fill="#1f2328">&lt;&lt;contract / trait&gt;&gt;</text>
<text xml:space="preserve" text-anchor="middle" x="1822.38" y="-888.12" font-family="Inter" font-size="12.00" fill="#1f2328">WifiStatusContract</text>
</g>
<!-- WifiConnectContract -->
<g id="node11" class="node">
<title>WifiConnectContract</title>
<path fill="#f6f8fa" stroke="#2f3437" d="M1881,-569.77C1881,-569.77 1763.75,-569.77 1763.75,-569.77 1757.75,-569.77 1751.75,-563.77 1751.75,-557.77 1751.75,-557.77 1751.75,-545.27 1751.75,-545.27 1751.75,-539.27 1757.75,-533.27 1763.75,-533.27 1763.75,-533.27 1881,-533.27 1881,-533.27 1887,-533.27 1893,-539.27 1893,-545.27 1893,-545.27 1893,-557.77 1893,-557.77 1893,-563.77 1887,-569.77 1881,-569.77"/>
<text xml:space="preserve" text-anchor="middle" x="1822.38" y="-554.37" font-family="Inter" font-size="12.00" fill="#1f2328">&lt;&lt;contract / trait&gt;&gt;</text>
<text xml:space="preserve" text-anchor="middle" x="1822.38" y="-540.12" font-family="Inter" font-size="12.00" fill="#1f2328">WifiConnectContract</text>
</g>
<!-- WifiSavedNetworkContract -->
<g id="node12" class="node">
<title>WifiSavedNetworkContract</title>
<path fill="#f6f8fa" stroke="#2f3437" d="M1898.62,-482.77C1898.62,-482.77 1746.12,-482.77 1746.12,-482.77 1740.12,-482.77 1734.12,-476.77 1734.12,-470.77 1734.12,-470.77 1734.12,-458.27 1734.12,-458.27 1734.12,-452.27 1740.12,-446.27 1746.12,-446.27 1746.12,-446.27 1898.62,-446.27 1898.62,-446.27 1904.62,-446.27 1910.62,-452.27 1910.62,-458.27 1910.62,-458.27 1910.62,-470.77 1910.62,-470.77 1910.62,-476.77 1904.62,-482.77 1898.62,-482.77"/>
<text xml:space="preserve" text-anchor="middle" x="1822.38" y="-467.37" font-family="Inter" font-size="12.00" fill="#1f2328">&lt;&lt;contract / trait&gt;&gt;</text>
<text xml:space="preserve" text-anchor="middle" x="1822.38" y="-453.12" font-family="Inter" font-size="12.00" fill="#1f2328">WifiSavedNetworkContract</text>
</g>
<!-- WifiSavedSecretContract -->
<g id="node13" class="node">
<title>WifiSavedSecretContract</title>
<path fill="#f6f8fa" stroke="#2f3437" d="M1892.62,-743.77C1892.62,-743.77 1752.12,-743.77 1752.12,-743.77 1746.12,-743.77 1740.12,-737.77 1740.12,-731.77 1740.12,-731.77 1740.12,-719.27 1740.12,-719.27 1740.12,-713.27 1746.12,-707.27 1752.12,-707.27 1752.12,-707.27 1892.62,-707.27 1892.62,-707.27 1898.62,-707.27 1904.62,-713.27 1904.62,-719.27 1904.62,-719.27 1904.62,-731.77 1904.62,-731.77 1904.62,-737.77 1898.62,-743.77 1892.62,-743.77"/>
<text xml:space="preserve" text-anchor="middle" x="1822.38" y="-728.37" font-family="Inter" font-size="12.00" fill="#1f2328">&lt;&lt;contract / trait&gt;&gt;</text>
<text xml:space="preserve" text-anchor="middle" x="1822.38" y="-714.12" font-family="Inter" font-size="12.00" fill="#1f2328">WifiSavedSecretContract</text>
</g>
<!-- WifiForgetContract -->
<g id="node14" class="node">
<title>WifiForgetContract</title>
<path fill="#f6f8fa" stroke="#2f3437" d="M1881,-656.77C1881,-656.77 1763.75,-656.77 1763.75,-656.77 1757.75,-656.77 1751.75,-650.77 1751.75,-644.77 1751.75,-644.77 1751.75,-632.27 1751.75,-632.27 1751.75,-626.27 1757.75,-620.27 1763.75,-620.27 1763.75,-620.27 1881,-620.27 1881,-620.27 1887,-620.27 1893,-626.27 1893,-632.27 1893,-632.27 1893,-644.77 1893,-644.77 1893,-650.77 1887,-656.77 1881,-656.77"/>
<text xml:space="preserve" text-anchor="middle" x="1822.38" y="-641.37" font-family="Inter" font-size="12.00" fill="#1f2328">&lt;&lt;contract / trait&gt;&gt;</text>
<text xml:space="preserve" text-anchor="middle" x="1822.38" y="-627.12" font-family="Inter" font-size="12.00" fill="#1f2328">WifiForgetContract</text>
</g>
<!-- WifiInterfaceResolver -->
<g id="node16" class="node">
<title>WifiInterfaceResolver</title>
<path fill="#f6f8fa" stroke="#2f3437" d="M916.75,-1349.77C916.75,-1349.77 741,-1349.77 741,-1349.77 735,-1349.77 729,-1343.77 729,-1337.77 729,-1337.77 729,-1325.27 729,-1325.27 729,-1319.27 735,-1313.27 741,-1313.27 741,-1313.27 916.75,-1313.27 916.75,-1313.27 922.75,-1313.27 928.75,-1319.27 928.75,-1325.27 928.75,-1325.27 928.75,-1337.77 928.75,-1337.77 928.75,-1343.77 922.75,-1349.77 916.75,-1349.77"/>
<text xml:space="preserve" text-anchor="middle" x="828.88" y="-1334.37" font-family="Inter" font-size="12.00" fill="#1f2328">&lt;&lt;resolver&gt;&gt;</text>
<text xml:space="preserve" text-anchor="middle" x="828.88" y="-1320.12" font-family="Inter" font-size="12.00" fill="#1f2328">wifi_interface_resolver::resolve</text>
</g>
<!-- WifiConnectionStatusShower&#45;&gt;WifiInterfaceResolver -->
<g id="edge31" class="edge">
<title>WifiConnectionStatusShower&#45;&gt;WifiInterfaceResolver</title>
<path fill="none" stroke="#59636e" d="M576.44,-1303.4C623.9,-1308.71 675.97,-1314.53 720.35,-1319.49"/>
<polygon fill="#59636e" stroke="#59636e" points="719.81,-1321.9 727.04,-1320.24 720.36,-1317.03 719.81,-1321.9"/>
<text xml:space="preserve" text-anchor="middle" x="652.5" y="-1319.08" font-family="Inter" font-size="11.00" fill="#59636e">pipeline step 1</text>
</g>
<!-- WifiInterfaceResolver&#45;&gt;WifiStatusContract -->
<g id="edge34" class="edge">
<title>WifiInterfaceResolver&#45;&gt;WifiStatusContract</title>
<path fill="none" stroke="#59636e" stroke-dasharray="5,2" d="M923.02,-1312.77C1084.09,-1276.42 1418.34,-1183.26 1637,-999.52 1659.94,-980.24 1649.05,-960.52 1673,-942.52 1693.32,-927.24 1718.93,-917.38 1743.13,-911.02"/>
<polygon fill="#59636e" stroke="#59636e" points="1743.6,-913.43 1749.81,-909.36 1742.42,-908.67 1743.6,-913.43"/>
<text xml:space="preserve" text-anchor="middle" x="1276.88" y="-1251.36" font-family="Inter" font-size="11.00" fill="#59636e">uses</text>
</g>
<!-- WifiConnectionStatusResolver -->
<g id="node17" class="node">
<title>WifiConnectionStatusResolver</title>
<path fill="#f6f8fa" stroke="#2f3437" d="M1391.75,-1376.77C1391.75,-1376.77 1162,-1376.77 1162,-1376.77 1156,-1376.77 1150,-1370.77 1150,-1364.77 1150,-1364.77 1150,-1352.27 1150,-1352.27 1150,-1346.27 1156,-1340.27 1162,-1340.27 1162,-1340.27 1391.75,-1340.27 1391.75,-1340.27 1397.75,-1340.27 1403.75,-1346.27 1403.75,-1352.27 1403.75,-1352.27 1403.75,-1364.77 1403.75,-1364.77 1403.75,-1370.77 1397.75,-1376.77 1391.75,-1376.77"/>
<text xml:space="preserve" text-anchor="middle" x="1276.88" y="-1361.37" font-family="Inter" font-size="12.00" fill="#1f2328">&lt;&lt;resolver&gt;&gt;</text>
<text xml:space="preserve" text-anchor="middle" x="1276.88" y="-1347.12" font-family="Inter" font-size="12.00" fill="#1f2328">wifi_connection_status_resolver::resolve</text>
</g>
<!-- WifiInterfaceResolver&#45;&gt;WifiConnectionStatusResolver -->
<g id="edge32" class="edge">
<title>WifiInterfaceResolver&#45;&gt;WifiConnectionStatusResolver</title>
<path fill="none" stroke="#59636e" d="M929.13,-1337.52C991.66,-1341.31 1073.18,-1346.24 1141.46,-1350.38"/>
<polygon fill="#59636e" stroke="#59636e" points="1141.08,-1352.81 1148.21,-1350.79 1141.37,-1347.92 1141.08,-1352.81"/>
<text xml:space="preserve" text-anchor="middle" x="1039.38" y="-1351.28" font-family="Inter" font-size="11.00" fill="#59636e">WifiInterfaceBorrowed&lt;&#39;a&gt;</text>
</g>
<!-- WifiConnectionStatusResolver&#45;&gt;WifiStatusContract -->
<g id="edge35" class="edge">
<title>WifiConnectionStatusResolver&#45;&gt;WifiStatusContract</title>
<path fill="none" stroke="#59636e" stroke-dasharray="5,2" d="M1343.62,-1339.85C1426.98,-1312.46 1568.14,-1252.83 1637,-1147.52 1687.62,-1070.09 1611.22,-1011.37 1673,-942.52 1690.94,-922.52 1717.55,-911.59 1743.31,-905.69"/>
<polygon fill="#59636e" stroke="#59636e" points="1743.8,-908.09 1750.15,-904.26 1742.79,-903.3 1743.8,-908.09"/>
<text xml:space="preserve" text-anchor="middle" x="1538.38" y="-1301.31" font-family="Inter" font-size="11.00" fill="#59636e">uses</text>
</g>
<!-- WifiConnectionStatusOutputResolver -->
<g id="node18" class="node">
<title>WifiConnectionStatusOutputResolver</title>
<path fill="#f6f8fa" stroke="#2f3437" d="M1959.75,-1376.77C1959.75,-1376.77 1685,-1376.77 1685,-1376.77 1679,-1376.77 1673,-1370.77 1673,-1364.77 1673,-1364.77 1673,-1352.27 1673,-1352.27 1673,-1346.27 1679,-1340.27 1685,-1340.27 1685,-1340.27 1959.75,-1340.27 1959.75,-1340.27 1965.75,-1340.27 1971.75,-1346.27 1971.75,-1352.27 1971.75,-1352.27 1971.75,-1364.77 1971.75,-1364.77 1971.75,-1370.77 1965.75,-1376.77 1959.75,-1376.77"/>
<text xml:space="preserve" text-anchor="middle" x="1822.38" y="-1361.37" font-family="Inter" font-size="12.00" fill="#1f2328">&lt;&lt;resolver&gt;&gt;</text>
<text xml:space="preserve" text-anchor="middle" x="1822.38" y="-1347.12" font-family="Inter" font-size="12.00" fill="#1f2328">wifi_connection_status_output_resolver::resolve</text>
</g>
<!-- WifiConnectionStatusResolver&#45;&gt;WifiConnectionStatusOutputResolver -->
<g id="edge33" class="edge">
<title>WifiConnectionStatusResolver&#45;&gt;WifiConnectionStatusOutputResolver</title>
<path fill="none" stroke="#59636e" d="M1403.93,-1358.52C1481.54,-1358.52 1581.67,-1358.52 1664.4,-1358.52"/>
<polygon fill="#59636e" stroke="#59636e" points="1664.35,-1360.97 1671.35,-1358.52 1664.35,-1356.07 1664.35,-1360.97"/>
<text xml:space="preserve" text-anchor="middle" x="1538.38" y="-1361.57" font-family="Inter" font-size="11.00" fill="#59636e">WifiConnectionStatusBorrowed&lt;&#39;a&gt;</text>
</g>
<!-- WifiConnectionStatusOutputResolver&#45;&gt;WifiStatusOutputContract -->
<g id="edge36" class="edge">
<title>WifiConnectionStatusOutputResolver&#45;&gt;WifiStatusOutputContract</title>
<path fill="none" stroke="#59636e" stroke-dasharray="5,2" d="M1864.43,-1377.23C1901.12,-1392.86 1956.8,-1413.92 2007.75,-1422.52 2045.55,-1428.89 2055.67,-1423.16 2094,-1422.52 2112.01,-1422.21 2131.25,-1421.7 2149.69,-1421.11"/>
<polygon fill="#59636e" stroke="#59636e" points="2149.67,-1423.56 2156.59,-1420.89 2149.51,-1418.67 2149.67,-1423.56"/>
<text xml:space="preserve" text-anchor="middle" x="2050.88" y="-1428.55" font-family="Inter" font-size="11.00" fill="#59636e">uses</text>
</g>
<!-- TerminalOutputProvider&#45;&gt;WifiNetworkOutputContract -->
<g id="edge7" class="edge">
<title>TerminalOutputProvider&#45;&gt;WifiNetworkOutputContract</title>
<path fill="none" stroke="#59636e" d="M1900.58,-1229.09C1969.69,-1214.38 2071.31,-1192.76 2145.64,-1176.94"/>
<polygon fill="#59636e" stroke="#59636e" points="2145.84,-1179.4 2152.18,-1175.55 2144.82,-1174.61 2145.84,-1179.4"/>
<text xml:space="preserve" text-anchor="middle" x="2050.88" y="-1206.73" font-family="Inter" font-size="11.00" fill="#59636e">implements</text>
</g>
<!-- TerminalOutputProvider&#45;&gt;WifiStatusOutputContract -->
<g id="edge8" class="edge">
<title>TerminalOutputProvider&#45;&gt;WifiStatusOutputContract</title>
<path fill="none" stroke="#59636e" d="M1900.78,-1260.71C1927.13,-1268.05 1955.91,-1278.61 1979.75,-1293.52 1995.21,-1303.19 1992.87,-1312.97 2007.75,-1323.52 2052.98,-1355.55 2070.58,-1352.83 2122,-1373.52 2140.95,-1381.14 2161.79,-1388.99 2180.69,-1395.9"/>
<polygon fill="#59636e" stroke="#59636e" points="2179.82,-1398.2 2187.24,-1398.29 2181.5,-1393.59 2179.82,-1398.2"/>
<text xml:space="preserve" text-anchor="middle" x="2050.88" y="-1365.69" font-family="Inter" font-size="11.00" fill="#59636e">implements</text>
</g>
<!-- TerminalOutputProvider&#45;&gt;WifiSecretOutputContract -->
<g id="edge9" class="edge">
<title>TerminalOutputProvider&#45;&gt;WifiSecretOutputContract</title>
<path fill="none" stroke="#59636e" d="M1900.58,-1261.2C1970.95,-1275.51 2075,-1296.65 2149.66,-1311.82"/>
<polygon fill="#59636e" stroke="#59636e" points="2148.87,-1314.16 2156.21,-1313.16 2149.84,-1309.36 2148.87,-1314.16"/>
<text xml:space="preserve" text-anchor="middle" x="2050.88" y="-1301.18" font-family="Inter" font-size="11.00" fill="#59636e">implements</text>
</g>
<!-- TerminalOutputProvider&#45;&gt;WifiMessageOutputContract -->
<g id="edge10" class="edge">
<title>TerminalOutputProvider&#45;&gt;WifiMessageOutputContract</title>
<path fill="none" stroke="#59636e" d="M1900.58,-1245.15C1968.65,-1244.82 2068.23,-1244.34 2142.24,-1243.99"/>
<polygon fill="#59636e" stroke="#59636e" points="2142.18,-1246.44 2149.16,-1243.96 2142.15,-1241.54 2142.18,-1246.44"/>
<text xml:space="preserve" text-anchor="middle" x="2050.88" y="-1247.63" font-family="Inter" font-size="11.00" fill="#59636e">implements</text>
</g>
<!-- TuiInputProvider -->
<g id="node20" class="node">
<title>TuiInputProvider</title>
<path fill="#fff8c5" stroke="#2f3437" d="M1894.12,-1176.77C1894.12,-1176.77 1750.62,-1176.77 1750.62,-1176.77 1744.62,-1176.77 1738.62,-1170.77 1738.62,-1164.77 1738.62,-1164.77 1738.62,-1152.27 1738.62,-1152.27 1738.62,-1146.27 1744.62,-1140.27 1750.62,-1140.27 1750.62,-1140.27 1894.12,-1140.27 1894.12,-1140.27 1900.12,-1140.27 1906.12,-1146.27 1906.12,-1152.27 1906.12,-1152.27 1906.12,-1164.77 1906.12,-1164.77 1906.12,-1170.77 1900.12,-1176.77 1894.12,-1176.77"/>
<text xml:space="preserve" text-anchor="middle" x="1822.38" y="-1161.37" font-family="Inter" font-size="12.00" fill="#1f2328">&lt;&lt;provider candidate&gt;&gt;</text>
<text xml:space="preserve" text-anchor="middle" x="1822.38" y="-1147.12" font-family="Inter" font-size="12.00" fill="#1f2328">TuiInputProvider</text>
</g>
<!-- TuiInputProvider&#45;&gt;WifiActionSelectionInputContract -->
<g id="edge11" class="edge">
<title>TuiInputProvider&#45;&gt;WifiActionSelectionInputContract</title>
<path fill="none" stroke="#59636e" stroke-dasharray="5,2" d="M1906.51,-1140.83C1975.32,-1126.18 2073.16,-1105.36 2145.37,-1090"/>
<polygon fill="#59636e" stroke="#59636e" points="2145.78,-1092.41 2152.12,-1088.56 2144.76,-1087.62 2145.78,-1092.41"/>
<text xml:space="preserve" text-anchor="middle" x="2050.88" y="-1119.73" font-family="Inter" font-size="11.00" fill="#59636e">may implement</text>
</g>
<!-- WebInputProvider -->
<g id="node21" class="node">
<title>WebInputProvider</title>
<path fill="#fff8c5" stroke="#2f3437" d="M1894.12,-1089.77C1894.12,-1089.77 1750.62,-1089.77 1750.62,-1089.77 1744.62,-1089.77 1738.62,-1083.77 1738.62,-1077.77 1738.62,-1077.77 1738.62,-1065.27 1738.62,-1065.27 1738.62,-1059.27 1744.62,-1053.27 1750.62,-1053.27 1750.62,-1053.27 1894.12,-1053.27 1894.12,-1053.27 1900.12,-1053.27 1906.12,-1059.27 1906.12,-1065.27 1906.12,-1065.27 1906.12,-1077.77 1906.12,-1077.77 1906.12,-1083.77 1900.12,-1089.77 1894.12,-1089.77"/>
<text xml:space="preserve" text-anchor="middle" x="1822.38" y="-1074.37" font-family="Inter" font-size="12.00" fill="#1f2328">&lt;&lt;provider candidate&gt;&gt;</text>
<text xml:space="preserve" text-anchor="middle" x="1822.38" y="-1060.12" font-family="Inter" font-size="12.00" fill="#1f2328">WebInputProvider</text>
</g>
<!-- WebInputProvider&#45;&gt;WifiActionSelectionInputContract -->
<g id="edge12" class="edge">
<title>WebInputProvider&#45;&gt;WifiActionSelectionInputContract</title>
<path fill="none" stroke="#59636e" stroke-dasharray="5,2" d="M1906.57,-1064.16C1960.09,-1060.29 2031.13,-1056.78 2094,-1059.02 2104.95,-1059.4 2116.35,-1059.96 2127.75,-1060.6"/>
<polygon fill="#59636e" stroke="#59636e" points="2127.39,-1063.04 2134.52,-1061 2127.68,-1058.14 2127.39,-1063.04"/>
<text xml:space="preserve" text-anchor="middle" x="2050.88" y="-1062.07" font-family="Inter" font-size="11.00" fill="#59636e">may implement</text>
</g>
<!-- VoidWifiProvider&#45;&gt;WifiScanContract -->
<g id="edge13" class="edge">
<title>VoidWifiProvider&#45;&gt;WifiScanContract</title>
<path fill="none" stroke="#59636e" d="M1362.34,-632.86C1386.8,-645.62 1413.89,-658.57 1439.75,-668.52 1524.32,-701.03 1561.91,-669.32 1637,-720.02 1659.25,-735.04 1651,-753.13 1673,-768.52 1693.77,-783.04 1719.38,-792.84 1743.45,-799.41"/>
<polygon fill="#59636e" stroke="#59636e" points="1742.68,-801.75 1750.07,-801.14 1743.92,-797.01 1742.68,-801.75"/>
<text xml:space="preserve" text-anchor="middle" x="1538.38" y="-723.07" font-family="Inter" font-size="11.00" fill="#59636e">implements</text>
</g>
<!-- VoidWifiProvider&#45;&gt;WifiStatusContract -->
<g id="edge14" class="edge">
<title>VoidWifiProvider&#45;&gt;WifiStatusContract</title>
<path fill="none" stroke="#59636e" d="M1362.33,-628.96C1378.07,-640.62 1392.95,-654.49 1403.75,-670.52 1445.7,-732.75 1385.4,-783.75 1439.75,-835.52 1520.49,-912.42 1656.95,-916.5 1742.94,-909.87"/>
<polygon fill="#59636e" stroke="#59636e" points="1743.07,-912.32 1749.85,-909.3 1742.67,-907.43 1743.07,-912.32"/>
<text xml:space="preserve" text-anchor="middle" x="1538.38" y="-912.33" font-family="Inter" font-size="11.00" fill="#59636e">implements</text>
</g>
<!-- VoidWifiProvider&#45;&gt;WifiConnectContract -->
<g id="edge15" class="edge">
<title>VoidWifiProvider&#45;&gt;WifiConnectContract</title>
<path fill="none" stroke="#59636e" d="M1362.54,-538.57C1386.78,-527.66 1413.7,-517.58 1439.75,-512.02 1545.96,-489.32 1671.7,-511.56 1748.99,-530.7"/>
<polygon fill="#59636e" stroke="#59636e" points="1748.39,-533.08 1755.78,-532.41 1749.59,-528.32 1748.39,-533.08"/>
<text xml:space="preserve" text-anchor="middle" x="1538.38" y="-515.07" font-family="Inter" font-size="11.00" fill="#59636e">implements</text>
</g>
<!-- VoidWifiProvider&#45;&gt;WifiSavedNetworkContract -->
<g id="edge16" class="edge">
<title>VoidWifiProvider&#45;&gt;WifiSavedNetworkContract</title>
<path fill="none" stroke="#59636e" d="M1351.57,-523.15C1377.79,-504.83 1408.58,-486.98 1439.75,-477.02 1533.42,-447.07 1646.67,-447.63 1725.36,-453.4"/>
<polygon fill="#59636e" stroke="#59636e" points="1725.15,-455.84 1732.32,-453.93 1725.53,-450.95 1725.15,-455.84"/>
<text xml:space="preserve" text-anchor="middle" x="1538.38" y="-480.07" font-family="Inter" font-size="11.00" fill="#59636e">implements</text>
</g>
<!-- VoidWifiProvider&#45;&gt;WifiSavedSecretContract -->
<g id="edge17" class="edge">
<title>VoidWifiProvider&#45;&gt;WifiSavedSecretContract</title>
<path fill="none" stroke="#59636e" d="M1362.26,-594.63C1452.69,-606.4 1589.63,-627.15 1637,-650.02 1656.15,-659.26 1654.38,-671.26 1673,-681.52 1691.18,-691.53 1711.9,-699.51 1731.96,-705.77"/>
<polygon fill="#59636e" stroke="#59636e" points="1731.06,-708.05 1738.47,-707.73 1732.47,-703.36 1731.06,-708.05"/>
<text xml:space="preserve" text-anchor="middle" x="1538.38" y="-653.07" font-family="Inter" font-size="11.00" fill="#59636e">implements</text>
</g>
<!-- VoidWifiProvider&#45;&gt;WifiForgetContract -->
<g id="edge18" class="edge">
<title>VoidWifiProvider&#45;&gt;WifiForgetContract</title>
<path fill="none" stroke="#59636e" d="M1362.3,-582.34C1387.24,-581.8 1414.59,-581.29 1439.75,-581.02 1527.41,-580.07 1550.74,-565.37 1637,-581.02 1653.81,-584.06 1656.8,-589.08 1673,-594.52 1696.8,-602.5 1723,-610.51 1746.66,-617.48"/>
<polygon fill="#59636e" stroke="#59636e" points="1745.73,-619.75 1753.13,-619.37 1747.1,-615.05 1745.73,-619.75"/>
<text xml:space="preserve" text-anchor="middle" x="1538.38" y="-584.07" font-family="Inter" font-size="11.00" fill="#59636e">implements</text>
</g>
<!-- WpaCli -->
<g id="node27" class="node">
<title>WpaCli</title>
<path fill="#f6f8fa" stroke="#2f3437" d="M1894.5,-395.77C1894.5,-395.77 1750.25,-395.77 1750.25,-395.77 1744.25,-395.77 1738.25,-389.77 1738.25,-383.77 1738.25,-383.77 1738.25,-371.27 1738.25,-371.27 1738.25,-365.27 1744.25,-359.27 1750.25,-359.27 1750.25,-359.27 1894.5,-359.27 1894.5,-359.27 1900.5,-359.27 1906.5,-365.27 1906.5,-371.27 1906.5,-371.27 1906.5,-383.77 1906.5,-383.77 1906.5,-389.77 1900.5,-395.77 1894.5,-395.77"/>
<text xml:space="preserve" text-anchor="middle" x="1822.38" y="-380.37" font-family="Inter" font-size="12.00" fill="#1f2328">&lt;&lt;external command&gt;&gt;</text>
<text xml:space="preserve" text-anchor="middle" x="1822.38" y="-366.12" font-family="Inter" font-size="12.00" fill="#1f2328">wpa_cli</text>
</g>
<!-- VoidWifiProvider&#45;&gt;WpaCli -->
<g id="edge22" class="edge">
<title>VoidWifiProvider&#45;&gt;WpaCli</title>
<path fill="none" stroke="#59636e" d="M1323.03,-523.28C1352.25,-488.46 1393.41,-447.45 1439.75,-425.02 1531.4,-380.64 1649.29,-372.28 1729.63,-372.77"/>
<polygon fill="#59636e" stroke="#59636e" points="1729.24,-375.22 1736.26,-372.84 1729.29,-370.32 1729.24,-375.22"/>
<text xml:space="preserve" text-anchor="middle" x="1538.38" y="-428.07" font-family="Inter" font-size="11.00" fill="#59636e">uses</text>
</g>
<!-- Dhcpcd -->
<g id="node28" class="node">
<title>Dhcpcd</title>
<path fill="#f6f8fa" stroke="#2f3437" d="M2341.75,-141.77C2341.75,-141.77 2143.5,-141.77 2143.5,-141.77 2137.5,-141.77 2131.5,-135.77 2131.5,-129.77 2131.5,-129.77 2131.5,-117.27 2131.5,-117.27 2131.5,-111.27 2137.5,-105.27 2143.5,-105.27 2143.5,-105.27 2341.75,-105.27 2341.75,-105.27 2347.75,-105.27 2353.75,-111.27 2353.75,-117.27 2353.75,-117.27 2353.75,-129.77 2353.75,-129.77 2353.75,-135.77 2347.75,-141.77 2341.75,-141.77"/>
<text xml:space="preserve" text-anchor="middle" x="2242.62" y="-126.37" font-family="Inter" font-size="12.00" fill="#1f2328">&lt;&lt;external service / command&gt;&gt;</text>
<text xml:space="preserve" text-anchor="middle" x="2242.62" y="-112.12" font-family="Inter" font-size="12.00" fill="#1f2328">dhcpcd</text>
</g>
<!-- VoidWifiProvider&#45;&gt;Dhcpcd -->
<g id="edge23" class="edge">
<title>VoidWifiProvider&#45;&gt;Dhcpcd</title>
<path fill="none" stroke="#59636e" d="M1278.82,-523.55C1283.99,-418.55 1310.77,-204.39 1439.75,-95.52 1661.75,91.88 2054.24,-44.64 2192.09,-101.68"/>
<polygon fill="#59636e" stroke="#59636e" points="2190.83,-103.81 2198.23,-104.24 2192.71,-99.29 2190.83,-103.81"/>
<text xml:space="preserve" text-anchor="middle" x="1822.38" y="-33.81" font-family="Inter" font-size="11.00" fill="#59636e">uses</text>
</g>
<!-- Iw -->
<g id="node29" class="node">
<title>Iw</title>
<path fill="#f6f8fa" stroke="#2f3437" d="M1894.5,-308.77C1894.5,-308.77 1750.25,-308.77 1750.25,-308.77 1744.25,-308.77 1738.25,-302.77 1738.25,-296.77 1738.25,-296.77 1738.25,-284.27 1738.25,-284.27 1738.25,-278.27 1744.25,-272.27 1750.25,-272.27 1750.25,-272.27 1894.5,-272.27 1894.5,-272.27 1900.5,-272.27 1906.5,-278.27 1906.5,-284.27 1906.5,-284.27 1906.5,-296.77 1906.5,-296.77 1906.5,-302.77 1900.5,-308.77 1894.5,-308.77"/>
<text xml:space="preserve" text-anchor="middle" x="1822.38" y="-293.37" font-family="Inter" font-size="12.00" fill="#1f2328">&lt;&lt;external command&gt;&gt;</text>
<text xml:space="preserve" text-anchor="middle" x="1822.38" y="-279.12" font-family="Inter" font-size="12.00" fill="#1f2328">iw</text>
</g>
<!-- VoidWifiProvider&#45;&gt;Iw -->
<g id="edge24" class="edge">
<title>VoidWifiProvider&#45;&gt;Iw</title>
<path fill="none" stroke="#59636e" d="M1303.35,-523.15C1329.32,-468.71 1375.01,-391.69 1439.75,-351.02 1527.2,-296.07 1647.5,-285.33 1729.5,-285.5"/>
<polygon fill="#59636e" stroke="#59636e" points="1729.28,-287.95 1736.3,-285.55 1729.32,-283.05 1729.28,-287.95"/>
<text xml:space="preserve" text-anchor="middle" x="1538.38" y="-354.07" font-family="Inter" font-size="11.00" fill="#59636e">uses</text>
</g>
<!-- Ip -->
<g id="node30" class="node">
<title>Ip</title>
<path fill="#f6f8fa" stroke="#2f3437" d="M1894.5,-221.77C1894.5,-221.77 1750.25,-221.77 1750.25,-221.77 1744.25,-221.77 1738.25,-215.77 1738.25,-209.77 1738.25,-209.77 1738.25,-197.27 1738.25,-197.27 1738.25,-191.27 1744.25,-185.27 1750.25,-185.27 1750.25,-185.27 1894.5,-185.27 1894.5,-185.27 1900.5,-185.27 1906.5,-191.27 1906.5,-197.27 1906.5,-197.27 1906.5,-209.77 1906.5,-209.77 1906.5,-215.77 1900.5,-221.77 1894.5,-221.77"/>
<text xml:space="preserve" text-anchor="middle" x="1822.38" y="-206.37" font-family="Inter" font-size="12.00" fill="#1f2328">&lt;&lt;external command&gt;&gt;</text>
<text xml:space="preserve" text-anchor="middle" x="1822.38" y="-192.12" font-family="Inter" font-size="12.00" fill="#1f2328">ip</text>
</g>
<!-- VoidWifiProvider&#45;&gt;Ip -->
<g id="edge25" class="edge">
<title>VoidWifiProvider&#45;&gt;Ip</title>
<path fill="none" stroke="#59636e" d="M1291.08,-523.3C1310.38,-449.57 1353.76,-327.82 1439.75,-265.02 1523.84,-203.6 1646.2,-194.04 1729.54,-196.04"/>
<polygon fill="#59636e" stroke="#59636e" points="1729.41,-198.49 1736.47,-196.24 1729.55,-193.59 1729.41,-198.49"/>
<text xml:space="preserve" text-anchor="middle" x="1538.38" y="-268.07" font-family="Inter" font-size="11.00" fill="#59636e">uses</text>
</g>
<!-- Sv -->
<g id="node31" class="node">
<title>Sv</title>
<path fill="#f6f8fa" stroke="#2f3437" d="M1894.5,-134.77C1894.5,-134.77 1750.25,-134.77 1750.25,-134.77 1744.25,-134.77 1738.25,-128.77 1738.25,-122.77 1738.25,-122.77 1738.25,-110.27 1738.25,-110.27 1738.25,-104.27 1744.25,-98.27 1750.25,-98.27 1750.25,-98.27 1894.5,-98.27 1894.5,-98.27 1900.5,-98.27 1906.5,-104.27 1906.5,-110.27 1906.5,-110.27 1906.5,-122.77 1906.5,-122.77 1906.5,-128.77 1900.5,-134.77 1894.5,-134.77"/>
<text xml:space="preserve" text-anchor="middle" x="1822.38" y="-119.37" font-family="Inter" font-size="12.00" fill="#1f2328">&lt;&lt;external command&gt;&gt;</text>
<text xml:space="preserve" text-anchor="middle" x="1822.38" y="-105.12" font-family="Inter" font-size="12.00" fill="#1f2328">sv</text>
</g>
<!-- VoidWifiProvider&#45;&gt;Sv -->
<g id="edge26" class="edge">
<title>VoidWifiProvider&#45;&gt;Sv</title>
<path fill="none" stroke="#59636e" d="M1283.29,-523.21C1294.87,-431.7 1330.67,-260.86 1439.75,-174.02 1521.55,-108.89 1645.43,-101.8 1729.69,-106.19"/>
<polygon fill="#59636e" stroke="#59636e" points="1729.34,-108.62 1736.47,-106.57 1729.62,-103.73 1729.34,-108.62"/>
<text xml:space="preserve" text-anchor="middle" x="1538.38" y="-177.07" font-family="Inter" font-size="11.00" fill="#59636e">uses</text>
</g>
<!-- WindowsWifiProvider -->
<g id="node23" class="node">
<title>WindowsWifiProvider</title>
<path fill="#fff8c5" stroke="#2f3437" d="M1348.62,-731.77C1348.62,-731.77 1205.12,-731.77 1205.12,-731.77 1199.12,-731.77 1193.12,-725.77 1193.12,-719.77 1193.12,-719.77 1193.12,-707.27 1193.12,-707.27 1193.12,-701.27 1199.12,-695.27 1205.12,-695.27 1205.12,-695.27 1348.62,-695.27 1348.62,-695.27 1354.62,-695.27 1360.62,-701.27 1360.62,-707.27 1360.62,-707.27 1360.62,-719.77 1360.62,-719.77 1360.62,-725.77 1354.62,-731.77 1348.62,-731.77"/>
<text xml:space="preserve" text-anchor="middle" x="1276.88" y="-716.37" font-family="Inter" font-size="12.00" fill="#1f2328">&lt;&lt;provider candidate&gt;&gt;</text>
<text xml:space="preserve" text-anchor="middle" x="1276.88" y="-702.12" font-family="Inter" font-size="12.00" fill="#1f2328">WindowsWifiProvider</text>
</g>
<!-- WindowsWifiProvider&#45;&gt;WifiScanContract -->
<g id="edge19" class="edge">
<title>WindowsWifiProvider&#45;&gt;WifiScanContract</title>
<path fill="none" stroke="#59636e" stroke-dasharray="5,2" d="M1361.01,-728.66C1465.1,-747.62 1642.02,-779.85 1743.55,-798.34"/>
<polygon fill="#59636e" stroke="#59636e" points="1742.82,-800.7 1750.14,-799.54 1743.7,-795.88 1742.82,-800.7"/>
<text xml:space="preserve" text-anchor="middle" x="1538.38" y="-780.72" font-family="Inter" font-size="11.00" fill="#59636e">may implement</text>
</g>
<!-- NetworkManagerWifiProvider -->
<g id="node24" class="node">
<title>NetworkManagerWifiProvider</title>
<path fill="#fff8c5" stroke="#2f3437" d="M1359.88,-905.77C1359.88,-905.77 1193.88,-905.77 1193.88,-905.77 1187.88,-905.77 1181.88,-899.77 1181.88,-893.77 1181.88,-893.77 1181.88,-881.27 1181.88,-881.27 1181.88,-875.27 1187.88,-869.27 1193.88,-869.27 1193.88,-869.27 1359.88,-869.27 1359.88,-869.27 1365.88,-869.27 1371.88,-875.27 1371.88,-881.27 1371.88,-881.27 1371.88,-893.77 1371.88,-893.77 1371.88,-899.77 1365.88,-905.77 1359.88,-905.77"/>
<text xml:space="preserve" text-anchor="middle" x="1276.88" y="-890.37" font-family="Inter" font-size="12.00" fill="#1f2328">&lt;&lt;provider candidate&gt;&gt;</text>
<text xml:space="preserve" text-anchor="middle" x="1276.88" y="-876.12" font-family="Inter" font-size="12.00" fill="#1f2328">NetworkManagerWifiProvider</text>
</g>
<!-- NetworkManagerWifiProvider&#45;&gt;WifiScanContract -->
<g id="edge20" class="edge">
<title>NetworkManagerWifiProvider&#45;&gt;WifiScanContract</title>
<path fill="none" stroke="#59636e" stroke-dasharray="5,2" d="M1309.86,-906.25C1376.74,-942.71 1533.75,-1013.83 1637,-944.52 1672.08,-920.96 1641.66,-884.86 1673,-856.52 1692.42,-838.95 1718.55,-828.38 1743.48,-822.03"/>
<polygon fill="#59636e" stroke="#59636e" points="1743.81,-824.47 1750.05,-820.46 1742.67,-819.7 1743.81,-824.47"/>
<text xml:space="preserve" text-anchor="middle" x="1538.38" y="-976.75" font-family="Inter" font-size="11.00" fill="#59636e">may implement</text>
</g>
<!-- IwdWifiProvider -->
<g id="node25" class="node">
<title>IwdWifiProvider</title>
<path fill="#fff8c5" stroke="#2f3437" d="M1348.62,-818.77C1348.62,-818.77 1205.12,-818.77 1205.12,-818.77 1199.12,-818.77 1193.12,-812.77 1193.12,-806.77 1193.12,-806.77 1193.12,-794.27 1193.12,-794.27 1193.12,-788.27 1199.12,-782.27 1205.12,-782.27 1205.12,-782.27 1348.62,-782.27 1348.62,-782.27 1354.62,-782.27 1360.62,-788.27 1360.62,-794.27 1360.62,-794.27 1360.62,-806.77 1360.62,-806.77 1360.62,-812.77 1354.62,-818.77 1348.62,-818.77"/>
<text xml:space="preserve" text-anchor="middle" x="1276.88" y="-803.37" font-family="Inter" font-size="12.00" fill="#1f2328">&lt;&lt;provider candidate&gt;&gt;</text>
<text xml:space="preserve" text-anchor="middle" x="1276.88" y="-789.12" font-family="Inter" font-size="12.00" fill="#1f2328">IwdWifiProvider</text>
</g>
<!-- IwdWifiProvider&#45;&gt;WifiScanContract -->
<g id="edge21" class="edge">
<title>IwdWifiProvider&#45;&gt;WifiScanContract</title>
<path fill="none" stroke="#59636e" stroke-dasharray="5,2" d="M1361.05,-803.94C1386.32,-804.89 1414.17,-805.84 1439.75,-806.52 1544.72,-809.29 1665.98,-810.93 1743.12,-811.77"/>
<polygon fill="#59636e" stroke="#59636e" points="1742.84,-814.22 1749.87,-811.85 1742.89,-809.32 1742.84,-814.22"/>
<text xml:space="preserve" text-anchor="middle" x="1538.38" y="-813.32" font-family="Inter" font-size="11.00" fill="#59636e">may implement</text>
</g>
<!-- WpaSupplicant -->
<g id="node26" class="node">
<title>WpaSupplicant</title>
<path fill="#f6f8fa" stroke="#2f3437" d="M2305.75,-323.77C2305.75,-323.77 2179.5,-323.77 2179.5,-323.77 2173.5,-323.77 2167.5,-317.77 2167.5,-311.77 2167.5,-311.77 2167.5,-299.27 2167.5,-299.27 2167.5,-293.27 2173.5,-287.27 2179.5,-287.27 2179.5,-287.27 2305.75,-287.27 2305.75,-287.27 2311.75,-287.27 2317.75,-293.27 2317.75,-299.27 2317.75,-299.27 2317.75,-311.77 2317.75,-311.77 2317.75,-317.77 2311.75,-323.77 2305.75,-323.77"/>
<text xml:space="preserve" text-anchor="middle" x="2242.62" y="-308.37" font-family="Inter" font-size="12.00" fill="#1f2328">&lt;&lt;external service&gt;&gt;</text>
<text xml:space="preserve" text-anchor="middle" x="2242.62" y="-294.12" font-family="Inter" font-size="12.00" fill="#1f2328">wpa_supplicant</text>
</g>
<!-- WpaCli&#45;&gt;WpaSupplicant -->
<g id="edge27" class="edge">
<title>WpaCli&#45;&gt;WpaSupplicant</title>
<path fill="none" stroke="#59636e" d="M1906.76,-363.16C1979.96,-350.56 2085.85,-332.33 2158.87,-319.76"/>
<polygon fill="#59636e" stroke="#59636e" points="2159.18,-322.19 2165.67,-318.59 2158.35,-317.36 2159.18,-322.19"/>
<text xml:space="preserve" text-anchor="middle" x="2050.88" y="-346.72" font-family="Inter" font-size="11.00" fill="#59636e">controls</text>
</g>
<!-- Sv&#45;&gt;WpaSupplicant -->
<g id="edge29" class="edge">
<title>Sv&#45;&gt;WpaSupplicant</title>
<path fill="none" stroke="#59636e" stroke-dasharray="5,2" d="M1906.83,-128.18C1932.02,-134.68 1958.59,-144.79 1979.75,-160.52 1998.35,-174.34 1990.48,-189.06 2007.75,-204.52 2049.89,-242.22 2070.09,-238.09 2122,-260.52 2140.8,-268.64 2161.6,-276.75 2180.51,-283.81"/>
<polygon fill="#59636e" stroke="#59636e" points="2179.65,-286.11 2187.07,-286.24 2181.35,-281.51 2179.65,-286.11"/>
<text xml:space="preserve" text-anchor="middle" x="2050.88" y="-251.89" font-family="Inter" font-size="11.00" fill="#59636e">manages</text>
</g>
<!-- Sv&#45;&gt;Dhcpcd -->
<g id="edge30" class="edge">
<title>Sv&#45;&gt;Dhcpcd</title>
<path fill="none" stroke="#59636e" stroke-dasharray="5,2" d="M1906.76,-117.91C1968.59,-118.95 2053.75,-120.37 2122.71,-121.53"/>
<polygon fill="#59636e" stroke="#59636e" points="2122.48,-123.97 2129.52,-121.64 2122.57,-119.07 2122.48,-123.97"/>
<text xml:space="preserve" text-anchor="middle" x="2050.88" y="-123.9" font-family="Inter" font-size="11.00" fill="#59636e">manages</text>
</g>
<!-- Runit -->
<g id="node32" class="node">
<title>Runit</title>
<path fill="#f6f8fa" stroke="#2f3437" d="M2335,-235.77C2335,-235.77 2150.25,-235.77 2150.25,-235.77 2144.25,-235.77 2138.25,-229.77 2138.25,-223.77 2138.25,-223.77 2138.25,-211.27 2138.25,-211.27 2138.25,-205.27 2144.25,-199.27 2150.25,-199.27 2150.25,-199.27 2335,-199.27 2335,-199.27 2341,-199.27 2347,-205.27 2347,-211.27 2347,-211.27 2347,-223.77 2347,-223.77 2347,-229.77 2341,-235.77 2335,-235.77"/>
<text xml:space="preserve" text-anchor="middle" x="2242.62" y="-220.37" font-family="Inter" font-size="12.00" fill="#1f2328">&lt;&lt;external service manager&gt;&gt;</text>
<text xml:space="preserve" text-anchor="middle" x="2242.62" y="-206.12" font-family="Inter" font-size="12.00" fill="#1f2328">runit</text>
</g>
<!-- Sv&#45;&gt;Runit -->
<g id="edge28" class="edge">
<title>Sv&#45;&gt;Runit</title>
<path fill="none" stroke="#59636e" d="M1900.58,-135.16C1973,-152.65 2081.09,-178.75 2156.1,-196.86"/>
<polygon fill="#59636e" stroke="#59636e" points="2155.32,-199.19 2162.7,-198.46 2156.47,-194.43 2155.32,-199.19"/>
<text xml:space="preserve" text-anchor="middle" x="2050.88" y="-182.08" font-family="Inter" font-size="11.00" fill="#59636e">talks to</text>
</g>
<!-- TerminalInputProvider -->
<g id="node33" class="node">
<title>TerminalInputProvider</title>
<path fill="#f6f8fa" stroke="#2f3437" d="M1883.25,-1003.52C1883.25,-1003.52 1761.5,-1003.52 1761.5,-1003.52 1755.5,-1003.52 1749.5,-997.52 1749.5,-991.52 1749.5,-991.52 1749.5,-979.52 1749.5,-979.52 1749.5,-973.52 1755.5,-967.52 1761.5,-967.52 1761.5,-967.52 1883.25,-967.52 1883.25,-967.52 1889.25,-967.52 1895.25,-973.52 1895.25,-979.52 1895.25,-979.52 1895.25,-991.52 1895.25,-991.52 1895.25,-997.52 1889.25,-1003.52 1883.25,-1003.52"/>
<text xml:space="preserve" text-anchor="middle" x="1822.38" y="-981.24" font-family="Inter" font-size="12.00" fill="#1f2328">TerminalInputProvider</text>
</g>
<!-- TerminalInputProvider&#45;&gt;WifiActionSelectionInputContract -->
<g id="edge1" class="edge">
<title>TerminalInputProvider&#45;&gt;WifiActionSelectionInputContract</title>
<path fill="none" stroke="#59636e" d="M1895.71,-996.83C1950.37,-1005.71 2027.14,-1018.9 2094,-1033.02 2116.2,-1037.7 2140.13,-1043.36 2162.13,-1048.8"/>
<polygon fill="#59636e" stroke="#59636e" points="2161.29,-1051.11 2168.68,-1050.43 2162.48,-1046.36 2161.29,-1051.11"/>
<text xml:space="preserve" text-anchor="middle" x="2050.88" y="-1036.07" font-family="Inter" font-size="11.00" fill="#59636e">implements</text>
</g>
<!-- TerminalInputProvider&#45;&gt;WifiNetworkSelectionInputContract -->
<g id="edge5" class="edge">
<title>TerminalInputProvider&#45;&gt;WifiNetworkSelectionInputContract</title>
<path fill="none" stroke="#59636e" d="M1895.44,-987.77C1923.57,-985.61 1954.96,-979.2 1979.75,-963.52 1998.87,-951.42 1987.84,-931.74 2007.75,-921.02 2041.5,-902.84 2057.15,-910.45 2094,-921.02 2108.11,-925.06 2108.82,-932.06 2122,-938.52 2139.04,-946.86 2158.09,-954.56 2175.88,-961.09"/>
<polygon fill="#59636e" stroke="#59636e" points="2174.59,-963.23 2182,-963.31 2176.25,-958.62 2174.59,-963.23"/>
<text xml:space="preserve" text-anchor="middle" x="2050.88" y="-924.07" font-family="Inter" font-size="11.00" fill="#59636e">implements</text>
</g>
<!-- TerminalInputProvider&#45;&gt;WifiPasswordInputContract -->
<g id="edge6" class="edge">
<title>TerminalInputProvider&#45;&gt;WifiPasswordInputContract</title>
<path fill="none" stroke="#59636e" d="M1895.54,-990.78C1924.51,-989.25 1956.48,-982.48 1979.75,-963.52 2008.46,-940.11 1977.48,-906.36 2007.75,-885.02 2058.67,-849.11 2132.47,-859.97 2183.49,-874.47"/>
<polygon fill="#59636e" stroke="#59636e" points="2182.62,-876.76 2190.03,-876.39 2184,-872.06 2182.62,-876.76"/>
<text xml:space="preserve" text-anchor="middle" x="2050.88" y="-888.07" font-family="Inter" font-size="11.00" fill="#59636e">implements</text>
</g>
</g>
</svg>
